<svg width="20" height="21" viewBox="0 0 20 21" fill="none" xmlns="http://www.w3.org/2000/svg">
<path d="M4.44784 6.46942C4.76219 3.64032 7.15349 1.5 10 1.5V1.5C12.8465 1.5 15.2378 3.64032 15.5522 6.46942L15.804 8.73563C15.8072 8.76452 15.8088 8.77897 15.8104 8.79326C15.9394 9.91695 16.3051 11.0005 16.8836 11.9725C16.8909 11.9849 16.8984 11.9973 16.9133 12.0222L17.4914 12.9856C18.0159 13.8599 18.2782 14.297 18.2216 14.6559C18.1839 14.8946 18.061 15.1117 17.8757 15.2668C17.5971 15.5 17.0873 15.5 16.0678 15.5H3.93223C2.91268 15.5 2.40291 15.5 2.12434 15.2668C1.93897 15.1117 1.81609 14.8946 1.77841 14.6559C1.72179 14.297 1.98407 13.8599 2.50862 12.9856L3.08665 12.0222C3.10161 11.9973 3.10909 11.9849 3.11644 11.9725C3.69488 11.0005 4.06064 9.91695 4.18959 8.79326C4.19123 8.77897 4.19283 8.76452 4.19604 8.73563L4.44784 6.46942Z" stroke="#014689" stroke-width="2"/>
<path d="M7.10222 16.1647C7.27315 17.1215 7.64978 17.967 8.17372 18.5701C8.69765 19.1731 9.3396 19.5 10 19.5C10.6604 19.5 11.3024 19.1731 11.8263 18.5701C12.3502 17.967 12.7269 17.1215 12.8978 16.1647" stroke="#014689" stroke-width="2" stroke-linecap="round"/>
</svg>
