<svg width="25" height="24" viewBox="0 0 25 24" fill="none" xmlns="http://www.w3.org/2000/svg">
    <rect x="0.75" y="0.5" width="23" height="23" rx="4.5" fill="#014689"/>
    <path d="M14.75 12C14.75 12.663 14.4866 13.2989 14.0178 13.7678C13.5489 14.2366 12.913 14.5 12.25 14.5C11.587 14.5 10.9511 14.2366 10.4822 13.7678C10.0134 13.2989 9.75 12.663 9.75 12C9.75 11.337 10.0134 10.7011 10.4822 10.2322C10.9511 9.76339 11.587 9.5 12.25 9.5C12.913 9.5 13.5489 9.76339 14.0178 10.2322C14.4866 10.7011 14.75 11.337 14.75 12Z" fill="white"/>
    <path d="M4.25 12C4.25 12 7.25 6.5 12.25 6.5C17.25 6.5 20.25 12 20.25 12C20.25 12 17.25 17.5 12.25 17.5C7.25 17.5 4.25 12 4.25 12ZM12.25 15.5C13.1783 15.5 14.0685 15.1313 14.7249 14.4749C15.3813 13.8185 15.75 12.9283 15.75 12C15.75 11.0717 15.3813 10.1815 14.7249 9.52513C14.0685 8.86875 13.1783 8.5 12.25 8.5C11.3217 8.5 10.4315 8.86875 9.77513 9.52513C9.11875 10.1815 8.75 11.0717 8.75 12C8.75 12.9283 9.11875 13.8185 9.77513 14.4749C10.4315 15.1313 11.3217 15.5 12.25 15.5Z" fill="white"/>
    <rect x="0.75" y="0.5" width="23" height="23" rx="4.5" stroke="#014689"/>
</svg>