<svg xmlns="http://www.w3.org/2000/svg" width="13" height="16.421" viewBox="0 0 13 16.421"><defs><style>.a{fill:#fff;}.b{fill:#b7b7b7;}</style></defs><g transform="translate(13146 2144.21)"><rect class="a" width="11" height="14" transform="translate(-13145 -2142)"/><path class="a" d="M6.513,3.421A.513.513,0,0,1,6,2.908V.513a.513.513,0,1,1,1.026,0V2.908A.513.513,0,0,1,6.513,3.421Z" transform="translate(-13149.264 -2144.21)"/><path class="a" d="M11.513,3.421A.513.513,0,0,1,11,2.908V.513a.513.513,0,1,1,1.026,0V2.908A.513.513,0,0,1,11.513,3.421Z" transform="translate(-13150.842 -2144.21)"/><path class="a" d="M16.013,3.421a.513.513,0,0,1-.513-.513V.513a.513.513,0,1,1,1.026,0V2.908A.513.513,0,0,1,16.013,3.421Z" transform="translate(-13152.264 -2144.21)"/><path class="b" d="M13.7,18.026H6.513a.513.513,0,1,1,0-1.026H13.7a.513.513,0,1,1,0,1.026Z" transform="translate(-13149.264 -2149.579)"/><path class="b" d="M13.7,14.026H6.513a.513.513,0,1,1,0-1.026H13.7a.513.513,0,1,1,0,1.026Z" transform="translate(-13149.264 -2148.316)"/><path class="b" d="M10.276,10.026H6.513A.513.513,0,1,1,6.513,9h3.763a.513.513,0,1,1,0,1.026Z" transform="translate(-13149.264 -2147.052)"/><path class="a" d="M13.118,17.053H3.882A1.883,1.883,0,0,1,2,15.171V3.882A1.883,1.883,0,0,1,3.882,2h9.237A1.883,1.883,0,0,1,15,3.882V15.171A1.883,1.883,0,0,1,13.118,17.053ZM3.882,3.026a.856.856,0,0,0-.855.855V15.171a.856.856,0,0,0,.855.855h9.237a.856.856,0,0,0,.855-.855V3.882a.856.856,0,0,0-.855-.855Z" transform="translate(-13148 -2144.842)"/></g></svg>