<svg width="12" height="13" viewBox="0 0 12 13" fill="none" xmlns="http://www.w3.org/2000/svg">
    <path d="M6 0V3.25C6 3.61941 6.18964 3.97369 6.52721 4.2349C6.86477 4.49611 7.32261 4.64286 7.8 4.64286H12V11.6071C12 11.9766 11.8104 12.3308 11.4728 12.592C11.1352 12.8533 10.6774 13 10.2 13H1.8C1.32261 13 0.864773 12.8533 0.527208 12.592C0.189642 12.3308 0 11.9766 0 11.6071V1.39286C0 1.02345 0.189642 0.66917 0.527208 0.407958C0.864773 0.146747 1.32261 0 1.8 0H6ZM7.2 0.232143V3.25C7.2 3.37314 7.26321 3.49123 7.37574 3.5783C7.48826 3.66537 7.64087 3.71429 7.8 3.71429H11.7L7.2 0.232143Z" fill="#014689"/>
</svg>