<svg width="200" height="27" viewBox="0 0 200 27" fill="none" xmlns="http://www.w3.org/2000/svg">
    <path d="M48.8807 21.8358H45.8685L47.3599 17.5823H47.3893L48.8807 21.8358ZM42.2352 25.8236H44.3762L45.2776 23.4601H49.4569L50.3428 25.8236H52.6321L48.5857 15.5146H46.2515L42.2352 25.8236Z" fill="#014689"/>
    <path d="M60.1634 17.405C59.513 17.1247 58.7902 16.9616 58.0665 16.9616C57.3574 16.9616 56.4422 17.2722 56.4422 18.3944C56.4422 20.1817 60.9605 19.4278 60.9605 22.8843C60.9605 25.1434 59.174 26 57.0917 26C55.9695 26 55.4675 25.8525 54.4479 25.6015L54.6402 23.7408C55.3493 24.1247 56.161 24.3757 56.9736 24.3757C57.7559 24.3757 58.8049 23.9772 58.8049 23.0464C58.8049 21.0823 54.2857 21.8949 54.2857 18.4833C54.2857 16.1792 56.073 15.3373 57.8888 15.3373C58.7747 15.3373 59.6019 15.4555 60.3549 15.7065L60.1634 17.405Z" fill="#014689"/>
    <path d="M65.5979 17.1394H62.6444V15.5151H70.6191V17.1394H67.6656V25.8232H65.5979V17.1394Z" fill="#014689"/>
    <path d="M74.7098 17.1394H75.3896C76.423 17.1394 77.5754 17.2429 77.5754 18.4833C77.5754 19.7678 76.4083 19.9161 75.3896 19.9161H74.7098V17.1394ZM72.6422 25.8232H74.7098V21.5404H75.374C76.2461 21.5404 76.5118 21.8354 76.8068 22.604L78.0472 25.8232H80.3512L78.6968 21.7914C78.4906 21.3334 78.1654 20.7727 77.6047 20.7278V20.6985C78.9185 20.5217 79.731 19.5176 79.731 18.3065C79.731 15.4409 77.088 15.5151 74.872 15.5151H72.6422V25.8232Z" fill="#014689"/>
    <path d="M88.311 21.8358H85.2988L86.7902 17.5823H86.8195L88.311 21.8358ZM81.6655 25.8236H83.8074L84.7079 23.4601H88.8872L89.7731 25.8236H92.0624L88.016 15.5146H85.6826L81.6655 25.8236Z" fill="#014689"/>
    <path d="M54.3877 4.62962C51.8085 4.81163 46.8831 5.58107 42.8547 6.28409C38.8264 6.98625 36.8597 7.45465 35.1664 7.86094C30.674 8.9366 23.9371 10.8533 20.3797 11.9911C17.1976 13.0064 8.88045 16.4809 8.62943 16.4283C8.49487 16.3973 8.22315 16.1161 8.64668 15.8331C7.80479 16.3938 20.8585 4.88668 42.2406 1.96935V2.28882e-05H0V22.8953C13.0356 17.6627 27.2969 15.6201 42.2406 15.6063V10.0813L42.6029 9.98467H42.6046C51.134 6.77578 61.0659 5.48619 77.1965 3.77478V3.23479C75.8845 3.24514 65.8714 3.36936 54.5895 4.61496C54.5214 4.61927 54.4567 4.62358 54.3877 4.62962Z" fill="#014689"/>
    <path d="M77.209 2.92728C77.209 2.92728 67.1796 2.09573 54.477 3.04287C50.534 3.33788 46.3332 3.92618 42.442 4.59038C34.1395 6.01196 27.2439 7.78029 27.2439 7.78029C27.2439 7.78029 26.7427 7.78633 27.2068 7.49132C27.9555 7.01689 34.0403 4.28847 42.442 2.63141C44.2491 2.27429 46.1581 1.96548 48.1489 1.7412C48.4448 1.7067 48.1489 1.39443 48.1489 1.39443C46.1874 1.50398 44.2259 1.62389 42.3851 1.88957C31.9347 3.39913 24.3361 6.57955 19.7686 8.82577C19.4624 8.97586 20.5406 8.29786 14.1462 11.8449C14.1462 11.8449 10.1601 14.5215 9.88668 14.795C9.48816 15.1935 13.1637 13.5503 15.761 12.6333C18.1762 11.7828 24.663 9.93163 26.1415 9.48566C27.2146 9.16132 30.9203 8.38929 34.7286 7.61726C38.3628 6.87973 41.7985 6.4053 42.0124 6.38805C42.2772 6.36821 42.2384 6.38805 42.2384 6.38805C42.2384 6.38805 46.1969 5.748 46.9689 5.60222C48.1645 5.3788 54.7228 4.5947 54.791 4.58952C66.072 3.34392 77.3988 3.23437 77.1969 3.23437L77.209 2.92728Z" fill="#BCC2DE"/>
    <path d="M104.594 23.968C104.066 24.24 103.026 24.432 102.146 24.432C99.7616 24.432 98.3536 22.72 98.3536 20.448C98.3536 18.16 99.7936 16.4 102.098 16.4C102.898 16.4 103.666 16.512 104.514 16.992L104.674 15.104C103.858 14.784 102.882 14.64 102.146 14.64C98.3536 14.64 96.0176 16.784 96.0176 20.608C96.0176 24.384 98.5296 26.192 102.146 26.192C102.994 26.192 103.874 26.032 104.69 25.84L104.594 23.968ZM107.151 26H109.391V14.832H107.151V26ZM119.004 15.04C118.188 14.768 117.292 14.64 116.332 14.64C114.364 14.64 112.428 15.552 112.428 18.048C112.428 21.744 117.324 20.864 117.324 22.992C117.324 24 116.188 24.432 115.34 24.432C114.46 24.432 113.58 24.16 112.812 23.744L112.604 25.76C113.708 26.032 114.252 26.192 115.468 26.192C117.724 26.192 119.66 25.264 119.66 22.816C119.66 19.072 114.764 19.888 114.764 17.952C114.764 16.736 115.756 16.4 116.524 16.4C117.308 16.4 118.092 16.576 118.796 16.88L119.004 15.04ZM124.719 26H126.959V16.592H130.159V14.832H121.519V16.592H124.719V26ZM140.078 16.592H140.862C142.014 16.592 142.99 17.04 142.99 18.336C142.99 19.632 141.982 20 140.862 20H140.078V16.592ZM137.838 26H140.078V21.76H141.022C143.422 21.76 145.326 20.816 145.326 18.208C145.326 15.536 143.102 14.832 140.67 14.832H137.838V26ZM147.377 20.384C147.377 23.808 149.265 26.192 152.849 26.192C156.385 26.192 158.321 23.76 158.321 20.384C158.321 17.008 156.353 14.64 152.849 14.64C149.297 14.64 147.377 16.96 147.377 20.384ZM149.713 20.384C149.713 18.416 150.625 16.4 152.849 16.4C155.073 16.4 155.985 18.416 155.985 20.384C155.985 22.4 155.137 24.432 152.849 24.432C150.561 24.432 149.713 22.4 149.713 20.384ZM163.422 16.592H164.158C165.278 16.592 166.526 16.704 166.526 18.048C166.526 19.44 165.262 19.6 164.158 19.6H163.422V16.592ZM161.182 26H163.422V21.36H164.142C165.086 21.36 165.374 21.68 165.694 22.512L167.038 26H169.534L167.742 21.632C167.518 21.136 167.166 20.528 166.558 20.48V20.448C167.982 20.256 168.862 19.168 168.862 17.856C168.862 14.752 165.998 14.832 163.598 14.832H161.182V26ZM173.906 26H176.146V16.592H179.346V14.832H170.706V16.592H173.906V26ZM186.532 21.68H183.268L184.884 17.072H184.916L186.532 21.68ZM179.332 26H181.652L182.628 23.44H187.156L188.116 26H190.596L186.212 14.832H183.684L179.332 26ZM193.03 26H199.606V24.24H195.27V14.832H193.03V26Z" fill="#014689"/>
</svg>