<svg width="15" height="13" viewBox="0 0 15 13" fill="none" xmlns="http://www.w3.org/2000/svg">
    <path d="M14.4643 0.605469H0.535714C0.239397 0.605469 0 0.844866 0 1.14118V11.8555C0 12.1518 0.239397 12.3912 0.535714 12.3912H14.4643C14.7606 12.3912 15 12.1518 15 11.8555V1.14118C15 0.844866 14.7606 0.605469 14.4643 0.605469ZM4.58705 3.01618C5.17801 3.01618 5.65848 3.49665 5.65848 4.08761C5.65848 4.67857 5.17801 5.15904 4.58705 5.15904C3.99609 5.15904 3.51562 4.67857 3.51562 4.08761C3.51562 3.49665 3.99609 3.01618 4.58705 3.01618ZM13.1903 10.3337C13.1659 10.3542 13.1351 10.3654 13.1032 10.3655H1.89509C1.82143 10.3655 1.76116 10.3052 1.76116 10.2316C1.76116 10.1998 1.77288 10.1696 1.79297 10.1445L4.64397 6.76283C4.69085 6.70591 4.77623 6.69922 4.83315 6.74609C4.83817 6.75112 4.84487 6.75614 4.84989 6.76283L6.51395 8.73828L9.16071 5.59933C9.20759 5.54241 9.29297 5.53571 9.34989 5.58259C9.35491 5.58761 9.36161 5.59263 9.36663 5.59933L13.2104 10.1462C13.2539 10.2015 13.2472 10.2868 13.1903 10.3337Z" fill="#014689"/>
</svg>
