<svg width="15" height="15" viewBox="0 0 15 15" fill="none" xmlns="http://www.w3.org/2000/svg">
    <g clip-path="url(#clip0_4221_6751)">
        <path d="M11.25 1.5H14.25C14.4489 1.5 14.6397 1.57902 14.7803 1.71967C14.921 1.86032 15 2.05109 15 2.25V14.25C15 14.4489 14.921 14.6397 14.7803 14.7803C14.6397 14.921 14.4489 15 14.25 15H0.75C0.551088 15 0.360322 14.921 0.21967 14.7803C0.0790176 14.6397 0 14.4489 0 14.25V2.25C0 2.05109 0.0790176 1.86032 0.21967 1.71967C0.360322 1.57902 0.551088 1.5 0.75 1.5H3.75V0H5.25V1.5H9.75V0H11.25V1.5ZM1.5 6V13.5H13.5V6H1.5ZM3 7.5H4.5V9H3V7.5ZM3 10.5H4.5V12H3V10.5ZM6 7.5H12V9H6V7.5ZM6 10.5H9.75V12H6V10.5Z" fill="#014689"/>
    </g>
    <defs>
        <clipPath id="clip0_4221_6751">
            <rect width="15" height="15" fill="white"/>
        </clipPath>
    </defs>
</svg>