<svg width="15" height="15" viewBox="0 0 15 15" fill="none" xmlns="http://www.w3.org/2000/svg">
    <path d="M14.6896 7.37708L7.87425 0.164242C7.82518 0.112168 7.76689 0.0708545 7.70273 0.0426666C7.63856 0.0144787 7.56978 -3.05176e-05 7.50031 -3.05176e-05C7.43084 -3.05176e-05 7.36206 0.0144787 7.29789 0.0426666C7.23373 0.0708545 7.17544 0.112168 7.12637 0.164242L0.311065 7.37708C0.112513 7.58736 0 7.873 0 8.17091C0 8.7895 0.474871 9.29244 1.05895 9.29244H1.77704V14.4392C1.77704 14.7494 2.01365 15 2.30652 15H6.44136V11.0746H8.29452V15H12.6941C12.987 15 13.2236 14.7494 13.2236 14.4392V9.29244H13.9417C14.223 9.29244 14.4927 9.17503 14.6912 8.96299C15.1032 8.52489 15.1032 7.81517 14.6896 7.37708Z" fill="#014689"/>
</svg>