<svg width="15" height="15" viewBox="0 0 15 15" fill="none" xmlns="http://www.w3.org/2000/svg">
    <g clip-path="url(#clip0_1250_9980)">
        <path d="M5.88629 0H1.11359C0.499526 0 0 0.841039 0 1.87512V13.1251C0 14.159 0.499526 15 1.11359 15H5.88629C6.50047 15 7 14.159 7 13.1251V1.87512C7 0.841039 6.50047 0 5.88629 0Z" fill="#014689"/>
        <path d="M13.8864 0H9.11371C8.49953 0 8 0.841039 8 1.87493V13.1249C8 14.159 8.49953 15 9.11371 15H13.8864C14.5005 15 15 14.159 15 13.1249V1.87493C15 0.841039 14.5005 0 13.8864 0V0Z" fill="#014689"/>
    </g>
    <defs>
        <clipPath id="clip0_1250_9980">
            <rect width="15" height="15" fill="white"/>
        </clipPath>
    </defs>
</svg>