<svg width="15" height="10" viewBox="0 0 15 10" fill="none" xmlns="http://www.w3.org/2000/svg">
    <path d="M7.5 0.4375C8.08016 0.4375 8.63656 0.667968 9.0468 1.0782C9.45703 1.48844 9.6875 2.04484 9.6875 2.625C9.6875 3.20516 9.45703 3.76156 9.0468 4.1718C8.63656 4.58203 8.08016 4.8125 7.5 4.8125C6.91984 4.8125 6.36344 4.58203 5.9532 4.1718C5.54297 3.76156 5.3125 3.20516 5.3125 2.625C5.3125 2.04484 5.54297 1.48844 5.9532 1.0782C6.36344 0.667968 6.91984 0.4375 7.5 0.4375ZM3.125 2C3.475 2 3.8 2.09375 4.08125 2.2625C3.9875 3.15625 4.25 4.04375 4.7875 4.7375C4.475 5.3375 3.85 5.75 3.125 5.75C2.62772 5.75 2.15081 5.55246 1.79917 5.20083C1.44754 4.84919 1.25 4.37228 1.25 3.875C1.25 3.37772 1.44754 2.90081 1.79917 2.54917C2.15081 2.19754 2.62772 2 3.125 2ZM11.875 2C12.3723 2 12.8492 2.19754 13.2008 2.54917C13.5525 2.90081 13.75 3.37772 13.75 3.875C13.75 4.37228 13.5525 4.84919 13.2008 5.20083C12.8492 5.55246 12.3723 5.75 11.875 5.75C11.15 5.75 10.525 5.3375 10.2125 4.7375C10.7574 4.03401 11.0104 3.14762 10.9187 2.2625C11.2 2.09375 11.525 2 11.875 2ZM3.4375 8.40625C3.4375 7.1125 5.25625 6.0625 7.5 6.0625C9.74375 6.0625 11.5625 7.1125 11.5625 8.40625V9.5H3.4375V8.40625ZM0 9.5V8.5625C0 7.69375 1.18125 6.9625 2.78125 6.75C2.4125 7.175 2.1875 7.7625 2.1875 8.40625V9.5H0ZM15 9.5H12.8125V8.40625C12.8125 7.7625 12.5875 7.175 12.2188 6.75C13.8187 6.9625 15 7.69375 15 8.5625V9.5Z" fill="#014689"/>
</svg>
