<svg width="15" height="15" viewBox="0 0 15 15" fill="none" xmlns="http://www.w3.org/2000/svg">
    <g clip-path="url(#clip0_4312_10365)">
        <path fill-rule="evenodd" clip-rule="evenodd" d="M12 1.5V3.75H14.25C14.4489 3.75 14.6397 3.82902 14.7803 3.96967C14.921 4.11032 15 4.30109 15 4.5V12C15 12.5967 14.7629 13.169 14.341 13.591C13.919 14.0129 13.3467 14.25 12.75 14.25H2.25C1.65326 14.25 1.08097 14.0129 0.65901 13.591C0.237053 13.169 0 12.5967 0 12V1.5C0 1.30109 0.0790176 1.11032 0.21967 0.96967C0.360322 0.829018 0.551088 0.75 0.75 0.75H11.25C11.4489 0.75 11.6397 0.829018 11.7803 0.96967C11.921 1.11032 12 1.30109 12 1.5ZM13.5 12C13.5 12.1989 13.421 12.3897 13.2803 12.5303C13.1397 12.671 12.9489 12.75 12.75 12.75C12.5511 12.75 12.3603 12.671 12.2197 12.5303C12.079 12.3897 12 12.1989 12 12V5.25H13.5V12ZM3 4.5C3 4.30109 3.07902 4.11032 3.21967 3.96967C3.36032 3.82902 3.55109 3.75 3.75 3.75H8.25C8.44891 3.75 8.63968 3.82902 8.78033 3.96967C8.92098 4.11032 9 4.30109 9 4.5C9 4.69891 8.92098 4.88968 8.78033 5.03033C8.63968 5.17098 8.44891 5.25 8.25 5.25H3.75C3.55109 5.25 3.36032 5.17098 3.21967 5.03033C3.07902 4.88968 3 4.69891 3 4.5ZM4.5 7.5C4.5 7.30109 4.57902 7.11032 4.71967 6.96967C4.86032 6.82902 5.05109 6.75 5.25 6.75H8.25C8.44891 6.75 8.63968 6.82902 8.78033 6.96967C8.92098 7.11032 9 7.30109 9 7.5C9 7.69891 8.92098 7.88968 8.78033 8.03033C8.63968 8.17098 8.44891 8.25 8.25 8.25H5.25C5.05109 8.25 4.86032 8.17098 4.71967 8.03033C4.57902 7.88968 4.5 7.69891 4.5 7.5Z" fill="#014689"/>
    </g>
    <defs>
        <clipPath id="clip0_4312_10365">
            <rect width="15" height="15" fill="white"/>
        </clipPath>
    </defs>
</svg>
