<svg width="15" height="15" viewBox="0 0 15 15" fill="none" xmlns="http://www.w3.org/2000/svg">
    <path d="M8.8235 0V3.97059C8.8235 4.32161 8.96294 4.65826 9.21115 4.90647C9.45936 5.15468 9.79601 5.29412 10.147 5.29412H14.1176V12.7941C14.1176 13.1451 13.9782 13.4818 13.73 13.73C13.4818 13.9782 13.1451 14.1176 12.7941 14.1176H8.59674C9.25574 13.3196 9.64236 12.3318 9.70012 11.2984C9.75789 10.2651 9.48379 9.24034 8.91784 8.37383C8.35189 7.50731 7.52374 6.84443 6.55432 6.48197C5.58491 6.11951 4.525 6.07646 3.52938 6.35912V1.32353C3.52938 0.972508 3.66883 0.635863 3.91704 0.387653C4.16525 0.139443 4.50189 0 4.85291 0H8.8235ZM9.70585 0.220588V3.97059C9.70585 4.0876 9.75233 4.19981 9.83507 4.28255C9.91781 4.36528 10.03 4.41176 10.147 4.41176H13.897L9.70585 0.220588ZM4.85291 15C5.90598 15 6.91591 14.5817 7.66054 13.837C8.40517 13.0924 8.8235 12.0825 8.8235 11.0294C8.8235 9.97635 8.40517 8.96641 7.66054 8.22178C6.91591 7.47715 5.90598 7.05882 4.85291 7.05882C3.79985 7.05882 2.78991 7.47715 2.04528 8.22178C1.30065 8.96641 0.882324 9.97635 0.882324 11.0294C0.882324 12.0825 1.30065 13.0924 2.04528 13.837C2.78991 14.5817 3.79985 15 4.85291 15ZM6.92997 10.7171C7.01281 10.7999 7.05935 10.9123 7.05935 11.0294C7.05935 11.1466 7.01281 11.2589 6.92997 11.3418C6.84713 11.4246 6.73477 11.4711 6.61762 11.4711C6.50046 11.4711 6.38811 11.4246 6.30526 11.3418L5.29409 10.3297V12.7941C5.29409 12.9111 5.24761 13.0233 5.16487 13.1061C5.08213 13.1888 4.96992 13.2353 4.85291 13.2353C4.7359 13.2353 4.62369 13.1888 4.54095 13.1061C4.45822 13.0233 4.41174 12.9111 4.41174 12.7941V10.3297L3.40056 11.3418C3.31784 11.4246 3.20559 11.4712 3.08852 11.4713C2.97145 11.4714 2.85914 11.4249 2.77629 11.3422C2.69345 11.2595 2.64687 11.1472 2.64678 11.0302C2.6467 10.9131 2.69313 10.8008 2.77585 10.7179L4.54056 8.95324C4.62266 8.87087 4.73397 8.82425 4.85027 8.82353H4.85556C4.9706 8.82405 5.08084 8.86967 5.16262 8.95059L5.16527 8.95324L6.92997 10.7179V10.7171Z" fill="#014689"/>
</svg>
