<svg width="15" height="15" viewBox="0 0 15 15" fill="none" xmlns="http://www.w3.org/2000/svg">
    <path d="M5.78121 -3.05176e-05H1.09371C0.490608 -3.05176e-05 0 0.490578 0 1.09368V3.90618C0 4.5094 0.490608 5.00001 1.09371 5.00001H5.78121C6.38443 5.00001 6.87504 4.5094 6.87504 3.90618V1.09368C6.87504 0.490578 6.38443 -3.05176e-05 5.78121 -3.05176e-05Z" fill="#014689"/>
    <path d="M5.78121 6.24993H1.09371C0.490608 6.24993 0 6.74054 0 7.34376V13.9063C0 14.5094 0.490608 15 1.09371 15H5.78121C6.38443 15 6.87504 14.5094 6.87504 13.9063V7.34376C6.87504 6.74054 6.38443 6.24993 5.78121 6.24993Z" fill="#014689"/>
    <path d="M13.9063 9.99993H9.2188C8.61558 9.99993 8.12497 10.4905 8.12497 11.0938V13.9063C8.12497 14.5094 8.61558 15 9.2188 15H13.9063C14.5094 15 15 14.5094 15 13.9063V11.0938C15 10.4905 14.5094 9.99993 13.9063 9.99993Z" fill="#014689"/>
    <path d="M13.9063 -3.05176e-05H9.2188C8.61558 -3.05176e-05 8.12497 0.490578 8.12497 1.09368V7.65618C8.12497 8.2594 8.61558 8.75001 9.2188 8.75001H13.9063C14.5094 8.75001 15 8.2594 15 7.65618V1.09368C15 0.490578 14.5094 -3.05176e-05 13.9063 -3.05176e-05V-3.05176e-05Z" fill="#014689"/>
</svg>