<svg width="15" height="15" viewBox="0 0 15 15" fill="none" xmlns="http://www.w3.org/2000/svg">
    <path d="M1 5C1 3.11438 1 2.17157 1.58579 1.58579C2.17157 1 3.11438 1 5 1H10C11.8856 1 12.8284 1 13.4142 1.58579C14 2.17157 14 3.11438 14 5V10C14 11.8856 14 12.8284 13.4142 13.4142C12.8284 14 11.8856 14 10 14H5C3.11438 14 2.17157 14 1.58579 13.4142C1 12.8284 1 11.8856 1 10V5Z" stroke="#014689" stroke-width="2"/>
    <path fill-rule="evenodd" clip-rule="evenodd" d="M11.8333 6.05558H8.30984C7.6163 6.05558 7.26953 6.05558 6.95142 5.94536C6.87687 5.91953 6.80392 5.88931 6.73294 5.85486C6.43005 5.70786 6.18485 5.46266 5.69444 4.97225C5.20404 4.48184 4.95883 4.23664 4.65595 4.08964C4.58497 4.05519 4.51202 4.02497 4.43747 3.99914C4.11936 3.88892 3.77259 3.88892 3.07905 3.88892H1V10C1 11.8856 1 12.8285 1.58579 13.4142C2.17157 14 3.11438 14 5 14H10C11.8856 14 12.8284 14 13.4142 13.4142C14 12.8285 14 11.8856 14 10V3.88892C14 4.04368 14 4.12106 13.9957 4.18639C13.9301 5.1879 13.1323 5.98566 12.1308 6.0513C12.0655 6.05558 11.9881 6.05558 11.8333 6.05558ZM3.88909 9.38892C3.33681 9.38892 2.88909 9.83664 2.88909 10.3889C2.88909 10.9412 3.33681 11.3889 3.88909 11.3889H9.66687C10.2192 11.3889 10.6669 10.9412 10.6669 10.3889C10.6669 9.83664 10.2192 9.38892 9.66687 9.38892H3.88909Z" fill="#014689"/>
</svg>