<svg width="14" height="14" viewBox="0 0 14 14" fill="none" xmlns="http://www.w3.org/2000/svg">
    <path fill-rule="evenodd" clip-rule="evenodd" d="M1.94444 7.00005C1.94444 4.20795 4.20789 1.9445 6.99999 1.9445C9.79214 1.9445 12.0555 4.20795 12.0555 7.00005C12.0555 9.7922 9.79214 12.0556 6.99999 12.0556C4.20789 12.0556 1.94444 9.7922 1.94444 7.00005ZM6.99999 0.777832C3.56355 0.777832 0.777771 3.56361 0.777771 7.00005C0.777771 10.4365 3.56355 13.2223 6.99999 13.2223C10.4364 13.2223 13.2222 10.4365 13.2222 7.00005C13.2222 3.56361 10.4364 0.777832 6.99999 0.777832ZM7.58333 4.47228C7.58333 4.15011 7.32216 3.88894 6.99999 3.88894C6.67783 3.88894 6.41666 4.15011 6.41666 4.47228V6.41672H4.47222C4.15005 6.41672 3.88888 6.67789 3.88888 7.00005C3.88888 7.32222 4.15005 7.58339 4.47222 7.58339H6.41666V9.52783C6.41666 9.84999 6.67783 10.1112 6.99999 10.1112C7.32216 10.1112 7.58333 9.84999 7.58333 9.52783V7.58339H9.52777C9.84993 7.58339 10.1111 7.32222 10.1111 7.00005C10.1111 6.67789 9.84993 6.41672 9.52777 6.41672H7.58333V4.47228Z" fill="white"/>
</svg>
