<svg width="24" height="25" viewBox="0 0 24 25" fill="none" xmlns="http://www.w3.org/2000/svg">
<rect x="0.5" y="1" width="23" height="23" rx="4.5" fill="white"/>
<path d="M14.5 12.5C14.5 13.163 14.2366 13.7989 13.7678 14.2678C13.2989 14.7366 12.663 15 12 15C11.337 15 10.7011 14.7366 10.2322 14.2678C9.76339 13.7989 9.5 13.163 9.5 12.5C9.5 11.837 9.76339 11.2011 10.2322 10.7322C10.7011 10.2634 11.337 10 12 10C12.663 10 13.2989 10.2634 13.7678 10.7322C14.2366 11.2011 14.5 11.837 14.5 12.5Z" fill="#014689"/>
<path d="M4 12.5C4 12.5 7 7 12 7C17 7 20 12.5 20 12.5C20 12.5 17 18 12 18C7 18 4 12.5 4 12.5ZM12 16C12.9283 16 13.8185 15.6313 14.4749 14.9749C15.1313 14.3185 15.5 13.4283 15.5 12.5C15.5 11.5717 15.1313 10.6815 14.4749 10.0251C13.8185 9.36875 12.9283 9 12 9C11.0717 9 10.1815 9.36875 9.52513 10.0251C8.86875 10.6815 8.5 11.5717 8.5 12.5C8.5 13.4283 8.86875 14.3185 9.52513 14.9749C10.1815 15.6313 11.0717 16 12 16Z" fill="#014689"/>
<rect x="0.5" y="1" width="23" height="23" rx="4.5" stroke="#014689"/>
</svg>
