<svg width="62" height="94" viewBox="0 0 62 94" fill="none" xmlns="http://www.w3.org/2000/svg">
    <path fill-rule="evenodd" clip-rule="evenodd" d="M123.123 44.6401C122.102 41.8843 120.302 39.6391 118.006 37.6209C116.861 36.613 115.645 35.6352 114.681 34.4825C113.698 33.3044 113.109 31.9778 112.765 30.5462C112.049 27.5744 112.257 24.4879 111.388 21.5353C110.637 18.9848 109.256 16.6092 107.471 14.5222C103.786 10.2105 98.6138 7.07452 93.213 4.73158C90.2721 3.45208 86.9214 1.89615 83.5627 2.26672C80.1462 2.64454 77.29 4.64346 73.8171 4.87402C70.2985 5.10819 66.8551 4.20047 63.534 3.26739C60.2129 2.33432 56.9509 1.34452 53.5062 0.963078C49.1533 0.480246 44.7266 0.954628 40.5685 2.17016C40.3627 2.16593 40.1595 2.21136 39.98 2.30173L39.7422 2.42244C38.7373 2.74433 37.7521 3.10645 36.7865 3.50881C31.5537 5.70449 26.9643 9.21226 23.8474 13.5928C22.1009 16.054 20.877 18.7458 20.0306 21.5426C19.0338 23.484 18.2095 25.4932 17.5653 27.5514C16.6248 30.5474 15.9652 33.7353 16.2218 36.8556C16.4542 39.621 17.482 42.2078 19.0807 44.5676C22.0095 48.8926 26.3544 52.2519 29.4189 56.4851C31.0311 58.717 32.1596 61.1505 32.4914 63.8133C32.8757 66.889 32.4914 69.9875 32.1932 73.0535C31.8895 76.2185 31.6813 79.4172 32.3813 82.5532C33.053 85.5456 34.6329 88.3146 36.7073 90.7119C40.4462 95.0332 46.5376 98.6376 52.8788 97.9049C55.9688 97.5428 58.5806 96.0943 60.7033 94.0953C62.8529 92.0819 64.4852 89.6919 66.5112 87.588C75.7517 77.9953 90.2398 75.0343 102.721 70.2881C108.824 67.9693 115.241 65.1496 119.579 60.4975C121.609 58.3247 123.132 55.7718 123.722 52.9653C124.31 50.1894 124.104 47.3248 123.123 44.6401Z" fill="#DBEDFF"/>
    <g opacity="0.6">
        <path d="M4.23008 10.4928L40.9916 5.37835C41.3636 5.32659 41.7068 5.58579 41.7592 5.95598L49.046 57.5116C49.0984 57.8818 48.8402 58.2247 48.4682 58.2764L11.7067 63.3908C11.3347 63.4426 10.9915 63.1834 10.9391 62.8132L3.65226 11.2576C3.59994 10.8874 3.85806 10.5445 4.23008 10.4928Z" fill="white" stroke="#014689"/>
        <path d="M38.514 9.76308L7.81938 14.03C7.28757 14.1039 6.91736 14.5945 6.99251 15.1257L13.0821 58.1758C13.1573 58.707 13.6493 59.0777 14.1811 59.0038L44.8757 54.7369C45.4075 54.663 45.7777 54.1724 45.7026 53.6412L39.613 10.5911C39.5378 10.0599 39.0458 9.68915 38.514 9.76308Z" fill="#DBEDFF"/>
        <path d="M36.8255 22.9623L14.337 26.0994C14.2597 26.1102 14.1811 26.1056 14.1056 26.0859C14.03 26.0662 13.959 26.0318 13.8967 25.9846C13.8344 25.9374 13.7819 25.8784 13.7422 25.811C13.7026 25.7435 13.6765 25.6689 13.6656 25.5914C13.6547 25.514 13.6591 25.4353 13.6786 25.3597C13.6982 25.2841 13.7324 25.2132 13.7793 25.1509C13.8263 25.0887 13.8851 25.0364 13.9523 24.9971C14.0195 24.9577 14.0938 24.9321 14.171 24.9217L36.6595 21.7845C36.7366 21.7734 36.8151 21.7777 36.8906 21.7972C36.9661 21.8166 37.0371 21.8508 37.0994 21.8978C37.1618 21.9447 37.2143 22.0036 37.2539 22.0709C37.2936 22.1382 37.3196 22.2127 37.3305 22.2901C37.3526 22.4466 37.3118 22.6054 37.2171 22.7314C37.1224 22.8575 36.9815 22.9405 36.8255 22.9623Z" fill="#014689"/>
        <path d="M37.477 27.6005L14.9885 30.7377C14.8329 30.7594 14.6749 30.7184 14.5492 30.6236C14.4234 30.5288 14.3401 30.3881 14.3174 30.2321C14.3065 30.1546 14.3109 30.0757 14.3304 30C14.3498 29.9243 14.384 29.8532 14.4309 29.7908C14.4778 29.7284 14.5365 29.6758 14.6037 29.6362C14.6709 29.5966 14.7452 29.5707 14.8225 29.5599L37.311 26.4228C37.467 26.401 37.6254 26.4423 37.7513 26.5376C37.8772 26.6328 37.9603 26.7743 37.9824 26.9308C38.0037 27.087 37.9625 27.2451 37.8678 27.3706C37.7731 27.4962 37.6326 27.5788 37.477 27.6005Z" fill="#014689"/>
        <path d="M38.1294 32.2361L15.6409 35.3732C15.5628 35.3841 15.4834 35.3793 15.4071 35.3591C15.3308 35.3389 15.2593 35.3037 15.1967 35.2555C15.134 35.2073 15.0816 35.1471 15.0423 35.0784C15.0031 35.0097 14.9779 34.9339 14.9681 34.8554C14.9572 34.7779 14.9616 34.6991 14.9811 34.6233C15.0006 34.5476 15.0347 34.4765 15.0816 34.4141C15.1285 34.3517 15.1872 34.2992 15.2544 34.2596C15.3216 34.22 15.3959 34.194 15.4732 34.1833L37.9617 31.0461C38.1177 31.0244 38.2761 31.0657 38.402 31.161C38.5279 31.2562 38.611 31.3977 38.6331 31.5542C38.6454 31.6323 38.6421 31.7121 38.6234 31.7889C38.6047 31.8656 38.5709 31.9379 38.524 32.0013C38.4771 32.0648 38.4181 32.1183 38.3503 32.1586C38.2826 32.1989 38.2075 32.2252 38.1294 32.2361Z" fill="#014689"/>
        <path d="M38.6153 35.694L16.1268 38.8312C15.8019 38.8765 15.5758 39.1774 15.6218 39.5033C15.6677 39.8292 15.9683 40.0567 16.2931 40.0114L38.7817 36.8742C39.1065 36.8289 39.3326 36.528 39.2867 36.202C39.2408 35.8761 38.9402 35.6487 38.6153 35.694Z" fill="#014689"/>
        <path d="M39.4339 41.5098L16.9454 44.647C16.8682 44.6578 16.7895 44.6532 16.714 44.6335C16.6385 44.6138 16.5675 44.5793 16.5051 44.5322C16.4428 44.485 16.3903 44.426 16.3506 44.3585C16.311 44.291 16.285 44.2164 16.274 44.1389C16.2631 44.0614 16.2675 43.9826 16.287 43.9069C16.3065 43.8311 16.3406 43.76 16.3875 43.6976C16.4344 43.6352 16.4931 43.5827 16.5603 43.5431C16.6275 43.5035 16.7018 43.4775 16.7791 43.4668L39.2676 40.3296C39.3448 40.3188 39.4235 40.3234 39.499 40.3431C39.5746 40.3628 39.6455 40.3973 39.7079 40.4444C39.7702 40.4916 39.8227 40.5506 39.8624 40.6181C39.902 40.6856 39.928 40.7602 39.939 40.8377C39.9499 40.9152 39.9455 40.994 39.926 41.0697C39.9066 41.1455 39.8724 41.2166 39.8255 41.279C39.7786 41.3414 39.7199 41.3939 39.6527 41.4335C39.5855 41.4731 39.5112 41.4991 39.4339 41.5098Z" fill="#014689"/>
        <path d="M28.2848 58.6915L28.2846 58.6933C28.0556 60.9885 27.713 64.3375 27.5783 65.3856C27.5654 65.3696 27.5521 65.3531 27.5386 65.3362C27.4494 65.2247 27.3529 65.1026 27.2512 64.9738C27.165 64.8647 27.075 64.7507 26.9824 64.6344C26.7859 64.3875 26.5846 64.1386 26.4181 63.9475C26.3356 63.8529 26.2545 63.7641 26.1826 63.6946C26.1472 63.6604 26.1057 63.6226 26.0614 63.5893L26.0601 63.5883C26.0324 63.5675 25.9377 63.4962 25.8065 63.4703L25.7109 63.9606L25.8065 63.4703C25.7178 63.4528 25.6375 63.46 25.6038 63.4634C25.558 63.468 25.5111 63.4759 25.4677 63.4844C25.3802 63.5016 25.2766 63.5273 25.1665 63.5573C24.9447 63.6178 24.6671 63.7038 24.3798 63.7984C23.9648 63.9352 23.5129 64.0954 23.1594 64.2317C23.3786 63.6743 23.7532 62.7173 24.1714 61.6489C24.6236 60.4937 25.1268 59.2081 25.5399 58.1564L25.5404 58.1551L26.2445 56.3473L28.4656 56.9092C28.4596 56.9697 28.453 57.0359 28.4459 57.1075C28.4066 57.5007 28.3509 58.0535 28.2848 58.6915Z" fill="#014689" stroke="#014689"/>
        <path d="M28.4525 57.1077C28.4331 57.3018 28.4097 57.5347 28.383 57.7975C28.285 57.7201 28.1795 57.6417 28.0692 57.5704C27.6224 57.2818 27.0195 57.0651 26.3122 57.3972L26.2972 57.4043L26.2827 57.4123C26.1308 57.4964 25.9633 57.5484 25.7904 57.5652L26.2701 56.3469L28.4723 56.9083C28.4663 56.9691 28.4596 57.0357 28.4525 57.1077Z" fill="#014689" stroke="#014689"/>
        <path d="M37.6136 62.2199C37.2372 62.1838 36.7661 62.1525 36.337 62.1343C36.0338 62.1215 35.7423 62.1147 35.512 62.118C35.3978 62.1196 35.2903 62.1238 35.2005 62.1323C35.156 62.1365 35.1073 62.1425 35.06 62.152C35.0268 62.1587 34.9392 62.1769 34.8521 62.2285C34.7461 62.2913 34.6822 62.3808 34.6632 62.4072L34.6621 62.4088C34.6318 62.4512 34.6043 62.4972 34.5808 62.5391C34.5333 62.6241 34.4815 62.7301 34.4293 62.8431C34.3239 63.0709 34.2002 63.3631 34.0796 63.6528C34.0331 63.7646 33.9872 63.8757 33.9427 63.9835C33.8699 64.1597 33.8006 64.3273 33.738 64.4755C33.7283 64.4986 33.7188 64.5209 33.7095 64.5426C33.239 63.4477 31.6993 59.611 30.8665 57.5315C30.7186 57.1581 30.5935 56.844 30.5025 56.6164L32.4689 55.4768L33.1179 56.3325L33.1187 56.3334C34.414 58.0327 36.739 61.0811 37.6136 62.2199ZM33.9062 64.9336C33.9062 64.9336 33.9059 64.9333 33.9053 64.9327L33.9062 64.9336Z" fill="#014689" stroke="#014689"/>
        <path d="M30.5091 56.6121L32.4775 55.4713L32.9908 56.1464C32.9351 56.3218 32.8658 56.4284 32.8034 56.4947C32.7225 56.5808 32.622 56.6324 32.4893 56.6598C32.3486 56.6889 32.1809 56.6886 31.9862 56.6693C31.8581 56.6565 31.7604 56.6416 31.6571 56.6259C31.5795 56.6141 31.4988 56.6018 31.3997 56.5896L31.3997 56.5895L31.3909 56.5886C31.0685 56.5546 30.7983 56.6737 30.5919 56.8198C30.5619 56.7444 30.5341 56.6749 30.5091 56.6121Z" fill="#014689" stroke="#014689"/>
        <path d="M24.1422 49.5342L24.1423 49.5338C24.2468 49.3367 24.2864 49.1081 24.3087 48.9288C24.3234 48.8101 24.3345 48.6711 24.3445 48.5449C24.3495 48.4819 24.3543 48.4221 24.3591 48.3696C24.3757 48.1898 24.396 48.0482 24.4285 47.9391C24.4613 47.8287 24.492 47.802 24.4934 47.8009C24.5729 47.7368 24.7177 47.7002 25.037 47.6883C25.0734 47.687 25.1139 47.6858 25.1569 47.6847C25.2695 47.6815 25.399 47.678 25.515 47.6684C25.6812 47.6548 25.8807 47.6259 26.0712 47.5439C26.2798 47.4541 26.4556 47.2965 26.5871 47.1646C26.6966 47.0548 26.8088 46.9273 26.9091 46.8134C26.9333 46.7859 26.9568 46.7592 26.9794 46.7337C27.105 46.5921 27.2103 46.4795 27.3059 46.3991C27.3871 46.3308 27.4276 46.315 27.4334 46.3125C27.4449 46.3126 27.4948 46.3158 27.5984 46.3564C27.7106 46.4003 27.8405 46.4698 27.9874 46.5569C28.0596 46.5998 28.1314 46.6442 28.205 46.6897L28.2105 46.6931C28.2808 46.7366 28.354 46.7819 28.4241 46.8233C28.5516 46.8987 28.7286 46.9989 28.9001 47.0413C29.0154 47.0698 29.1313 47.07 29.2182 47.0658C29.3116 47.0613 29.4104 47.0493 29.5053 47.0354C29.6168 47.019 29.7501 46.9953 29.8799 46.9722C29.9585 46.9583 30.0357 46.9446 30.106 46.9328C30.311 46.8986 30.4957 46.8738 30.6499 46.8698C30.7259 46.8678 30.7844 46.8713 30.8272 46.8778C30.86 46.8828 30.8755 46.8884 30.8791 46.8898C30.8838 46.8933 30.9127 46.9161 30.9565 46.998C31.0071 47.0925 31.0523 47.2162 31.1053 47.3773C31.1132 47.4014 31.1214 47.4268 31.13 47.4532C31.1727 47.585 31.2233 47.7411 31.2812 47.8764C31.3472 48.0304 31.4602 48.2537 31.6706 48.4008C31.8133 48.5006 32.0025 48.5818 32.1622 48.6458C32.2475 48.68 32.3567 48.7215 32.4629 48.7618C32.5458 48.7933 32.6269 48.8241 32.6934 48.8502C32.8704 48.9197 33.0227 48.9853 33.14 49.05C33.2073 49.0872 33.2458 49.1149 33.2659 49.1309C33.2669 49.1514 33.2671 49.1861 33.2621 49.2394C33.2497 49.3705 33.215 49.5344 33.1687 49.7281C33.159 49.7686 33.1486 49.811 33.138 49.8545C33.1017 50.0029 33.0623 50.1641 33.0359 50.3056C33.0183 50.3996 33.0032 50.5013 32.9985 50.6005C32.9942 50.6932 32.9966 50.8223 33.0407 50.9525C33.0854 51.0845 33.1745 51.2597 33.2551 51.4149C33.2849 51.4722 33.3154 51.5303 33.3463 51.5891C33.4089 51.7082 33.4732 51.8306 33.5367 51.957C33.6311 52.1446 33.7121 52.3185 33.7653 52.4625C33.7883 52.5245 33.8033 52.5737 33.8122 52.6107C33.796 52.6297 33.7733 52.654 33.7425 52.6839C33.6396 52.7838 33.4998 52.8954 33.3293 53.0312L33.327 53.033C33.1678 53.1599 32.9822 53.3077 32.8278 53.4575C32.6861 53.595 32.4995 53.7994 32.4251 54.0522C32.3743 54.2251 32.3512 54.4343 32.3354 54.6162C32.3277 54.7058 32.321 54.7991 32.3145 54.8894L32.3131 54.9082C32.3061 55.0059 32.2992 55.1005 32.291 55.1926C32.2741 55.3815 32.2534 55.5349 32.2241 55.6481C32.2167 55.6766 32.2099 55.6982 32.2042 55.714C32.1847 55.7178 32.1566 55.7223 32.1177 55.726C31.9983 55.7374 31.8531 55.7363 31.6677 55.7348L31.6659 55.7347C31.4943 55.7333 31.2879 55.7315 31.095 55.7505C30.9088 55.7689 30.6706 55.8114 30.4648 55.9406C30.3076 56.0392 30.1576 56.179 30.0313 56.3051C29.9505 56.3858 29.8616 56.4793 29.7773 56.5681C29.7307 56.6172 29.6854 56.6648 29.6438 56.7079C29.5164 56.8398 29.4032 56.9502 29.3009 57.0322C29.2507 57.0724 29.2093 57.1006 29.1765 57.1193C29.1627 57.1272 29.152 57.1324 29.1442 57.1359C29.1293 57.1323 29.0992 57.1233 29.05 57.1006C28.9435 57.0514 28.8166 56.9713 28.6564 56.8642C28.6324 56.8481 28.6075 56.8313 28.5818 56.8141C28.4504 56.7255 28.2998 56.6241 28.1554 56.5418C27.9898 56.4474 27.7652 56.3371 27.522 56.317C27.3203 56.3003 27.1056 56.3329 26.9256 56.3684C26.7941 56.3943 26.6504 56.4286 26.5172 56.4603C26.4658 56.4726 26.416 56.4845 26.3691 56.4953C26.1879 56.5374 26.034 56.5685 25.905 56.5806C25.842 56.5866 25.7941 56.587 25.759 56.5842C25.7466 56.5832 25.737 56.5819 25.7299 56.5807C25.7217 56.5702 25.7082 56.5508 25.6905 56.5176C25.6425 56.4276 25.597 56.3005 25.5435 56.1276C25.5317 56.0897 25.5194 56.0488 25.5064 56.0059C25.4663 55.873 25.4207 55.7219 25.3713 55.5877C25.3069 55.4131 25.2117 55.1947 25.054 55.0228C24.8971 54.8517 24.6857 54.7358 24.5161 54.6535C24.4035 54.5987 24.2694 54.5411 24.1465 54.4882C24.0854 54.4619 24.0271 54.4368 23.9755 54.4138C23.8005 54.3359 23.6581 54.2643 23.5487 54.1881C23.4395 54.112 23.3961 54.0536 23.3792 54.0162C23.3338 53.9158 23.3463 53.7516 23.4625 53.3983C23.4735 53.3647 23.4859 53.3282 23.4989 53.2897C23.5415 53.1639 23.5911 53.0173 23.625 52.8838C23.6693 52.7089 23.7114 52.472 23.6537 52.2295C23.6094 52.0435 23.5213 51.858 23.4417 51.7039C23.3999 51.6232 23.3551 51.541 23.3123 51.4628L23.3065 51.4523C23.2649 51.3763 23.225 51.3033 23.1867 51.2302C23.1055 51.0753 23.0418 50.9392 23.0021 50.8177C22.9618 50.6947 22.9566 50.6177 22.9625 50.5734C22.9673 50.5374 22.9995 50.4637 23.2884 50.2804C23.315 50.2635 23.3449 50.2449 23.3771 50.225C23.4798 50.1613 23.6045 50.0839 23.7109 50.0055C23.8555 49.899 24.0284 49.7483 24.1422 49.5342ZM33.8421 52.5708C33.8422 52.5708 33.8417 52.5716 33.8407 52.5733C33.8415 52.5717 33.842 52.5709 33.8421 52.5708Z" fill="#014689" stroke="#014689"/>
        <g style="mix-blend-mode:multiply" opacity="0.26">
            <path d="M32.3473 51.1915C32.666 53.441 31.0897 55.5241 28.8199 55.8391C26.5501 56.1541 24.4557 54.5805 24.137 52.331C23.8183 50.0815 25.3945 47.9984 27.6644 47.6834C29.9342 47.3684 32.0286 48.942 32.3473 51.1915Z" fill="#014689"/>
            <path d="M32.3473 51.1915C32.666 53.441 31.0897 55.5241 28.8199 55.8391C26.5501 56.1541 24.4557 54.5805 24.137 52.331C23.8183 50.0815 25.3945 47.9984 27.6644 47.6834C29.9342 47.3684 32.0286 48.942 32.3473 51.1915Z" stroke="#014689"/>
        </g>
        <path d="M31.9333 51.2484C32.2195 53.2701 30.8023 55.1431 28.7609 55.4267C26.7195 55.7103 24.8369 54.2957 24.5507 52.274C24.2645 50.2523 25.6817 48.3793 27.7231 48.0957C29.7645 47.8121 31.6471 49.2268 31.9333 51.2484Z" fill="white" stroke="#014689"/>
        <mask id="path-16-inside-1_88_3772" fill="white">
            <path d="M27.7291 48.1366C27.0143 48.2423 26.3472 48.5569 25.8121 49.041C25.2769 49.525 24.8975 50.1568 24.7217 50.8566C24.5459 51.5565 24.5815 52.2931 24.8242 52.9737C25.0668 53.6543 25.5055 54.2485 26.0851 54.6813C26.6646 55.1141 27.3591 55.3662 28.081 55.4058C28.8028 55.4455 29.5198 55.2709 30.1416 54.904C30.7633 54.5372 31.262 53.9945 31.5748 53.3444C31.8876 52.6943 32.0005 51.9658 31.8993 51.2507C31.8297 50.7732 31.6667 50.3138 31.4194 49.8988C31.1722 49.4839 30.8456 49.1214 30.4583 48.8322C30.071 48.543 29.6307 48.3327 29.1624 48.2133C28.6941 48.094 28.2071 48.0679 27.7291 48.1366ZM28.6567 54.6892C28.0784 54.7647 27.4902 54.6674 26.9664 54.4097C26.4426 54.152 26.0065 53.7453 25.7131 53.2411C25.4197 52.7368 25.2821 52.1574 25.3177 51.5759C25.3533 50.9944 25.5605 50.4369 25.9131 49.9735C26.2658 49.5102 26.7481 49.1618 27.2993 48.9722C27.8505 48.7826 28.446 48.7604 29.0106 48.9082C29.5752 49.0561 30.0838 49.3675 30.4722 49.8031C30.8606 50.2388 31.1115 50.7792 31.1932 51.3563C31.2988 52.135 31.0912 52.9231 30.6157 53.5478C30.1403 54.1725 29.4358 54.583 28.6567 54.6892Z"/>
        </mask>
        <path d="M27.7291 48.1366C27.0143 48.2423 26.3472 48.5569 25.8121 49.041C25.2769 49.525 24.8975 50.1568 24.7217 50.8566C24.5459 51.5565 24.5815 52.2931 24.8242 52.9737C25.0668 53.6543 25.5055 54.2485 26.0851 54.6813C26.6646 55.1141 27.3591 55.3662 28.081 55.4058C28.8028 55.4455 29.5198 55.2709 30.1416 54.904C30.7633 54.5372 31.262 53.9945 31.5748 53.3444C31.8876 52.6943 32.0005 51.9658 31.8993 51.2507C31.8297 50.7732 31.6667 50.3138 31.4194 49.8988C31.1722 49.4839 30.8456 49.1214 30.4583 48.8322C30.071 48.543 29.6307 48.3327 29.1624 48.2133C28.6941 48.094 28.2071 48.0679 27.7291 48.1366ZM28.6567 54.6892C28.0784 54.7647 27.4902 54.6674 26.9664 54.4097C26.4426 54.152 26.0065 53.7453 25.7131 53.2411C25.4197 52.7368 25.2821 52.1574 25.3177 51.5759C25.3533 50.9944 25.5605 50.4369 25.9131 49.9735C26.2658 49.5102 26.7481 49.1618 27.2993 48.9722C27.8505 48.7826 28.446 48.7604 29.0106 48.9082C29.5752 49.0561 30.0838 49.3675 30.4722 49.8031C30.8606 50.2388 31.1115 50.7792 31.1932 51.3563C31.2988 52.135 31.0912 52.9231 30.6157 53.5478C30.1403 54.1725 29.4358 54.583 28.6567 54.6892Z" fill="#014689"/>
        <path d="M27.7291 48.1366L27.5843 47.1471L27.5803 47.1477L27.7291 48.1366ZM31.8993 51.2507L32.8898 51.1132L32.8892 51.1092L31.8993 51.2507ZM31.1932 51.3563L32.1845 51.2244L32.1837 51.2187L31.1932 51.3563ZM27.5803 47.1477C26.6703 47.2822 25.8211 47.6828 25.1398 48.2991L26.4843 49.7829C26.8733 49.4311 27.3582 49.2023 27.8779 49.1255L27.5803 47.1477ZM25.1398 48.2991C24.4584 48.9153 23.9753 49.7197 23.7514 50.611L25.692 51.1023C25.8197 50.5938 26.0954 50.1347 26.4843 49.7829L25.1398 48.2991ZM23.7514 50.611C23.5275 51.5022 23.5729 52.4403 23.8819 53.3071L25.7664 52.6403C25.5901 52.1459 25.5642 51.6107 25.692 51.1023L23.7514 50.611ZM23.8819 53.3071C24.1909 54.1738 24.7496 54.9304 25.4875 55.4815L26.6826 53.8811C26.2614 53.5665 25.9427 53.1348 25.7664 52.6403L23.8819 53.3071ZM25.4875 55.4815C26.2255 56.0326 27.1096 56.3535 28.0286 56.404L28.1334 54.4077C27.6086 54.3789 27.1038 54.1956 26.6826 53.8811L25.4875 55.4815ZM28.0286 56.404C28.9475 56.4544 29.8602 56.2322 30.6518 55.7651L29.6313 54.0429C29.1794 54.3096 28.6582 54.4365 28.1334 54.4077L28.0286 56.404ZM30.6518 55.7651C31.4433 55.2981 32.0782 54.6072 32.4765 53.7794L30.673 52.9094C30.4457 53.3818 30.0833 53.7762 29.6313 54.0429L30.6518 55.7651ZM32.4765 53.7794C32.8748 52.9515 33.0187 52.0238 32.8898 51.1132L30.9088 51.3883C30.9823 51.9078 30.9003 52.437 30.673 52.9094L32.4765 53.7794ZM32.8892 51.1092C32.8007 50.5016 32.5932 49.917 32.2786 49.389L30.5602 50.4086C30.7401 50.7106 30.8588 51.0449 30.9094 51.3923L32.8892 51.1092ZM32.2786 49.389C31.964 48.861 31.5485 48.3999 31.0558 48.032L29.8608 49.6324C30.1426 49.8429 30.3803 50.1067 30.5602 50.4086L32.2786 49.389ZM31.0558 48.032C30.5632 47.6641 30.003 47.3966 29.4073 47.2447L28.9174 49.1819C29.2583 49.2688 29.5789 49.4219 29.8608 49.6324L31.0558 48.032ZM29.4073 47.2447C28.8117 47.0929 28.1922 47.0598 27.5843 47.1471L27.8739 49.1261C28.2219 49.0761 28.5765 49.0951 28.9174 49.1819L29.4073 47.2447ZM28.5248 53.698C28.1421 53.7479 27.753 53.6835 27.4065 53.513L26.5263 55.3063C27.2275 55.6512 28.0146 55.7814 28.7886 55.6805L28.5248 53.698ZM27.4065 53.513C27.0599 53.3426 26.7716 53.0736 26.5776 52.7402L24.8486 53.7419C25.2414 54.417 25.8252 54.9614 26.5263 55.3063L27.4065 53.513ZM26.5776 52.7402C26.3836 52.4068 26.2927 52.0238 26.3162 51.6394L24.3192 51.5124C24.2716 52.2909 24.4558 53.0667 24.8486 53.7419L26.5776 52.7402ZM26.3162 51.6394C26.3398 51.255 26.4767 50.8864 26.7099 50.5799L25.1163 49.3672C24.6443 49.9874 24.3669 50.7338 24.3192 51.5124L26.3162 51.6394ZM26.7099 50.5799C26.9432 50.2735 27.2622 50.0429 27.6269 49.9175L26.9716 48.0269C26.2339 48.2806 25.5884 48.7469 25.1163 49.3672L26.7099 50.5799ZM27.6269 49.9175C27.9917 49.7921 28.3857 49.7773 28.7593 49.8752L29.2619 47.9413C28.5062 47.7434 27.7093 47.7732 26.9716 48.0269L27.6269 49.9175ZM28.7593 49.8752C29.1328 49.973 29.4692 50.179 29.726 50.4671L31.2184 49.1392C30.6984 48.556 30.0176 48.1392 29.2619 47.9413L28.7593 49.8752ZM29.726 50.4671C29.9829 50.7551 30.1487 51.1124 30.2027 51.4939L32.1837 51.2187C32.0743 50.446 31.7384 49.7224 31.2184 49.1392L29.726 50.4671ZM30.2019 51.4881C30.272 52.0044 30.1343 52.527 29.8189 52.9414L31.4125 54.1542C32.0481 53.3191 32.3257 52.2656 32.1845 51.2244L30.2019 51.4881ZM29.8189 52.9414C29.5035 53.3558 29.0361 53.6282 28.519 53.6988L28.7944 55.6797C29.8355 55.5377 30.777 54.9892 31.4125 54.1542L29.8189 52.9414Z" fill="#014689" mask="url(#path-16-inside-1_88_3772)"/>
    </g>
</svg>