<svg width="62" height="93" viewBox="0 0 62 93" fill="none" xmlns="http://www.w3.org/2000/svg">
    <path fill-rule="evenodd" clip-rule="evenodd" d="M123.123 44.6401C122.102 41.8843 120.302 39.6391 118.006 37.6209C116.861 36.613 115.645 35.6352 114.681 34.4825C113.698 33.3044 113.109 31.9778 112.765 30.5462C112.049 27.5744 112.257 24.4879 111.388 21.5353C110.637 18.9848 109.256 16.6092 107.471 14.5222C103.786 10.2105 98.6138 7.07452 93.213 4.73158C90.2721 3.45208 86.9214 1.89615 83.5627 2.26672C80.1462 2.64454 77.29 4.64346 73.8171 4.87402C70.2985 5.10819 66.8551 4.20047 63.534 3.26739C60.2129 2.33432 56.9509 1.34452 53.5062 0.963078C49.1533 0.480246 44.7266 0.954628 40.5685 2.17016C40.3627 2.16593 40.1595 2.21136 39.98 2.30173L39.7422 2.42244C38.7373 2.74433 37.7521 3.10645 36.7865 3.50881C31.5537 5.70449 26.9643 9.21226 23.8474 13.5928C22.1009 16.054 20.877 18.7458 20.0306 21.5426C19.0338 23.484 18.2095 25.4932 17.5653 27.5514C16.6248 30.5474 15.9652 33.7353 16.2218 36.8556C16.4542 39.621 17.482 42.2078 19.0807 44.5676C22.0095 48.8926 26.3544 52.2519 29.4189 56.4851C31.0311 58.717 32.1596 61.1505 32.4914 63.8133C32.8757 66.889 32.4914 69.9875 32.1932 73.0535C31.8895 76.2185 31.6813 79.4172 32.3813 82.5532C33.053 85.5456 34.6329 88.3146 36.7073 90.7119C40.4462 95.0332 46.5376 98.6376 52.8788 97.9049C55.9688 97.5428 58.5806 96.0943 60.7033 94.0953C62.8529 92.0819 64.4852 89.6919 66.5112 87.588C75.7517 77.9953 90.2398 75.0343 102.721 70.2881C108.824 67.9693 115.241 65.1496 119.579 60.4975C121.609 58.3247 123.132 55.7718 123.722 52.9653C124.31 50.1894 124.104 47.3248 123.123 44.6401Z" fill="#DBEDFF"/>
    <g opacity="0.7">
        <path d="M29.9436 20.327L31.9257 27.7274C32.4136 29.5488 32.6575 30.4595 32.2432 31.1771C31.829 31.8946 30.9183 32.1387 29.097 32.6269L16.0728 36.1183C15.8582 36.1758 15.7509 36.2045 15.6588 36.2231C14.1768 36.5224 12.7039 35.6721 12.2221 34.239C12.1922 34.1499 12.1634 34.0426 12.106 33.828V33.828C12.0485 33.6134 12.0198 33.5062 12.0012 33.414C11.7022 31.9319 12.5528 30.4587 13.9858 29.9766C14.0749 29.9466 14.1821 29.9179 14.3967 29.8604L27.4209 26.369C29.2422 25.8808 30.1529 25.6367 30.5671 24.9191C30.9814 24.2016 30.7375 23.2909 30.2496 21.4695L27.9616 12.9266C27.4737 11.1052 27.2298 10.1945 26.5125 9.78028C25.7951 9.36612 24.8844 9.61023 23.0631 10.0985L10.7737 13.3928C8.95243 13.8811 8.04178 14.1252 7.62752 14.8427C7.21326 15.5602 7.45718 16.4709 7.94501 18.2923L12.106 33.828" stroke="#014689" stroke-width="2"/>
        <path d="M15.5119 21.5127L17.8182 22.8449C18.2965 23.1212 18.9083 22.9572 19.1844 22.4786L22.3476 16.9974" stroke="#014689" stroke-width="2" stroke-linecap="round"/>
        <path d="M46.5 38.3715H31.0005C30.6833 38.3715 30.4262 38.6287 30.4262 38.9458C30.4262 39.263 30.6833 39.5202 31.0005 39.5202H46.5C46.8172 39.5202 47.0744 39.263 47.0744 38.9458C47.0744 38.6287 46.8172 38.3715 46.5 38.3715Z" fill="#014689"/>
        <path d="M37.8889 42.3918H31.0005C30.6833 42.3918 30.4262 42.6489 30.4262 42.9661C30.4262 43.2833 30.6833 43.5404 31.0005 43.5404H37.8889C38.2061 43.5404 38.4632 43.2833 38.4632 42.9661C38.4632 42.6489 38.2061 42.3918 37.8889 42.3918Z" fill="#014689"/>
        <path d="M46.6636 50.1781H30.8284C30.5112 50.1781 30.2541 50.4352 30.2541 50.7524C30.2541 51.0696 30.5112 51.3267 30.8284 51.3267H46.6636C46.9808 51.3267 47.2379 51.0696 47.2379 50.7524C47.2379 50.4352 46.9808 50.1781 46.6636 50.1781Z" fill="#014689"/>
        <path d="M37.6722 54.8642H30.8284C30.5112 54.8642 30.2541 55.1213 30.2541 55.4385C30.2541 55.7557 30.5112 56.0128 30.8284 56.0128H37.6722C37.9893 56.0128 38.2465 55.7557 38.2465 55.4385C38.2465 55.1213 37.9893 54.8642 37.6722 54.8642Z" fill="#014689"/>
        <path d="M46.6636 62.6313H30.8284C30.5112 62.6313 30.2541 62.8885 30.2541 63.2057C30.2541 63.5229 30.5112 63.78 30.8284 63.78H46.6636C46.9808 63.78 47.2379 63.5229 47.2379 63.2057C47.2379 62.8885 46.9808 62.6313 46.6636 62.6313Z" fill="#014689"/>
        <path d="M51.0641 67.3184H30.8284C30.5112 67.3184 30.2541 67.5756 30.2541 67.8927C30.2541 68.2099 30.5112 68.4671 30.8284 68.4671H51.0641C51.3813 68.4671 51.6384 68.2099 51.6384 67.8927C51.6384 67.5756 51.3813 67.3184 51.0641 67.3184Z" fill="#014689"/>
        <path d="M23.8577 43.0141L21.7865 40.7861L22.5696 39.9437L23.8577 41.3294L26.1261 38.8893L26.9091 39.7316L23.8577 43.0141Z" fill="#014689"/>
        <path d="M23.8577 56.0269L21.7865 53.7989L22.5696 52.9566L23.8577 54.3422L26.1261 51.9033L26.9091 52.7457L23.8577 56.0269Z" fill="#014689"/>
        <path d="M23.8577 68.4182L21.7865 66.1902L22.5696 65.3478L23.8577 66.7335L26.1261 64.2934L26.9091 65.1358L23.8577 68.4182Z" fill="#014689"/>
    </g>
</svg>