<svg viewBox="0 56.04 500 377.413" xmlns="http://www.w3.org/2000/svg" xmlns:bx="https://boxy-svg.com">
    <defs>
        <style bx:fonts="Roboto">@import url(https://fonts.googleapis.com/css2?family=Roboto%3Aital%2Cwght%400%2C100%3B0%2C300%3B0%2C400%3B0%2C500%3B0%2C700%3B0%2C900%3B1%2C100%3B1%2C300%3B1%2C400%3B1%2C500%3B1%2C700%3B1%2C900&amp;display=swap);</style>
    </defs>
    <g>
        <rect style="stroke-width: 2px; stroke-linecap: round; stroke-linejoin: round; stroke-dasharray: 8px; fill: rgb(206, 217, 220);" x="205.143" y="114.586" width="93.896" height="122.933" rx="5" ry="5"></rect>
        <rect style="fill: none; stroke-width: 2px; stroke-linecap: round; stroke-linejoin: round; stroke-dasharray: 8px; stroke: rgb(203, 211, 214);" x="167.693" y="144.029" width="93.896" height="122.933" rx="5" ry="5"></rect>
        <g style="" transform="matrix(1, 0, 0, 1, 0, -28.463001)">
            <title>Document</title>
            <path d="M 188.235 158.607 L 255.916 158.607 L 277.239 179.931 L 277.239 272.997 C 277.239 276.817 274.142 279.914 270.322 279.914 L 188.235 279.914 C 184.415 279.914 181.318 276.817 181.318 272.997 L 181.318 165.524 C 181.318 161.704 184.415 158.607 188.235 158.607 Z" style="stroke-linejoin: round; stroke-linecap: round; fill: rgb(243, 245, 247);"></path>
            <path style="fill: rgb(231, 237, 239);" d="M 256.984 179.61 L 277.239 183.567 L 277.253 179.945 L 256.984 179.61 Z"></path>
            <path d="M 255.771 158.527 C 255.771 158.147 277.55 180.056 277.292 179.949 L 257.2 179.845 C 256.411 179.845 255.771 179.195 255.771 178.395 L 255.771 158.527 Z" style="fill: rgb(181, 198, 203);"></path>
            <path d="M 162.742 139.209 H 166.02 V 143.57 H 170.381 V 146.848 H 166.02 V 151.209 H 162.742 V 146.848 H 158.381 V 143.57 H 162.742 Z" style="fill: rgb(178, 197, 203); stroke-linejoin: round; stroke-linecap: round;" transform="matrix(0.707107, -0.707107, 0.707107, 0.707107, -23.774364, 185.722519)" bx:shape="cross 158.381 139.209 12 12 3.278 3.278 0.5 1@8b3613db"></path>
            <g transform="matrix(1, 0, 0, 1, -234.338226, -2.479219)">
                <rect x="429.646" y="224.96" width="68.541" height="2.901" style="fill: rgb(222, 230, 233);" rx="1.451" ry="1.451"></rect>
                <rect y="235.062" width="68.541" height="2.901" style="fill: rgb(222, 230, 233);" rx="1.451" ry="1.451" x="429.646"></rect>
                <rect x="429.646" y="245.164" width="68.541" height="2.901" style="fill: rgb(222, 230, 233);" rx="1.451" ry="1.451"></rect>
                <rect x="429.646" y="255.266" width="68.541" height="2.901" style="fill: rgb(222, 230, 233);" rx="1.451" ry="1.451"></rect>
                <rect x="429.646" y="214.858" width="68.541" height="2.901" style="fill: rgb(222, 230, 233);" rx="1.451" ry="1.451"></rect>
                <rect x="429.646" y="265.37" width="68.541" height="2.901" style="fill: rgb(222, 230, 233);" rx="1.451" ry="1.451"></rect>
                <rect x="429.646" y="204.756" width="68.541" height="2.901" style="fill: rgb(222, 230, 233);" rx="1.451" ry="1.451"></rect>
                <rect x="429.646" y="194.654" width="37" height="2.901" style="fill: rgb(222, 230, 233);" rx="1.451" ry="1.451"></rect>
            </g>
        </g>
        <g transform="matrix(1, 0, 0, 1, -7.029545, -32.209114)">
            <title>Magnificient</title>
            <ellipse style="stroke-width: 6px; fill: rgba(237, 239, 241, 0.52);" cx="288.718" cy="280.544" rx="22.841" ry="22.841"></ellipse>
            <g>
                <rect x="348.294" y="280.092" width="4.573" height="44.931" style="fill: rgb(255, 255, 255);" transform="matrix(0.84182, 0.539758, -0.539758, 0.84182, 161.242737, -161.319702)"></rect>
                <rect x="232.371" y="346.261" width="5.647" height="40.36" style="fill: rgb(255, 255, 255);" transform="matrix(0.847554, 0.53071, -0.53071, 0.847554, 294.120728, -148.64975)"></rect>
            </g>
            <path style="fill: rgb(178, 197, 205);" d="M 318.353 292.003 L 322.57 292.003 C 323.105 292.003 323.54 292.462 323.54 293.028 L 323.54 301.564 L 324.387 301.564 C 324.923 301.564 325.358 302.023 325.358 302.589 L 325.358 338.291 C 325.358 341.122 323.185 343.417 320.506 343.417 L 320.417 343.417 C 317.737 343.417 315.565 341.122 315.565 338.291 L 315.565 302.589 C 315.565 302.023 315.999 301.564 316.535 301.564 L 317.382 301.564 L 317.382 293.028 C 317.382 292.462 317.817 292.003 318.353 292.003 Z" transform="matrix(0.754048, -0.656819, 0.656819, 0.754048, -129.859908, 288.626663)"></path>
            <ellipse style="fill: none; stroke-width: 6px; stroke: rgb(216, 224, 226);" cx="288.718" cy="280.544" rx="22.841" ry="22.841"></ellipse>
        </g>
        <ellipse style="fill: none; stroke: rgb(229, 233, 234);" cx="135.382" cy="237.432" rx="3.521" ry="3.521"></ellipse>
        <ellipse style="fill: none; stroke: rgb(229, 233, 234);" cx="231.071" cy="281.68" rx="2.056" ry="2.056"></ellipse>
        <ellipse style="fill: none; stroke: rgb(229, 233, 234);" cx="328.89" cy="185.555" rx="3.327" ry="3.327"></ellipse>
        <ellipse style="fill: none; stroke: rgb(229, 233, 234);" cx="208.353" cy="89.649" rx="2.774" ry="2.774"></ellipse>
        <path d="M 148.399 207.784 H 150.199 V 211.384 H 153.799 V 213.184 H 150.199 V 216.784 H 148.399 V 213.184 H 144.799 V 211.384 H 148.399 Z" style="fill: rgb(229, 233, 234);" bx:shape="cross 144.799 207.784 9 9 1.8 1.8 0.5 1@b6a1fcc9"></path>
        <path d="M 316.928 156.782 H 318.527 V 159.982 H 321.727 V 161.581 H 318.527 V 164.781 H 316.928 V 161.581 H 313.728 V 159.982 H 316.928 Z" style="fill: rgb(229, 233, 234);" bx:shape="cross 313.728 156.782 7.999 7.999 1.599 1.599 0.5 1@dcdf162f"></path>
        <path d="M 207.858 47.677 H 209.058 V 50.077 H 211.458 V 51.277 H 209.058 V 53.677 H 207.858 V 51.277 H 205.458 V 50.077 H 207.858 Z" style="fill: rgb(229, 233, 234);" transform="matrix(0.707107, -0.707107, 0.707107, 0.707107, 55.968338, 213.035629)" bx:shape="cross 205.458 47.677 6 6 1.2 1.2 0.5 1@bb75476a"></path>
        <path d="M 315.456 194.482 H 316.856 V 197.282 H 319.656 V 198.682 H 316.856 V 201.482 H 315.456 V 198.682 H 312.656 V 197.282 H 315.456 Z" style="fill: rgb(229, 233, 234);" transform="matrix(0.707107, -0.707107, 0.707107, 0.707107, -90.777, 371.740051)" bx:shape="cross 312.656 194.482 7 7 1.4 1.4 0.5 1@62b43354"></path>
    </g>
    <path d="M 158.333 352.932 Q 158.333 352.268 157.864 351.912 Q 157.396 351.557 156.177 351.162 Q 154.958 350.768 154.247 350.385 Q 152.31 349.338 152.31 347.564 Q 152.31 346.643 152.829 345.92 Q 153.349 345.197 154.321 344.791 Q 155.294 344.385 156.505 344.385 Q 157.724 344.385 158.677 344.826 Q 159.63 345.268 160.157 346.072 Q 160.685 346.877 160.685 347.9 L 158.341 347.9 Q 158.341 347.119 157.849 346.686 Q 157.357 346.252 156.466 346.252 Q 155.607 346.252 155.13 346.615 Q 154.653 346.978 154.653 347.572 Q 154.653 348.127 155.212 348.502 Q 155.771 348.877 156.857 349.205 Q 158.857 349.807 159.771 350.697 Q 160.685 351.588 160.685 352.916 Q 160.685 354.393 159.567 355.232 Q 158.45 356.072 156.56 356.072 Q 155.247 356.072 154.169 355.592 Q 153.091 355.111 152.524 354.275 Q 151.958 353.439 151.958 352.338 L 154.31 352.338 Q 154.31 354.221 156.56 354.221 Q 157.396 354.221 157.864 353.881 Q 158.333 353.541 158.333 352.932 Z M 161.764 351.611 Q 161.764 350.353 162.248 349.369 Q 162.733 348.385 163.643 347.846 Q 164.553 347.307 165.756 347.307 Q 167.467 347.307 168.549 348.353 Q 169.631 349.4 169.756 351.197 L 169.772 351.775 Q 169.772 353.721 168.686 354.896 Q 167.6 356.072 165.772 356.072 Q 163.944 356.072 162.854 354.9 Q 161.764 353.728 161.764 351.713 Z M 164.022 351.775 Q 164.022 352.978 164.475 353.615 Q 164.928 354.252 165.772 354.252 Q 166.592 354.252 167.053 353.623 Q 167.514 352.994 167.514 351.611 Q 167.514 350.432 167.053 349.783 Q 166.592 349.135 165.756 349.135 Q 164.928 349.135 164.475 349.779 Q 164.022 350.424 164.022 351.775 Z M 175.913 349.58 Q 175.452 349.518 175.1 349.518 Q 173.819 349.518 173.42 350.385 L 173.42 355.916 L 171.163 355.916 L 171.163 347.463 L 173.295 347.463 L 173.358 348.471 Q 174.038 347.307 175.241 347.307 Q 175.616 347.307 175.944 347.408 Z M 181.742 349.58 Q 181.281 349.518 180.929 349.518 Q 179.648 349.518 179.25 350.385 L 179.25 355.916 L 176.992 355.916 L 176.992 347.463 L 179.125 347.463 L 179.187 348.471 Q 179.867 347.307 181.07 347.307 Q 181.445 347.307 181.773 347.408 Z M 186.121 352.721 L 187.683 347.463 L 190.105 347.463 L 186.707 357.228 L 186.519 357.674 Q 185.761 359.33 184.019 359.33 Q 183.527 359.33 183.019 359.182 L 183.019 357.471 L 183.363 357.478 Q 184.004 357.478 184.32 357.283 Q 184.636 357.088 184.816 356.635 L 185.082 355.939 L 182.121 347.463 L 184.551 347.463 Z M 190.272 358.768 L 189.093 358.15 L 189.374 357.643 Q 189.897 356.689 189.913 355.744 L 189.913 353.994 L 191.819 353.994 L 191.811 355.557 Q 191.804 356.424 191.374 357.307 Q 190.944 358.189 190.272 358.768 Z M 197.725 355.916 L 197.725 344.541 L 201.225 344.541 Q 202.725 344.541 203.909 345.217 Q 205.092 345.893 205.756 347.139 Q 206.42 348.385 206.42 349.971 L 206.42 350.494 Q 206.42 352.08 205.768 353.314 Q 205.116 354.549 203.928 355.228 Q 202.741 355.908 201.248 355.916 Z M 200.069 346.439 L 200.069 354.033 L 201.201 354.033 Q 202.576 354.033 203.303 353.135 Q 204.03 352.236 204.045 350.564 L 204.045 349.963 Q 204.045 348.228 203.326 347.334 Q 202.608 346.439 201.225 346.439 Z M 207.627 351.611 Q 207.627 350.353 208.112 349.369 Q 208.596 348.385 209.506 347.846 Q 210.416 347.307 211.62 347.307 Q 213.33 347.307 214.413 348.353 Q 215.495 349.4 215.62 351.197 L 215.635 351.775 Q 215.635 353.721 214.549 354.896 Q 213.463 356.072 211.635 356.072 Q 209.807 356.072 208.717 354.9 Q 207.627 353.728 207.627 351.713 Z M 209.885 351.775 Q 209.885 352.978 210.338 353.615 Q 210.791 354.252 211.635 354.252 Q 212.455 354.252 212.916 353.623 Q 213.377 352.994 213.377 351.611 Q 213.377 350.432 212.916 349.783 Q 212.455 349.135 211.62 349.135 Q 210.791 349.135 210.338 349.779 Q 209.885 350.424 209.885 351.775 Z M 220.531 354.252 Q 221.156 354.252 221.546 353.908 Q 221.937 353.564 221.952 352.994 L 224.07 352.994 Q 224.062 353.853 223.601 354.568 Q 223.14 355.283 222.339 355.678 Q 221.538 356.072 220.57 356.072 Q 218.757 356.072 217.71 354.92 Q 216.663 353.768 216.663 351.736 L 216.663 351.588 Q 216.663 349.635 217.702 348.471 Q 218.741 347.307 220.554 347.307 Q 222.14 347.307 223.097 348.209 Q 224.054 349.111 224.07 350.611 L 221.952 350.611 Q 221.937 349.955 221.546 349.545 Q 221.156 349.135 220.515 349.135 Q 219.726 349.135 219.324 349.709 Q 218.921 350.283 218.921 351.572 L 218.921 351.807 Q 218.921 353.111 219.32 353.682 Q 219.718 354.252 220.531 354.252 Z M 230.419 355.057 Q 229.583 356.072 228.107 356.072 Q 226.747 356.072 226.033 355.291 Q 225.318 354.51 225.302 353.002 L 225.302 347.463 L 227.56 347.463 L 227.56 352.924 Q 227.56 354.244 228.763 354.244 Q 229.911 354.244 230.341 353.447 L 230.341 347.463 L 232.607 347.463 L 232.607 355.916 L 230.482 355.916 Z M 236.422 347.463 L 236.492 348.408 Q 237.391 347.307 238.922 347.307 Q 240.555 347.307 241.164 348.596 Q 242.055 347.307 243.703 347.307 Q 245.078 347.307 245.75 348.107 Q 246.422 348.908 246.422 350.518 L 246.422 355.916 L 244.156 355.916 L 244.156 350.525 Q 244.156 349.807 243.875 349.475 Q 243.594 349.143 242.883 349.143 Q 241.867 349.143 241.476 350.111 L 241.484 355.916 L 239.226 355.916 L 239.226 350.533 Q 239.226 349.799 238.937 349.471 Q 238.648 349.143 237.953 349.143 Q 236.992 349.143 236.562 349.939 L 236.562 355.916 L 234.305 355.916 L 234.305 347.463 Z M 252.047 356.072 Q 250.187 356.072 249.019 354.932 Q 247.851 353.791 247.851 351.893 L 247.851 351.674 Q 247.851 350.4 248.344 349.396 Q 248.836 348.393 249.738 347.85 Q 250.641 347.307 251.797 347.307 Q 253.531 347.307 254.527 348.4 Q 255.523 349.494 255.523 351.502 L 255.523 352.424 L 250.141 352.424 Q 250.25 353.252 250.801 353.752 Q 251.351 354.252 252.195 354.252 Q 253.5 354.252 254.234 353.307 L 255.344 354.549 Q 254.836 355.268 253.969 355.67 Q 253.101 356.072 252.047 356.072 Z M 251.789 349.135 Q 251.117 349.135 250.699 349.588 Q 250.281 350.041 250.164 350.885 L 253.305 350.885 L 253.305 350.705 Q 253.289 349.955 252.898 349.545 Q 252.508 349.135 251.789 349.135 Z M 258.885 347.463 L 258.955 348.439 Q 259.861 347.307 261.385 347.307 Q 262.728 347.307 263.385 348.096 Q 264.041 348.885 264.056 350.455 L 264.056 355.916 L 261.799 355.916 L 261.799 350.51 Q 261.799 349.791 261.486 349.467 Q 261.174 349.143 260.447 349.143 Q 259.494 349.143 259.017 349.955 L 259.017 355.916 L 256.76 355.916 L 256.76 347.463 Z M 268.468 345.385 L 268.468 347.463 L 269.914 347.463 L 269.914 349.119 L 268.468 349.119 L 268.468 353.338 Q 268.468 353.807 268.648 354.01 Q 268.828 354.213 269.336 354.213 Q 269.711 354.213 270 354.158 L 270 355.869 Q 269.336 356.072 268.633 356.072 Q 266.258 356.072 266.211 353.674 L 266.211 349.119 L 264.976 349.119 L 264.976 347.463 L 266.211 347.463 L 266.211 345.385 Z M 284.552 355.916 L 282.209 355.916 L 277.646 348.432 L 277.646 355.916 L 275.302 355.916 L 275.302 344.541 L 277.646 344.541 L 282.216 352.041 L 282.216 344.541 L 284.552 344.541 Z M 286.086 351.611 Q 286.086 350.353 286.571 349.369 Q 287.055 348.385 287.965 347.846 Q 288.875 347.307 290.079 347.307 Q 291.79 347.307 292.872 348.353 Q 293.954 349.4 294.079 351.197 L 294.094 351.775 Q 294.094 353.721 293.008 354.896 Q 291.922 356.072 290.094 356.072 Q 288.266 356.072 287.176 354.9 Q 286.086 353.728 286.086 351.713 Z M 288.344 351.775 Q 288.344 352.978 288.797 353.615 Q 289.25 354.252 290.094 354.252 Q 290.915 354.252 291.375 353.623 Q 291.836 352.994 291.836 351.611 Q 291.836 350.432 291.375 349.783 Q 290.915 349.135 290.079 349.135 Q 289.25 349.135 288.797 349.779 Q 288.344 350.424 288.344 351.775 Z M 298.188 345.385 L 298.188 347.463 L 299.633 347.463 L 299.633 349.119 L 298.188 349.119 L 298.188 353.338 Q 298.188 353.807 298.368 354.01 Q 298.548 354.213 299.055 354.213 Q 299.43 354.213 299.719 354.158 L 299.719 355.869 Q 299.055 356.072 298.352 356.072 Q 295.977 356.072 295.93 353.674 L 295.93 349.119 L 294.696 349.119 L 294.696 347.463 L 295.93 347.463 L 295.93 345.385 Z M 311.866 351.268 L 307.366 351.268 L 307.366 355.916 L 305.022 355.916 L 305.022 344.541 L 312.428 344.541 L 312.428 346.439 L 307.366 346.439 L 307.366 349.377 L 311.866 349.377 Z M 313.117 351.611 Q 313.117 350.353 313.602 349.369 Q 314.086 348.385 314.996 347.846 Q 315.906 347.307 317.11 347.307 Q 318.82 347.307 319.902 348.353 Q 320.985 349.4 321.11 351.197 L 321.125 351.775 Q 321.125 353.721 320.039 354.896 Q 318.953 356.072 317.125 356.072 Q 315.297 356.072 314.207 354.9 Q 313.117 353.728 313.117 351.713 Z M 315.375 351.775 Q 315.375 352.978 315.828 353.615 Q 316.281 354.252 317.125 354.252 Q 317.945 354.252 318.406 353.623 Q 318.867 352.994 318.867 351.611 Q 318.867 350.432 318.406 349.783 Q 317.945 349.135 317.11 349.135 Q 316.281 349.135 315.828 349.779 Q 315.375 350.424 315.375 351.775 Z M 327.578 355.057 Q 326.742 356.072 325.266 356.072 Q 323.907 356.072 323.192 355.291 Q 322.477 354.51 322.461 353.002 L 322.461 347.463 L 324.719 347.463 L 324.719 352.924 Q 324.719 354.244 325.922 354.244 Q 327.071 354.244 327.5 353.447 L 327.5 347.463 L 329.766 347.463 L 329.766 355.916 L 327.641 355.916 Z M 333.542 347.463 L 333.612 348.439 Q 334.518 347.307 336.042 347.307 Q 337.386 347.307 338.042 348.096 Q 338.698 348.885 338.714 350.455 L 338.714 355.916 L 336.456 355.916 L 336.456 350.51 Q 336.456 349.791 336.143 349.467 Q 335.831 349.143 335.104 349.143 Q 334.151 349.143 333.675 349.955 L 333.675 355.916 L 331.417 355.916 L 331.417 347.463 Z M 340.071 351.627 Q 340.071 349.65 340.958 348.478 Q 341.845 347.307 343.384 347.307 Q 344.618 347.307 345.423 348.228 L 345.423 343.916 L 347.688 343.916 L 347.688 355.916 L 345.649 355.916 L 345.54 355.018 Q 344.696 356.072 343.368 356.072 Q 341.876 356.072 340.973 354.896 Q 340.071 353.721 340.071 351.627 Z M 342.329 351.791 Q 342.329 352.978 342.743 353.611 Q 343.157 354.244 343.946 354.244 Q 344.993 354.244 345.423 353.361 L 345.423 350.025 Q 345.001 349.143 343.962 349.143 Q 342.329 349.143 342.329 351.791 Z" style="fill: rgb(160, 160, 160); white-space: pre;"></path>
    <path d="M 110.993 381.526 L 108.48 381.526 L 108.48 388.498 L 107.454 388.498 L 107.454 381.526 L 104.945 381.526 L 104.945 380.678 L 110.993 380.678 Z M 112.985 383.39 Q 113.645 382.579 114.703 382.579 Q 116.546 382.579 116.562 384.658 L 116.562 388.498 L 115.568 388.498 L 115.568 384.652 Q 115.563 384.024 115.281 383.723 Q 114.999 383.422 114.402 383.422 Q 113.919 383.422 113.554 383.68 Q 113.189 383.938 112.985 384.357 L 112.985 388.498 L 111.991 388.498 L 111.991 380.248 L 112.985 380.248 Z M 120.452 388.605 Q 119.271 388.605 118.529 387.829 Q 117.788 387.053 117.788 385.753 L 117.788 385.571 Q 117.788 384.706 118.118 384.027 Q 118.449 383.347 119.042 382.963 Q 119.636 382.579 120.329 382.579 Q 121.462 382.579 122.09 383.326 Q 122.719 384.072 122.719 385.463 L 122.719 385.877 L 118.782 385.877 Q 118.803 386.736 119.284 387.265 Q 119.765 387.794 120.506 387.794 Q 121.032 387.794 121.398 387.579 Q 121.763 387.365 122.037 387.01 L 122.644 387.483 Q 121.913 388.605 120.452 388.605 Z M 120.329 383.395 Q 119.727 383.395 119.319 383.833 Q 118.911 384.271 118.814 385.06 L 121.725 385.06 L 121.725 384.985 Q 121.682 384.228 121.317 383.812 Q 120.952 383.395 120.329 383.395 Z M 126.35 385.544 Q 126.35 384.206 126.984 383.393 Q 127.618 382.579 128.643 382.579 Q 129.664 382.579 130.26 383.277 L 130.26 380.248 L 131.254 380.248 L 131.254 388.498 L 130.341 388.498 L 130.292 387.875 Q 129.696 388.605 128.633 388.605 Q 127.623 388.605 126.987 387.778 Q 126.35 386.951 126.35 385.619 Z M 127.344 385.657 Q 127.344 386.645 127.752 387.204 Q 128.16 387.762 128.88 387.762 Q 129.825 387.762 130.26 386.913 L 130.26 384.244 Q 129.814 383.422 128.891 383.422 Q 128.16 383.422 127.752 383.986 Q 127.344 384.55 127.344 385.657 Z M 132.533 385.538 Q 132.533 384.684 132.868 384.002 Q 133.204 383.32 133.803 382.95 Q 134.402 382.579 135.17 382.579 Q 136.357 382.579 137.09 383.401 Q 137.823 384.223 137.823 385.587 L 137.823 385.657 Q 137.823 386.505 137.498 387.179 Q 137.173 387.853 136.569 388.229 Q 135.965 388.605 135.18 388.605 Q 133.999 388.605 133.266 387.784 Q 132.533 386.962 132.533 385.608 Z M 133.532 385.657 Q 133.532 386.623 133.98 387.209 Q 134.429 387.794 135.18 387.794 Q 135.938 387.794 136.384 387.201 Q 136.829 386.607 136.829 385.538 Q 136.829 384.582 136.376 383.989 Q 135.922 383.395 135.17 383.395 Q 134.434 383.395 133.983 383.981 Q 133.532 384.566 133.532 385.657 Z M 141.397 387.794 Q 141.929 387.794 142.326 387.472 Q 142.724 387.15 142.767 386.666 L 143.706 386.666 Q 143.68 387.166 143.363 387.617 Q 143.046 388.068 142.517 388.337 Q 141.988 388.605 141.397 388.605 Q 140.21 388.605 139.509 387.813 Q 138.808 387.021 138.808 385.646 L 138.808 385.479 Q 138.808 384.631 139.12 383.97 Q 139.431 383.309 140.014 382.944 Q 140.597 382.579 141.392 382.579 Q 142.369 382.579 143.016 383.164 Q 143.663 383.75 143.706 384.684 L 142.767 384.684 Q 142.724 384.121 142.34 383.758 Q 141.955 383.395 141.392 383.395 Q 140.634 383.395 140.218 383.941 Q 139.802 384.486 139.802 385.517 L 139.802 385.705 Q 139.802 386.709 140.215 387.252 Q 140.629 387.794 141.397 387.794 Z M 148.406 387.923 Q 147.826 388.605 146.703 388.605 Q 145.774 388.605 145.288 388.066 Q 144.802 387.526 144.797 386.468 L 144.797 382.686 L 145.79 382.686 L 145.79 386.441 Q 145.79 387.762 146.864 387.762 Q 148.003 387.762 148.379 386.913 L 148.379 382.686 L 149.373 382.686 L 149.373 388.498 L 148.427 388.498 Z M 151.813 382.686 L 151.84 383.331 Q 152.479 382.579 153.564 382.579 Q 154.784 382.579 155.224 383.514 Q 155.514 383.095 155.979 382.837 Q 156.443 382.579 157.077 382.579 Q 158.989 382.579 159.021 384.604 L 159.021 388.498 L 158.028 388.498 L 158.028 384.663 Q 158.028 384.04 157.743 383.731 Q 157.458 383.422 156.787 383.422 Q 156.234 383.422 155.869 383.753 Q 155.503 384.083 155.444 384.642 L 155.444 388.498 L 154.445 388.498 L 154.445 384.69 Q 154.445 383.422 153.204 383.422 Q 152.227 383.422 151.867 384.255 L 151.867 388.498 L 150.873 388.498 L 150.873 382.686 Z M 162.932 388.605 Q 161.751 388.605 161.01 387.829 Q 160.268 387.053 160.268 385.753 L 160.268 385.571 Q 160.268 384.706 160.599 384.027 Q 160.929 383.347 161.523 382.963 Q 162.116 382.579 162.809 382.579 Q 163.942 382.579 164.571 383.326 Q 165.199 384.072 165.199 385.463 L 165.199 385.877 L 161.262 385.877 Q 161.284 386.736 161.764 387.265 Q 162.245 387.794 162.986 387.794 Q 163.513 387.794 163.878 387.579 Q 164.243 387.365 164.517 387.01 L 165.124 387.483 Q 164.393 388.605 162.932 388.605 Z M 162.809 383.395 Q 162.207 383.395 161.799 383.833 Q 161.391 384.271 161.294 385.06 L 164.205 385.06 L 164.205 384.985 Q 164.162 384.228 163.797 383.812 Q 163.432 383.395 162.809 383.395 Z M 167.279 382.686 L 167.311 383.417 Q 167.977 382.579 169.052 382.579 Q 170.894 382.579 170.91 384.658 L 170.91 388.498 L 169.916 388.498 L 169.916 384.652 Q 169.911 384.024 169.629 383.723 Q 169.347 383.422 168.751 383.422 Q 168.267 383.422 167.902 383.68 Q 167.537 383.938 167.333 384.357 L 167.333 388.498 L 166.339 388.498 L 166.339 382.686 Z M 173.759 381.279 L 173.759 382.686 L 174.844 382.686 L 174.844 383.454 L 173.759 383.454 L 173.759 387.059 Q 173.759 387.408 173.904 387.582 Q 174.049 387.757 174.398 387.757 Q 174.57 387.757 174.871 387.692 L 174.871 388.498 Q 174.479 388.605 174.108 388.605 Q 173.442 388.605 173.104 388.203 Q 172.765 387.8 172.765 387.059 L 172.765 383.454 L 171.707 383.454 L 171.707 382.686 L 172.765 382.686 L 172.765 381.279 Z M 180.627 387.042 L 181.98 382.686 L 183.044 382.686 L 180.707 389.395 Q 180.165 390.845 178.983 390.845 L 178.795 390.829 L 178.424 390.759 L 178.424 389.954 L 178.693 389.975 Q 179.198 389.975 179.48 389.771 Q 179.762 389.567 179.944 389.024 L 180.165 388.434 L 178.091 382.686 L 179.176 382.686 Z M 183.575 385.538 Q 183.575 384.684 183.911 384.002 Q 184.246 383.32 184.845 382.95 Q 185.444 382.579 186.212 382.579 Q 187.399 382.579 188.132 383.401 Q 188.866 384.223 188.866 385.587 L 188.866 385.657 Q 188.866 386.505 188.541 387.179 Q 188.216 387.853 187.611 388.229 Q 187.007 388.605 186.223 388.605 Q 185.041 388.605 184.308 387.784 Q 183.575 386.962 183.575 385.608 Z M 184.574 385.657 Q 184.574 386.623 185.023 387.209 Q 185.471 387.794 186.223 387.794 Q 186.98 387.794 187.426 387.201 Q 187.872 386.607 187.872 385.538 Q 187.872 384.582 187.418 383.989 Q 186.964 383.395 186.212 383.395 Q 185.476 383.395 185.025 383.981 Q 184.574 384.566 184.574 385.657 Z M 193.696 387.923 Q 193.116 388.605 191.994 388.605 Q 191.064 388.605 190.578 388.066 Q 190.092 387.526 190.087 386.468 L 190.087 382.686 L 191.08 382.686 L 191.08 386.441 Q 191.08 387.762 192.155 387.762 Q 193.293 387.762 193.669 386.913 L 193.669 382.686 L 194.663 382.686 L 194.663 388.498 L 193.718 388.498 Z M 202.479 388.498 Q 202.393 388.326 202.339 387.886 Q 201.646 388.605 200.685 388.605 Q 199.825 388.605 199.275 388.119 Q 198.724 387.633 198.724 386.887 Q 198.724 385.979 199.415 385.477 Q 200.105 384.975 201.356 384.975 L 202.323 384.975 L 202.323 384.518 Q 202.323 383.997 202.012 383.688 Q 201.7 383.379 201.093 383.379 Q 200.561 383.379 200.201 383.648 Q 199.842 383.916 199.842 384.298 L 198.843 384.298 Q 198.843 383.863 199.151 383.457 Q 199.46 383.052 199.989 382.815 Q 200.518 382.579 201.152 382.579 Q 202.157 382.579 202.726 383.081 Q 203.295 383.583 203.317 384.464 L 203.317 387.139 Q 203.317 387.939 203.521 388.412 L 203.521 388.498 Z M 200.83 387.741 Q 201.297 387.741 201.716 387.499 Q 202.135 387.257 202.323 386.871 L 202.323 385.678 L 201.544 385.678 Q 199.718 385.678 199.718 386.747 Q 199.718 387.214 200.03 387.477 Q 200.341 387.741 200.83 387.741 Z M 207.684 383.578 Q 207.458 383.54 207.195 383.54 Q 206.217 383.54 205.868 384.373 L 205.868 388.498 L 204.874 388.498 L 204.874 382.686 L 205.841 382.686 L 205.857 383.358 Q 206.346 382.579 207.243 382.579 Q 207.533 382.579 207.684 382.654 Z M 210.912 388.605 Q 209.73 388.605 208.989 387.829 Q 208.247 387.053 208.247 385.753 L 208.247 385.571 Q 208.247 384.706 208.578 384.027 Q 208.908 383.347 209.502 382.963 Q 210.095 382.579 210.788 382.579 Q 211.921 382.579 212.55 383.326 Q 213.178 384.072 213.178 385.463 L 213.178 385.877 L 209.241 385.877 Q 209.263 386.736 209.743 387.265 Q 210.224 387.794 210.965 387.794 Q 211.492 387.794 211.857 387.579 Q 212.222 387.365 212.496 387.01 L 213.103 387.483 Q 212.372 388.605 210.912 388.605 Z M 210.788 383.395 Q 210.186 383.395 209.778 383.833 Q 209.37 384.271 209.273 385.06 L 212.184 385.06 L 212.184 384.985 Q 212.142 384.228 211.776 383.812 Q 211.411 383.395 210.788 383.395 Z M 218.12 388.498 L 217.126 388.498 L 217.126 380.248 L 218.12 380.248 Z M 219.444 385.538 Q 219.444 384.684 219.779 384.002 Q 220.115 383.32 220.714 382.95 Q 221.313 382.579 222.081 382.579 Q 223.268 382.579 224.001 383.401 Q 224.734 384.223 224.734 385.587 L 224.734 385.657 Q 224.734 386.505 224.409 387.179 Q 224.084 387.853 223.48 388.229 Q 222.876 388.605 222.092 388.605 Q 220.91 388.605 220.177 387.784 Q 219.444 386.962 219.444 385.608 Z M 220.443 385.657 Q 220.443 386.623 220.891 387.209 Q 221.34 387.794 222.092 387.794 Q 222.849 387.794 223.295 387.201 Q 223.74 386.607 223.74 385.538 Q 223.74 384.582 223.287 383.989 Q 222.833 383.395 222.081 383.395 Q 221.345 383.395 220.894 383.981 Q 220.443 384.566 220.443 385.657 Z M 225.714 385.538 Q 225.714 384.684 226.049 384.002 Q 226.385 383.32 226.984 382.95 Q 227.583 382.579 228.351 382.579 Q 229.538 382.579 230.271 383.401 Q 231.004 384.223 231.004 385.587 L 231.004 385.657 Q 231.004 386.505 230.679 387.179 Q 230.354 387.853 229.75 388.229 Q 229.146 388.605 228.362 388.605 Q 227.18 388.605 226.447 387.784 Q 225.714 386.962 225.714 385.608 Z M 226.713 385.657 Q 226.713 386.623 227.161 387.209 Q 227.61 387.794 228.362 387.794 Q 229.119 387.794 229.565 387.201 Q 230.011 386.607 230.011 385.538 Q 230.011 384.582 229.557 383.989 Q 229.103 383.395 228.351 383.395 Q 227.615 383.395 227.164 383.981 Q 226.713 384.566 226.713 385.657 Z M 233.869 385.807 L 233.246 386.457 L 233.246 388.498 L 232.252 388.498 L 232.252 380.248 L 233.246 380.248 L 233.246 385.238 L 233.778 384.599 L 235.588 382.686 L 236.796 382.686 L 234.535 385.114 L 237.06 388.498 L 235.894 388.498 Z M 238.902 388.498 L 237.909 388.498 L 237.909 382.686 L 238.902 382.686 Z M 237.828 381.145 Q 237.828 380.903 237.976 380.737 Q 238.124 380.57 238.414 380.57 Q 238.704 380.57 238.854 380.737 Q 239.005 380.903 239.005 381.145 Q 239.005 381.387 238.854 381.548 Q 238.704 381.709 238.414 381.709 Q 238.124 381.709 237.976 381.548 Q 237.828 381.387 237.828 381.145 Z M 241.43 382.686 L 241.462 383.417 Q 242.128 382.579 243.202 382.579 Q 245.044 382.579 245.06 384.658 L 245.06 388.498 L 244.067 388.498 L 244.067 384.652 Q 244.061 384.024 243.779 383.723 Q 243.497 383.422 242.901 383.422 Q 242.418 383.422 242.053 383.68 Q 241.687 383.938 241.483 384.357 L 241.483 388.498 L 240.49 388.498 L 240.49 382.686 Z M 246.325 385.544 Q 246.325 384.185 246.953 383.382 Q 247.582 382.579 248.619 382.579 Q 249.682 382.579 250.278 383.331 L 250.327 382.686 L 251.234 382.686 L 251.234 388.358 Q 251.234 389.486 250.566 390.136 Q 249.897 390.786 248.769 390.786 Q 248.141 390.786 247.539 390.517 Q 246.937 390.249 246.62 389.782 L 247.136 389.185 Q 247.775 389.975 248.699 389.975 Q 249.424 389.975 249.83 389.567 Q 250.235 389.159 250.235 388.417 L 250.235 387.918 Q 249.639 388.605 248.608 388.605 Q 247.587 388.605 246.956 387.784 Q 246.325 386.962 246.325 385.544 Z M 247.324 385.657 Q 247.324 386.64 247.727 387.201 Q 248.13 387.762 248.855 387.762 Q 249.795 387.762 250.235 386.908 L 250.235 384.255 Q 249.779 383.422 248.866 383.422 Q 248.141 383.422 247.732 383.986 Q 247.324 384.55 247.324 385.657 Z M 255.932 388.498 L 255.932 383.454 L 255.013 383.454 L 255.013 382.686 L 255.932 382.686 L 255.932 382.09 Q 255.932 381.156 256.431 380.645 Q 256.931 380.135 257.844 380.135 Q 258.188 380.135 258.526 380.226 L 258.472 381.032 Q 258.22 380.984 257.935 380.984 Q 257.452 380.984 257.189 381.266 Q 256.926 381.548 256.926 382.074 L 256.926 382.686 L 258.166 382.686 L 258.166 383.454 L 256.926 383.454 L 256.926 388.498 Z M 259.004 385.538 Q 259.004 384.684 259.339 384.002 Q 259.675 383.32 260.274 382.95 Q 260.873 382.579 261.641 382.579 Q 262.828 382.579 263.561 383.401 Q 264.294 384.223 264.294 385.587 L 264.294 385.657 Q 264.294 386.505 263.969 387.179 Q 263.644 387.853 263.04 388.229 Q 262.436 388.605 261.652 388.605 Q 260.47 388.605 259.737 387.784 Q 259.004 386.962 259.004 385.608 Z M 260.003 385.657 Q 260.003 386.623 260.451 387.209 Q 260.9 387.794 261.652 387.794 Q 262.409 387.794 262.855 387.201 Q 263.301 386.607 263.301 385.538 Q 263.301 384.582 262.847 383.989 Q 262.393 383.395 261.641 383.395 Q 260.905 383.395 260.454 383.981 Q 260.003 384.566 260.003 385.657 Z M 268.346 383.578 Q 268.121 383.54 267.857 383.54 Q 266.88 383.54 266.531 384.373 L 266.531 388.498 L 265.537 388.498 L 265.537 382.686 L 266.504 382.686 L 266.52 383.358 Q 267.009 382.579 267.906 382.579 Q 268.196 382.579 268.346 382.654 Z" style="fill: rgb(160, 160, 160); white-space: pre;" transform="matrix(1, 0, 0, 1, 63.148506, -10.300049)"></path>
    <path transform="matrix(1, 0, 0, 1, 63.148506, -10.300049)" style="fill: rgb(160, 160, 160); white-space: pre;"></path>
    <path d="M 181.172 389.828 L 182.29 385.386 L 183.283 385.386 L 181.591 391.198 L 180.786 391.198 L 179.373 386.794 L 177.998 391.198 L 177.192 391.198 L 175.506 385.386 L 176.494 385.386 L 177.638 389.737 L 178.992 385.386 L 179.792 385.386 L 181.172 389.828 Z M 187.868 391.198 C 187.811 391.083 187.765 390.879 187.729 390.586 C 187.267 391.065 186.715 391.305 186.074 391.305 C 185.501 391.305 185.031 391.143 184.665 390.819 C 184.297 390.495 184.114 390.084 184.114 389.587 C 184.114 388.982 184.344 388.512 184.804 388.177 C 185.264 387.842 185.911 387.675 186.746 387.675 L 187.713 387.675 L 187.713 387.218 C 187.713 386.871 187.609 386.594 187.401 386.388 C 187.193 386.182 186.887 386.079 186.483 386.079 C 186.128 386.079 185.831 386.169 185.591 386.348 C 185.351 386.527 185.231 386.743 185.231 386.998 L 184.232 386.998 C 184.232 386.708 184.335 386.428 184.541 386.157 C 184.747 385.887 185.026 385.673 185.379 385.515 C 185.731 385.358 186.119 385.279 186.542 385.279 C 187.211 385.279 187.736 385.446 188.116 385.781 C 188.495 386.116 188.692 386.577 188.706 387.164 L 188.706 389.839 C 188.706 390.372 188.774 390.797 188.91 391.112 L 188.91 391.198 L 187.868 391.198 Z M 186.22 390.441 C 186.531 390.441 186.826 390.36 187.106 390.199 C 187.385 390.038 187.587 389.828 187.713 389.571 L 187.713 388.378 L 186.934 388.378 C 185.716 388.378 185.108 388.734 185.108 389.447 C 185.108 389.758 185.211 390.002 185.419 390.177 C 185.627 390.353 185.894 390.441 186.22 390.441 Z M 193.648 389.656 C 193.648 389.388 193.546 389.18 193.344 389.031 C 193.142 388.882 192.789 388.754 192.286 388.647 C 191.783 388.54 191.384 388.411 191.089 388.26 C 190.793 388.109 190.575 387.93 190.433 387.723 C 190.291 387.515 190.221 387.268 190.221 386.982 C 190.221 386.505 190.422 386.102 190.825 385.773 C 191.228 385.444 191.743 385.279 192.37 385.279 C 193.028 385.279 193.563 385.449 193.973 385.789 C 194.383 386.13 194.588 386.565 194.588 387.094 L 193.589 387.094 C 193.589 386.822 193.473 386.588 193.242 386.391 C 193.011 386.194 192.72 386.095 192.37 386.095 C 192.008 386.095 191.725 386.174 191.521 386.332 C 191.317 386.489 191.215 386.695 191.215 386.949 C 191.215 387.189 191.31 387.37 191.5 387.492 C 191.689 387.614 192.032 387.73 192.528 387.841 C 193.024 387.952 193.426 388.085 193.734 388.238 C 194.042 388.392 194.27 388.577 194.419 388.794 C 194.567 389.011 194.642 389.275 194.642 389.587 C 194.642 390.106 194.434 390.522 194.019 390.835 C 193.603 391.148 193.064 391.305 192.402 391.305 C 191.936 391.305 191.525 391.223 191.167 391.058 C 190.808 390.893 190.528 390.663 190.326 390.368 C 190.123 390.073 190.022 389.753 190.022 389.409 L 191.016 389.409 C 191.034 389.742 191.167 390.007 191.416 390.202 C 191.665 390.397 191.994 390.494 192.402 390.494 C 192.778 390.494 193.079 390.418 193.307 390.266 C 193.534 390.114 193.648 389.911 193.648 389.656 Z M 199.59 385.386 L 199.622 386.117 C 200.066 385.558 200.646 385.279 201.362 385.279 C 202.59 385.279 203.21 385.972 203.221 387.358 L 203.221 391.198 L 202.227 391.198 L 202.227 387.352 C 202.223 386.933 202.128 386.624 201.94 386.423 C 201.752 386.222 201.459 386.122 201.062 386.122 C 200.739 386.122 200.456 386.208 200.213 386.38 C 199.969 386.552 199.78 386.778 199.644 387.057 L 199.644 391.198 L 198.65 391.198 L 198.65 385.386 L 199.59 385.386 Z M 204.459 388.238 C 204.459 387.669 204.57 387.157 204.794 386.702 C 205.018 386.247 205.329 385.897 205.729 385.65 C 206.128 385.403 206.584 385.279 207.096 385.279 C 207.887 385.279 208.527 385.553 209.016 386.101 C 209.504 386.649 209.749 387.378 209.749 388.287 L 209.749 388.357 C 209.749 388.922 209.64 389.43 209.424 389.879 C 209.207 390.328 208.897 390.678 208.495 390.929 C 208.092 391.18 207.629 391.305 207.107 391.305 C 206.319 391.305 205.68 391.031 205.192 390.484 C 204.703 389.936 204.459 389.211 204.459 388.308 L 204.459 388.238 Z M 205.458 388.357 C 205.458 389.001 205.607 389.518 205.906 389.909 C 206.205 390.299 206.605 390.494 207.107 390.494 C 207.611 390.494 208.012 390.296 208.31 389.901 C 208.606 389.505 208.755 388.951 208.755 388.238 C 208.755 387.601 208.604 387.084 208.302 386.689 C 207.999 386.293 207.597 386.095 207.096 386.095 C 206.605 386.095 206.209 386.29 205.909 386.681 C 205.608 387.071 205.458 387.63 205.458 388.357 Z M 212.34 383.979 L 212.34 385.386 L 213.425 385.386 L 213.425 386.154 L 212.34 386.154 L 212.34 389.759 C 212.34 389.992 212.388 390.166 212.485 390.282 C 212.581 390.399 212.746 390.457 212.979 390.457 C 213.093 390.457 213.251 390.435 213.452 390.392 L 213.452 391.198 C 213.19 391.269 212.936 391.305 212.689 391.305 C 212.245 391.305 211.91 391.171 211.685 390.903 C 211.459 390.634 211.346 390.253 211.346 389.759 L 211.346 386.154 L 210.288 386.154 L 210.288 385.386 L 211.346 385.386 L 211.346 383.979 L 212.34 383.979 Z M 217.795 391.198 L 217.795 386.154 L 216.876 386.154 L 216.876 385.386 L 217.795 385.386 L 217.795 384.79 C 217.795 384.167 217.961 383.686 218.294 383.345 C 218.627 383.005 219.098 382.835 219.707 382.835 C 219.936 382.835 220.163 382.865 220.389 382.926 L 220.335 383.732 C 220.167 383.7 219.988 383.684 219.798 383.684 C 219.476 383.684 219.227 383.778 219.052 383.966 C 218.876 384.154 218.789 384.423 218.789 384.774 L 218.789 385.386 L 220.029 385.386 L 220.029 386.154 L 218.789 386.154 L 218.789 391.198 L 217.795 391.198 Z M 220.856 388.238 C 220.856 387.669 220.967 387.157 221.191 386.702 C 221.415 386.247 221.726 385.897 222.126 385.65 C 222.525 385.403 222.981 385.279 223.493 385.279 C 224.284 385.279 224.924 385.553 225.413 386.101 C 225.901 386.649 226.146 387.378 226.146 388.287 L 226.146 388.357 C 226.146 388.922 226.037 389.43 225.821 389.879 C 225.604 390.328 225.294 390.678 224.892 390.929 C 224.489 391.18 224.026 391.305 223.504 391.305 C 222.716 391.305 222.077 391.031 221.589 390.484 C 221.1 389.936 220.856 389.211 220.856 388.308 L 220.856 388.238 Z M 221.855 388.357 C 221.855 389.001 222.004 389.518 222.303 389.909 C 222.602 390.299 223.002 390.494 223.504 390.494 C 224.008 390.494 224.409 390.296 224.707 389.901 C 225.004 389.505 225.153 388.951 225.153 388.238 C 225.153 387.601 225.001 387.084 224.699 386.689 C 224.396 386.293 223.994 386.095 223.493 386.095 C 223.002 386.095 222.606 386.29 222.306 386.681 C 222.005 387.071 221.855 387.63 221.855 388.357 Z M 230.977 390.623 C 230.59 391.078 230.022 391.305 229.274 391.305 C 228.654 391.305 228.183 391.125 227.859 390.766 C 227.535 390.406 227.371 389.873 227.367 389.168 L 227.367 385.386 L 228.361 385.386 L 228.361 389.141 C 228.361 390.022 228.719 390.462 229.435 390.462 C 230.194 390.462 230.699 390.179 230.95 389.613 L 230.95 385.386 L 231.944 385.386 L 231.944 391.198 L 230.998 391.198 L 230.977 390.623 Z M 234.39 385.386 L 234.422 386.117 C 234.866 385.558 235.446 385.279 236.162 385.279 C 237.39 385.279 238.009 385.972 238.021 387.358 L 238.021 391.198 L 237.027 391.198 L 237.027 387.352 C 237.023 386.933 236.927 386.624 236.739 386.423 C 236.551 386.222 236.259 386.122 235.861 386.122 C 235.539 386.122 235.256 386.208 235.013 386.38 C 234.769 386.552 234.579 386.778 234.443 387.057 L 234.443 391.198 L 233.45 391.198 L 233.45 385.386 L 234.39 385.386 Z M 239.28 388.244 C 239.28 387.352 239.491 386.635 239.914 386.093 C 240.336 385.55 240.889 385.279 241.573 385.279 C 242.253 385.279 242.792 385.512 243.19 385.977 L 243.19 382.948 L 244.184 382.948 L 244.184 391.198 L 243.271 391.198 L 243.222 390.575 C 242.824 391.062 242.271 391.305 241.562 391.305 C 240.889 391.305 240.34 391.029 239.916 390.478 C 239.492 389.927 239.28 389.207 239.28 388.319 L 239.28 388.244 Z M 240.273 388.357 C 240.273 389.016 240.409 389.531 240.682 389.904 C 240.954 390.276 241.33 390.462 241.81 390.462 C 242.44 390.462 242.9 390.179 243.19 389.613 L 243.19 386.944 C 242.892 386.396 242.436 386.122 241.82 386.122 C 241.333 386.122 240.954 386.31 240.682 386.686 C 240.409 387.062 240.273 387.619 240.273 388.357 Z M 248.184 388.238 C 248.184 387.669 248.296 387.157 248.52 386.702 C 248.743 386.247 249.054 385.897 249.454 385.65 C 249.853 385.403 250.309 385.279 250.821 385.279 C 251.612 385.279 252.252 385.553 252.741 386.101 C 253.23 386.649 253.475 387.378 253.475 388.287 L 253.475 388.357 C 253.475 388.922 253.366 389.43 253.15 389.879 C 252.933 390.328 252.623 390.678 252.22 390.929 C 251.817 391.18 251.354 391.305 250.832 391.305 C 250.044 391.305 249.405 391.031 248.917 390.484 C 248.428 389.936 248.184 389.211 248.184 388.308 L 248.184 388.238 Z M 249.183 388.357 C 249.183 389.001 249.332 389.518 249.632 389.909 C 249.93 390.299 250.33 390.494 250.832 390.494 C 251.336 390.494 251.737 390.296 252.035 389.901 C 252.332 389.505 252.481 388.951 252.481 388.238 C 252.481 387.601 252.329 387.084 252.027 386.689 C 251.724 386.293 251.322 386.095 250.821 386.095 C 250.33 386.095 249.934 386.29 249.634 386.681 C 249.333 387.071 249.183 387.63 249.183 388.357 Z M 257.526 386.278 C 257.376 386.253 257.213 386.24 257.038 386.24 C 256.386 386.24 255.943 386.518 255.711 387.073 L 255.711 391.198 L 254.717 391.198 L 254.717 385.386 L 255.684 385.386 L 255.7 386.058 C 256.026 385.539 256.488 385.279 257.086 385.279 C 257.279 385.279 257.426 385.304 257.526 385.354 L 257.526 386.278 Z M 260.911 388.244 C 260.911 387.352 261.122 386.635 261.545 386.093 C 261.967 385.55 262.521 385.279 263.205 385.279 C 263.885 385.279 264.423 385.512 264.821 385.977 L 264.821 382.948 L 265.815 382.948 L 265.815 391.198 L 264.902 391.198 L 264.853 390.575 C 264.455 391.062 263.902 391.305 263.194 391.305 C 262.52 391.305 261.972 391.029 261.548 390.478 C 261.123 389.927 260.911 389.207 260.911 388.319 L 260.911 388.244 Z M 261.905 388.357 C 261.905 389.016 262.041 389.531 262.313 389.904 C 262.585 390.276 262.961 390.462 263.441 390.462 C 264.071 390.462 264.531 390.179 264.821 389.613 L 264.821 386.944 C 264.523 386.396 264.067 386.122 263.452 386.122 C 262.964 386.122 262.585 386.31 262.313 386.686 C 262.041 387.062 261.905 387.619 261.905 388.357 Z M 267.094 388.238 C 267.094 387.669 267.205 387.157 267.429 386.702 C 267.653 386.247 267.964 385.897 268.364 385.65 C 268.763 385.403 269.219 385.279 269.731 385.279 C 270.522 385.279 271.162 385.553 271.651 386.101 C 272.139 386.649 272.384 387.378 272.384 388.287 L 272.384 388.357 C 272.384 388.922 272.275 389.43 272.059 389.879 C 271.842 390.328 271.532 390.678 271.13 390.929 C 270.727 391.18 270.264 391.305 269.742 391.305 C 268.954 391.305 268.315 391.031 267.827 390.484 C 267.338 389.936 267.094 389.211 267.094 388.308 L 267.094 388.238 Z M 268.093 388.357 C 268.093 389.001 268.242 389.518 268.541 389.909 C 268.84 390.299 269.24 390.494 269.742 390.494 C 270.246 390.494 270.647 390.296 270.945 389.901 C 271.242 389.505 271.391 388.951 271.391 388.238 C 271.391 387.601 271.239 387.084 270.937 386.689 C 270.634 386.293 270.232 386.095 269.731 386.095 C 269.24 386.095 268.844 386.29 268.544 386.681 C 268.243 387.071 268.093 387.63 268.093 388.357 Z M 276.039 391.305 C 275.251 391.305 274.61 391.046 274.116 390.529 C 273.621 390.012 273.374 389.32 273.374 388.453 L 273.374 388.271 C 273.374 387.694 273.484 387.18 273.705 386.727 C 273.925 386.274 274.233 385.919 274.629 385.663 C 275.024 385.407 275.453 385.279 275.915 385.279 C 276.67 385.279 277.257 385.528 277.677 386.026 C 278.095 386.523 278.305 387.236 278.305 388.163 L 278.305 388.577 L 274.368 388.577 C 274.382 389.15 274.55 389.612 274.87 389.965 C 275.19 390.318 275.598 390.494 276.092 390.494 C 276.443 390.494 276.74 390.422 276.984 390.279 C 277.227 390.136 277.44 389.947 277.623 389.71 L 278.23 390.183 C 277.742 390.931 277.012 391.305 276.039 391.305 Z M 275.915 386.095 C 275.513 386.095 275.177 386.241 274.905 386.533 C 274.633 386.825 274.464 387.234 274.4 387.76 L 277.312 387.76 L 277.312 387.685 C 277.283 387.18 277.147 386.789 276.903 386.512 C 276.659 386.234 276.33 386.095 275.915 386.095 Z M 282.84 389.656 C 282.84 389.388 282.739 389.18 282.537 389.031 C 282.334 388.882 281.981 388.754 281.478 388.647 C 280.975 388.54 280.576 388.411 280.281 388.26 C 279.985 388.109 279.767 387.93 279.625 387.723 C 279.483 387.515 279.413 387.268 279.413 386.982 C 279.413 386.505 279.614 386.102 280.018 385.773 C 280.42 385.444 280.935 385.279 281.562 385.279 C 282.22 385.279 282.755 385.449 283.165 385.789 C 283.575 386.13 283.78 386.565 283.78 387.094 L 282.781 387.094 C 282.781 386.822 282.665 386.588 282.435 386.391 C 282.203 386.194 281.912 386.095 281.562 386.095 C 281.2 386.095 280.917 386.174 280.713 386.332 C 280.509 386.489 280.407 386.695 280.407 386.949 C 280.407 387.189 280.502 387.37 280.692 387.492 C 280.881 387.614 281.224 387.73 281.72 387.841 C 282.216 387.952 282.618 388.085 282.926 388.238 C 283.234 388.392 283.462 388.577 283.611 388.794 C 283.759 389.011 283.834 389.275 283.834 389.587 C 283.834 390.106 283.626 390.522 283.211 390.835 C 282.795 391.148 282.256 391.305 281.594 391.305 C 281.128 391.305 280.717 391.223 280.359 391.058 C 280.001 390.893 279.72 390.663 279.518 390.368 C 279.316 390.073 279.215 389.753 279.215 389.409 L 280.208 389.409 C 280.226 389.742 280.359 390.007 280.608 390.202 C 280.857 390.397 281.186 390.494 281.594 390.494 C 281.97 390.494 282.271 390.418 282.499 390.266 C 282.726 390.114 282.84 389.911 282.84 389.656 Z M 286.06 385.386 L 286.092 386.117 C 286.536 385.558 287.116 385.279 287.833 385.279 C 289.061 385.279 289.68 385.972 289.691 387.358 L 289.691 391.198 L 288.697 391.198 L 288.697 387.352 C 288.693 386.933 288.598 386.624 288.41 386.423 C 288.222 386.222 287.929 386.122 287.532 386.122 C 287.21 386.122 286.927 386.208 286.683 386.38 C 286.439 386.552 286.25 386.778 286.114 387.057 L 286.114 391.198 L 285.12 391.198 L 285.12 385.386 L 286.06 385.386 Z M 291.237 383.544 L 291.124 385.521 L 290.431 385.521 L 290.437 382.948 L 291.237 382.948 L 291.237 383.544 Z M 293.896 383.979 L 293.896 385.386 L 294.981 385.386 L 294.981 386.154 L 293.896 386.154 L 293.896 389.759 C 293.896 389.992 293.944 390.166 294.041 390.282 C 294.137 390.399 294.302 390.457 294.535 390.457 C 294.649 390.457 294.807 390.435 295.007 390.392 L 295.007 391.198 C 294.745 391.269 294.491 391.305 294.245 391.305 C 293.801 391.305 293.466 391.171 293.24 390.903 C 293.014 390.634 292.902 390.253 292.902 389.759 L 292.902 386.154 L 291.844 386.154 L 291.844 385.386 L 292.902 385.386 L 292.902 383.979 L 293.896 383.979 Z M 301.273 391.305 C 300.485 391.305 299.844 391.046 299.35 390.529 C 298.856 390.012 298.609 389.32 298.609 388.453 L 298.609 388.271 C 298.609 387.694 298.719 387.18 298.94 386.727 C 299.16 386.274 299.467 385.919 299.863 385.663 C 300.259 385.407 300.688 385.279 301.15 385.279 C 301.905 385.279 302.492 385.528 302.911 386.026 C 303.33 386.523 303.54 387.236 303.54 388.163 L 303.54 388.577 L 299.603 388.577 C 299.617 389.15 299.784 389.612 300.105 389.965 C 300.425 390.318 300.833 390.494 301.327 390.494 C 301.677 390.494 301.975 390.422 302.219 390.279 C 302.462 390.136 302.675 389.947 302.858 389.71 L 303.465 390.183 C 302.977 390.931 302.247 391.305 301.273 391.305 Z M 301.15 386.095 C 300.748 386.095 300.412 386.241 300.14 386.533 C 299.868 386.825 299.699 387.234 299.635 387.76 L 302.546 387.76 L 302.546 387.685 C 302.517 387.18 302.381 386.789 302.138 386.512 C 301.894 386.234 301.565 386.095 301.15 386.095 Z M 306.63 387.508 L 307.919 385.386 L 309.079 385.386 L 307.178 388.26 L 309.138 391.198 L 307.989 391.198 L 306.646 389.023 L 305.303 391.198 L 304.148 391.198 L 306.109 388.26 L 304.207 385.386 L 305.357 385.386 L 306.63 387.508 Z M 311.214 391.198 L 310.221 391.198 L 310.221 385.386 L 311.214 385.386 L 311.214 391.198 Z M 310.14 383.845 C 310.14 383.684 310.189 383.548 310.288 383.437 C 310.386 383.326 310.531 383.27 310.725 383.27 C 310.919 383.27 311.066 383.326 311.166 383.437 C 311.266 383.548 311.316 383.684 311.316 383.845 C 311.316 384.006 311.266 384.141 311.166 384.248 C 311.066 384.355 310.919 384.409 310.725 384.409 C 310.531 384.409 310.386 384.355 310.288 384.248 C 310.189 384.141 310.14 384.006 310.14 383.845 Z M 316.185 389.656 C 316.185 389.388 316.084 389.18 315.882 389.031 C 315.679 388.882 315.326 388.754 314.824 388.647 C 314.32 388.54 313.921 388.411 313.626 388.26 C 313.33 388.109 313.112 387.93 312.971 387.723 C 312.829 387.515 312.758 387.268 312.758 386.982 C 312.758 386.505 312.959 386.102 313.363 385.773 C 313.765 385.444 314.28 385.279 314.907 385.279 C 315.565 385.279 316.1 385.449 316.51 385.789 C 316.92 386.13 317.125 386.565 317.125 387.094 L 316.126 387.094 C 316.126 386.822 316.01 386.588 315.78 386.391 C 315.548 386.194 315.257 386.095 314.907 386.095 C 314.545 386.095 314.262 386.174 314.058 386.332 C 313.854 386.489 313.752 386.695 313.752 386.949 C 313.752 387.189 313.847 387.37 314.037 387.492 C 314.226 387.614 314.569 387.73 315.065 387.841 C 315.561 387.952 315.963 388.085 316.271 388.238 C 316.579 388.392 316.807 388.577 316.956 388.794 C 317.104 389.011 317.179 389.275 317.179 389.587 C 317.179 390.106 316.971 390.522 316.556 390.835 C 316.14 391.148 315.601 391.305 314.939 391.305 C 314.473 391.305 314.062 391.223 313.704 391.058 C 313.346 390.893 313.065 390.663 312.863 390.368 C 312.661 390.073 312.56 389.753 312.56 389.409 L 313.553 389.409 C 313.571 389.742 313.704 390.007 313.953 390.202 C 314.202 390.397 314.531 390.494 314.939 390.494 C 315.315 390.494 315.616 390.418 315.844 390.266 C 316.071 390.114 316.185 389.911 316.185 389.656 Z M 319.825 383.979 L 319.825 385.386 L 320.91 385.386 L 320.91 386.154 L 319.825 386.154 L 319.825 389.759 C 319.825 389.992 319.873 390.166 319.97 390.282 C 320.066 390.399 320.231 390.457 320.464 390.457 C 320.578 390.457 320.736 390.435 320.936 390.392 L 320.936 391.198 C 320.674 391.269 320.42 391.305 320.174 391.305 C 319.73 391.305 319.395 391.171 319.169 390.903 C 318.943 390.634 318.831 390.253 318.831 389.759 L 318.831 386.154 L 317.773 386.154 L 317.773 385.386 L 318.831 385.386 L 318.831 383.979 L 319.825 383.979 Z M 322.079 390.677 C 322.079 390.505 322.13 390.362 322.232 390.247 C 322.334 390.132 322.487 390.075 322.692 390.075 C 322.896 390.075 323.05 390.132 323.156 390.247 C 323.262 390.362 323.315 390.505 323.315 390.677 C 323.315 390.842 323.262 390.98 323.156 391.091 C 323.05 391.202 322.896 391.257 322.692 391.257 C 322.487 391.257 322.334 391.202 322.232 391.091 C 322.13 390.98 322.079 390.842 322.079 390.677 Z" style="fill: rgb(160, 160, 160); white-space: pre;"></path>
</svg>