<svg width="19" height="18" viewBox="0 0 19 18" fill="none" xmlns="http://www.w3.org/2000/svg">
    <path fill-rule="evenodd" clip-rule="evenodd" d="M8.42657 8.25H10.1921L10.1843 6.00349L10.1661 0.724376L10.0859 0.578544C9.91818 0.265006 9.65568 0.108236 9.30933 0.108236C8.96298 0.108236 8.70048 0.265006 8.53277 0.578544L8.45257 0.724376L8.43434 6.00349L8.42657 8.25Z" fill="#363636"/>
    <path fill-rule="evenodd" clip-rule="evenodd" d="M1.5 8.2502C0.671573 8.2502 0 8.92177 0 9.75019V15.8252C0 16.6536 0.671574 17.3252 1.5 17.3252H17.1675C17.9959 17.3252 18.6675 16.6536 18.6675 15.8252V9.7502C18.6675 8.92177 17.9959 8.2502 17.1675 8.2502H10.1921L10.2025 11.279L11.4603 10.0175C12.8093 8.66493 12.9114 8.58107 13.2468 8.58107C13.3379 8.58107 13.4692 8.5993 13.5421 8.61753C13.7171 8.66493 13.9723 8.89097 14.0525 9.06961C14.1437 9.27377 14.14 9.60919 14.0452 9.82064C13.9905 9.9446 13.4838 10.4732 11.8869 12.0665C10.1187 13.8347 9.77599 14.1591 9.63745 14.2102C9.43328 14.2795 9.08329 14.2649 8.90829 14.1774C8.83902 14.1446 7.85101 13.1857 6.71352 12.0482C5.13124 10.4696 4.62812 9.9446 4.57343 9.82064C4.47864 9.60919 4.475 9.27377 4.56614 9.06961C4.64635 8.89097 4.90155 8.66493 5.07655 8.61753C5.14947 8.5993 5.28072 8.58107 5.37186 8.58107C5.70728 8.58107 5.80936 8.66493 7.1583 10.0175L8.4161 11.279L8.42657 8.2502H1.5Z" fill="#363636"/>
</svg>
