<svg width="25" height="25" viewBox="0 0 25 25" fill="none" xmlns="http://www.w3.org/2000/svg">
    <rect x="1" y="1" width="23" height="23" rx="4.5" fill="#014689"/>
    <path d="M15.8052 7.19966L17.3003 8.69403M16.7666 5.88318L12.724 9.92581C12.5151 10.1344 12.3727 10.4002 12.3146 10.6896L11.9412 12.5588L13.8104 12.1847C14.0998 12.1268 14.3652 11.9849 14.5741 11.7759L18.6168 7.73331C18.7382 7.61183 18.8346 7.46761 18.9004 7.30889C18.9661 7.15016 18.9999 6.98005 18.9999 6.80824C18.9999 6.63644 18.9661 6.46632 18.9004 6.3076C18.8346 6.14888 18.7382 6.00466 18.6168 5.88318C18.4953 5.76169 18.3511 5.66533 18.1923 5.59958C18.0336 5.53384 17.8635 5.5 17.6917 5.5C17.5199 5.5 17.3498 5.53384 17.191 5.59958C17.0323 5.66533 16.8881 5.76169 16.7666 5.88318V5.88318Z" stroke="white" stroke-width="2" stroke-linecap="round" stroke-linejoin="round"/>
    <path d="M17.5883 13.9705V16.0882C17.5883 16.4626 17.4396 16.8217 17.1748 17.0865C16.9101 17.3512 16.551 17.5 16.1766 17.5H8.41178C8.03735 17.5 7.67826 17.3512 7.4135 17.0865C7.14874 16.8217 7 16.4626 7 16.0882V8.3234C7 7.94897 7.14874 7.58988 7.4135 7.32512C7.67826 7.06036 8.03735 6.91162 8.41178 6.91162H10.5294" stroke="white" stroke-width="2" stroke-linecap="round" stroke-linejoin="round"/>
    <rect x="1" y="1" width="23" height="23" rx="4.5" stroke="#014689"/>
</svg>
