<svg width="20" height="20" viewBox="0 0 20 20" fill="none" xmlns="http://www.w3.org/2000/svg">
<g clip-path="url(#clip0_1_3969)">
<path d="M4.16699 15.833H7.84532L19.2145 4.46381C19.7015 3.97562 19.975 3.31421 19.975 2.62464C19.975 1.93508 19.7015 1.27367 19.2145 0.785477C18.7192 0.312055 18.0605 0.0478516 17.3753 0.0478516C16.6902 0.0478516 16.0314 0.312055 15.5362 0.785477L4.16699 12.1546V15.833ZM5.83366 12.8446L16.7145 1.96381C16.8925 1.79377 17.1292 1.69889 17.3753 1.69889C17.6215 1.69889 17.8582 1.79377 18.0362 1.96381C18.2111 2.13924 18.3094 2.37689 18.3094 2.62464C18.3094 2.8724 18.2111 3.11005 18.0362 3.28548L7.15533 14.1663H5.83366V12.8446Z" fill="#BABABA"/>
<path d="M19.6842 6.35167L18.3333 7.7025V13.3333H13.3333V18.3333H1.66667V2.5C1.66667 2.27899 1.75446 2.06702 1.91074 1.91074C2.06702 1.75446 2.27899 1.66667 2.5 1.66667H12.2983L13.6492 0.315833C13.7708 0.20302 13.8991 0.0975551 14.0333 0L2.5 0C1.83696 0 1.20107 0.263392 0.732233 0.732233C0.263392 1.20107 0 1.83696 0 2.5L0 20H15.345L20 15.345V5.9675C19.9022 6.10155 19.7968 6.22982 19.6842 6.35167ZM15 17.9883V15H17.9883L15 17.9883Z" fill="#BABABA"/>
</g>
<defs>
<clipPath id="clip0_1_3969">
<rect width="20" height="20" fill="white"/>
</clipPath>
</defs>
</svg>
