<svg width="20" height="20" viewBox="0 0 20 20" fill="none" xmlns="http://www.w3.org/2000/svg">
<g clip-path="url(#clip0_1_3974)">
<path d="M6.66699 6.66667V5H13.3337V6.66667H6.66699ZM4.16699 18.3333C3.94598 18.3333 3.73402 18.2455 3.57774 18.0893C3.42146 17.933 3.33366 17.721 3.33366 17.5V2.5C3.33366 2.27899 3.42146 2.06702 3.57774 1.91074C3.73402 1.75446 3.94598 1.66667 4.16699 1.66667H16.667V9.58333C17.2858 9.84376 17.8509 10.2167 18.3337 10.6833V0H4.16699C3.50395 0 2.86807 0.263392 2.39923 0.732233C1.93038 1.20107 1.66699 1.83696 1.66699 2.5V17.5C1.66699 18.163 1.93038 18.7989 2.39923 19.2678C2.86807 19.7366 3.50395 20 4.16699 20H14.5837C13.8549 19.9999 13.1336 19.8522 12.4635 19.5657C11.7933 19.2793 11.1882 18.8601 10.6845 18.3333H4.16699ZM18.7862 19.9642L16.572 17.75C15.978 18.1291 15.2884 18.3315 14.5837 18.3333C13.842 18.3333 13.117 18.1134 12.5003 17.7013C11.8836 17.2893 11.4029 16.7036 11.1191 16.0184C10.8353 15.3332 10.761 14.5792 10.9057 13.8517C11.0504 13.1243 11.4076 12.4561 11.932 11.9317C12.4565 11.4072 13.1246 11.0501 13.8521 10.9054C14.5795 10.7607 15.3335 10.835 16.0187 11.1188C16.7039 11.4026 17.2896 11.8833 17.7017 12.4999C18.1137 13.1166 18.3337 13.8417 18.3337 14.5833C18.3318 15.288 18.1295 15.9776 17.7503 16.5717L19.9645 18.7858L18.7862 19.9642ZM14.5837 16.6667C14.9957 16.6667 15.3985 16.5445 15.7411 16.3156C16.0837 16.0866 16.3507 15.7613 16.5084 15.3806C16.6661 14.9999 16.7073 14.581 16.627 14.1769C16.5466 13.7728 16.3482 13.4016 16.0568 13.1102C15.7654 12.8188 15.3942 12.6204 14.9901 12.54C14.586 12.4596 14.1671 12.5009 13.7864 12.6586C13.4057 12.8163 13.0803 13.0833 12.8514 13.4259C12.6225 13.7685 12.5003 14.1713 12.5003 14.5833C12.5003 15.1359 12.7198 15.6658 13.1105 16.0565C13.5012 16.4472 14.0311 16.6667 14.5837 16.6667Z" fill="#BABABA"/>
</g>
<defs>
<clipPath id="clip0_1_3974">
<rect width="20" height="20" fill="white"/>
</clipPath>
</defs>
</svg>
