<svg width="38" height="38" viewBox="0 0 38 38" fill="none" xmlns="http://www.w3.org/2000/svg">
    <path d="M20.8551 4.75H14.2501C11.2645 4.75 9.77174 4.75 8.84424 5.6775C7.91675 6.60499 7.91675 8.09777 7.91675 11.0833V26.9167C7.91675 29.9022 7.91675 31.395 8.84424 32.3225C9.77174 33.25 11.2645 33.25 14.2501 33.25H23.7501C26.7356 33.25 28.2284 33.25 29.1559 32.3225C30.0834 31.395 30.0834 29.9022 30.0834 26.9167V13.9783C30.0834 13.3312 30.0834 13.0076 29.9629 12.7166C29.8424 12.4256 29.6136 12.1968 29.1559 11.7392L23.0942 5.6775C22.6366 5.21986 22.4078 4.99105 22.1168 4.87052C21.8259 4.75 21.5023 4.75 20.8551 4.75Z" stroke="#014689" stroke-width="2"/>
    <path d="M14.25 20.5833L23.75 20.5833" stroke="#014689" stroke-width="2" stroke-linecap="round"/>
    <path d="M14.25 26.9167L20.5833 26.9167" stroke="#014689" stroke-width="2" stroke-linecap="round"/>
    <path d="M20.5833 4.75V11.0833C20.5833 12.5761 20.5833 13.3225 21.047 13.7863C21.5107 14.25 22.2571 14.25 23.7499 14.25H30.0833" stroke="#014689" stroke-width="2"/>
</svg>
