<svg width="61" height="94" viewBox="0 0 61 94" fill="none" xmlns="http://www.w3.org/2000/svg">
    <path fill-rule="evenodd" clip-rule="evenodd" d="M121.137 44.8956C120.133 42.2047 118.361 40.0124 116.102 38.0416C114.976 37.0574 113.78 36.1027 112.831 34.9771C111.865 33.8267 111.284 32.5313 110.946 31.1334C110.241 28.2315 110.446 25.2176 109.591 22.3346C108.852 19.844 107.493 17.5244 105.738 15.4864C102.112 11.2762 97.0233 8.214 91.7096 5.92619C88.8161 4.67679 85.5195 3.15747 82.2149 3.51933C78.8536 3.88825 76.0434 5.84014 72.6265 6.06527C69.1646 6.29393 65.7768 5.40757 62.5093 4.49645C59.2417 3.58533 56.0324 2.61882 52.6432 2.24635C48.3605 1.77488 44.0052 2.2381 39.9141 3.42503C39.7117 3.4209 39.5118 3.46527 39.3352 3.55351L39.1012 3.67137C38.1125 3.98569 37.1432 4.33929 36.1932 4.73219C31.0447 6.8762 26.5294 10.3014 23.4628 14.5789C21.7444 16.9822 20.5403 19.6106 19.7075 22.3416C18.7268 24.2374 17.9158 26.1993 17.282 28.2091C16.3567 31.1346 15.7077 34.2475 15.9602 37.2943C16.1888 39.9947 17.2 42.5206 18.773 44.8249C21.6545 49.0481 25.9293 52.3284 28.9444 56.462C30.5306 58.6414 31.6409 61.0176 31.9674 63.6178C32.3454 66.621 31.9674 69.6467 31.6739 72.6405C31.3752 75.731 31.1703 78.8545 31.859 81.9167C32.5199 84.8387 34.0743 87.5426 36.1152 89.8834C39.7938 94.1031 45.787 97.6226 52.0259 96.9072C55.0661 96.5536 57.6357 95.1392 59.7242 93.1873C61.8391 91.2212 63.4451 88.8874 65.4384 86.833C74.5299 77.466 88.7844 74.5748 101.064 69.9402C107.069 67.676 113.382 64.9226 117.65 60.3799C119.647 58.2583 121.146 55.7654 121.727 53.025C122.305 50.3144 122.102 47.5172 121.137 44.8956Z" fill="#DBEDFF"/>
    <g opacity="0.7">
        <path fill-rule="evenodd" clip-rule="evenodd" d="M35.9771 27.0175C35.9046 27.0506 35.829 27.0772 35.7513 27.0972L28.4819 29.0111C28.3653 29.0419 28.2406 29.0276 28.1351 28.9714C28.0297 28.9152 27.9522 28.8218 27.9196 28.7116C27.8871 28.6014 27.9022 28.4835 27.9616 28.3838C28.021 28.2841 28.1199 28.2108 28.2365 28.1801L35.5044 26.2662C35.8838 26.1666 36.0795 25.6443 35.9274 25.1278L31.7967 11.1058L31.7801 11.056C31.6961 10.9862 31.6424 10.8893 31.6296 10.7842C31.6296 10.7657 31.6296 10.7486 31.6221 10.7301C31.549 10.625 31.4573 10.5326 31.3511 10.4569C31.2771 10.4004 31.1909 10.3601 31.0985 10.3387C31.0061 10.3173 30.9099 10.3154 30.8167 10.3331L30.2145 10.4925C30.1473 10.5099 30.0767 10.5123 30.0083 10.4996L33.7717 23.2922C34.0578 24.2655 33.5911 25.2388 32.7315 25.4665L25.712 27.3163C26.0733 28.56 25.3913 29.8279 24.1886 30.1452C22.9858 30.4625 21.7062 29.7112 21.3284 28.4689L14.6611 30.2306C14.1795 30.3334 13.6753 30.2803 13.2295 30.0798C12.9769 29.985 12.7495 29.8387 12.5637 29.6513C12.3779 29.4638 12.2382 29.2399 12.1546 28.9954L8.39123 16.1986C8.33948 16.2427 8.27765 16.2748 8.21058 16.2925L7.60844 16.4505C7.51864 16.4804 7.43705 16.5289 7.3696 16.5924C7.30215 16.6559 7.25054 16.7329 7.21855 16.8176C7.11784 17.0658 7.10672 17.3384 7.18693 17.5931L11.3162 31.6123C11.4667 32.1317 11.9183 32.4846 12.3022 32.385L19.9826 30.3544C20.0991 30.3236 20.2239 30.3379 20.3293 30.3941C20.4348 30.4503 20.5123 30.5437 20.5448 30.6539C20.5774 30.7641 20.5622 30.882 20.5028 30.9817C20.4434 31.0814 20.3445 31.1546 20.2279 31.1854L12.5415 33.2089C11.6684 33.438 10.723 32.8233 10.434 31.8371L6.30027 17.818C6.16386 17.377 6.18771 16.9056 6.36801 16.479C6.45246 16.2734 6.58525 16.0887 6.75633 15.9388C6.92741 15.7889 7.13231 15.6778 7.35553 15.6138L7.95768 15.4544C8.02535 15.4367 8.09638 15.4338 8.16542 15.4459L8.11273 15.2708C7.81166 14.2492 8.78262 13.1976 9.58197 12.987L17.2819 10.9592C17.5005 10.9058 17.729 10.8996 17.9505 10.941C18.172 10.9823 18.3808 11.0703 18.5615 11.1983C18.6458 11.0009 18.7758 10.8239 18.942 10.6804C19.1082 10.5368 19.3064 10.4303 19.5219 10.3687L27.6509 8.23423C27.874 8.18017 28.1071 8.17475 28.3327 8.21839C28.5583 8.26202 28.7704 8.35357 28.953 8.4861C29.334 8.75953 29.6078 9.14502 29.7313 9.58179L29.784 9.75966C29.8358 9.71561 29.8976 9.68347 29.9647 9.66575L30.5668 9.5078C30.9507 9.41166 31.3592 9.46281 31.7034 9.65009C31.87 9.08148 32.2047 8.56959 32.6683 8.17447C32.7584 8.09701 32.824 7.9974 32.8578 7.88677C32.8916 7.77613 32.8922 7.6588 32.8596 7.54785C32.827 7.4369 32.7624 7.33669 32.6731 7.2584C32.5837 7.1801 32.4732 7.12678 32.3537 7.10439C31.7755 7.00519 31.2382 6.75515 30.8025 6.38249C30.3668 6.00984 30.05 5.52943 29.8879 4.99554L29.5161 3.73621C29.2548 3.74466 28.9994 3.66221 28.7982 3.50449C28.597 3.34676 28.4641 3.12474 28.4245 2.88051C28.385 2.63628 28.4416 2.38683 28.5837 2.17945C28.7258 1.97208 28.9435 1.8212 29.1954 1.75543L35.0859 0.205805C35.3592 0.134103 35.6514 0.167859 35.8984 0.29966C36.1454 0.431462 36.3269 0.650531 36.4031 0.908756C36.4412 1.0362 36.4521 1.16954 36.435 1.30099C36.4179 1.43245 36.3733 1.55936 36.3038 1.67432C36.207 1.83412 36.0659 1.96596 35.8958 2.05567L36.2661 3.31501C36.4189 3.85141 36.4099 4.41751 36.2402 4.94934C36.0705 5.48117 35.7468 5.95753 35.3057 6.3246C35.2155 6.40189 35.1497 6.50138 35.1159 6.61196C35.082 6.72253 35.0814 6.83983 35.1141 6.95072C35.1467 7.06162 35.2113 7.16175 35.3008 7.2399C35.3902 7.31805 35.5008 7.37115 35.6203 7.39326C36.1973 7.49308 36.7335 7.74266 37.1689 8.11409C37.6044 8.48551 37.922 8.96413 38.0861 9.49641L38.4579 10.7543C38.7147 10.7517 38.9638 10.8366 39.1597 10.9935C39.3556 11.1504 39.485 11.3688 39.5244 11.6086C39.5637 11.8484 39.5102 12.0936 39.3738 12.2992C39.2374 12.5048 39.0271 12.6571 38.7816 12.728L33.6287 14.104L36.8066 24.8902C37.07 25.7881 36.7012 26.686 35.9771 27.0147V27.0175ZM22.212 28.2384C22.4484 29.0211 23.2221 29.5035 23.9417 29.3142C24.6612 29.1249 25.0587 28.3338 24.8329 27.5483L24.604 27.608L23.481 27.904L22.3625 28.1986L22.212 28.2384ZM32.4771 24.6355C32.8519 24.5387 33.0341 24.0307 32.8866 23.527L28.8522 9.81089C28.7824 9.56027 28.628 9.33798 28.4126 9.17767C28.3411 9.12324 28.2577 9.08442 28.1684 9.064C28.0792 9.04358 27.9862 9.04207 27.8963 9.05956L19.7673 11.194C19.406 11.2908 19.2118 11.8002 19.3608 12.3039L23.6767 26.9577L24.3572 26.7785L32.4861 24.644L32.4771 24.6355ZM22.1111 27.3647L22.7916 27.1854L18.4772 12.5416C18.4079 12.2911 18.2541 12.0688 18.0391 11.9084C17.968 11.8537 17.8849 11.8146 17.7959 11.794C17.7069 11.7733 17.6141 11.7715 17.5243 11.7888L9.82735 13.8166C9.41036 13.929 8.85036 14.5594 8.99187 15.0403L13.0338 28.7535C13.0828 28.8756 13.159 28.9862 13.2572 29.078C13.3553 29.1699 13.4732 29.2407 13.6028 29.2857C13.8549 29.4021 14.1396 29.4395 14.4157 29.3925L22.1157 27.3647H22.1111ZM38.5347 11.9012C38.5736 11.8897 38.6065 11.8646 38.6266 11.8311C38.6467 11.7975 38.6526 11.758 38.6431 11.7205C38.6312 11.6832 38.6045 11.6517 38.5686 11.6326C38.5327 11.6135 38.4903 11.6083 38.4504 11.6181C38.4175 11.6269 38.3837 11.6321 38.3496 11.6337C38.32 11.649 38.2887 11.6609 38.2562 11.6693L33.3006 12.9927L33.3833 13.2773L38.5332 11.9027L38.5347 11.9012ZM33.0552 12.1588L37.5713 10.9535L37.207 9.72124C37.0887 9.3427 36.8611 9.00286 36.5497 8.73992C36.2382 8.47697 35.8554 8.30136 35.4442 8.23281C35.1572 8.1806 34.8913 8.05369 34.6765 7.86639C34.4616 7.67909 34.3063 7.43882 34.2281 7.17262C34.1499 6.90643 34.1518 6.62488 34.2337 6.35967C34.3156 6.09446 34.4741 5.85611 34.6915 5.67146C35.0055 5.41168 35.2368 5.07446 35.3597 4.69751C35.4825 4.32056 35.4919 3.91874 35.387 3.53699L35.0242 2.30612L30.4027 3.52276L30.767 4.75933C30.8853 5.13787 31.1129 5.47771 31.4243 5.74065C31.7358 6.0036 32.1186 6.17921 32.5298 6.24776C32.8168 6.29998 33.0827 6.42688 33.2975 6.61418C33.5124 6.80149 33.6676 7.04175 33.7459 7.30795C33.8241 7.57414 33.8222 7.85569 33.7403 8.1209C33.6584 8.38611 33.4999 8.62446 33.2825 8.80912C33.0346 9.01747 32.8373 9.27397 32.704 9.56107C32.5708 9.84817 32.5047 10.1591 32.5102 10.4726C32.5803 10.6016 32.6363 10.737 32.6773 10.8767L33.0567 12.1645L33.0552 12.1588ZM35.4156 1.3143C35.4551 1.30344 35.4886 1.27842 35.5089 1.24458C35.5192 1.228 35.5259 1.20962 35.5285 1.19054C35.5311 1.17146 35.5295 1.15209 35.524 1.13359C35.5125 1.09622 35.486 1.06457 35.4502 1.04536C35.4327 1.03561 35.4132 1.02932 35.393 1.02688C35.3729 1.02443 35.3524 1.02588 35.3328 1.03113L29.4408 2.58217C29.421 2.58731 29.4025 2.59608 29.3863 2.60798C29.3701 2.61988 29.3566 2.63468 29.3465 2.65152C29.3363 2.66837 29.3298 2.68694 29.3273 2.70617C29.3247 2.7254 29.3262 2.74492 29.3316 2.7636C29.3371 2.78229 29.3464 2.79978 29.3589 2.81508C29.3715 2.83038 29.3872 2.84318 29.405 2.85276C29.4228 2.86234 29.4425 2.86851 29.4628 2.87091C29.4832 2.87332 29.5038 2.87191 29.5236 2.86677L35.2199 1.36553H35.2289L35.4156 1.31573V1.3143ZM30.8062 22.4042C30.9189 22.364 31.0102 22.2831 31.0599 22.1793C31.1096 22.0755 31.1136 21.9573 31.0711 21.8507C31.0286 21.7441 30.943 21.6578 30.8332 21.6108C30.7234 21.5639 30.5983 21.5601 30.4855 21.6002L24.3888 23.2054C24.2722 23.2361 24.1733 23.3094 24.1139 23.4091C24.0545 23.5087 24.0394 23.6266 24.0719 23.7368C24.1044 23.847 24.1819 23.9405 24.2874 23.9967C24.3928 24.0529 24.5176 24.0671 24.6341 24.0364L30.7309 22.4313C30.7568 22.4244 30.782 22.4153 30.8062 22.4042ZM20.4342 25.1406C20.547 25.1004 20.6382 25.0195 20.6879 24.9157C20.7376 24.8119 20.7416 24.6937 20.6991 24.5871C20.6566 24.4805 20.571 24.3942 20.4612 24.3472C20.3514 24.3002 20.2263 24.2964 20.1135 24.3366L19.3894 24.5273C19.2729 24.5579 19.1739 24.631 19.1143 24.7305C19.0548 24.83 19.0395 24.9479 19.0718 25.0581C19.1042 25.1683 19.1815 25.2618 19.2868 25.3181C19.3921 25.3744 19.5167 25.3889 19.6333 25.3583L20.3589 25.1676C20.3848 25.1608 20.41 25.1517 20.4342 25.1406ZM17.875 25.8194C17.9878 25.7794 18.0792 25.6986 18.129 25.595C18.1788 25.4913 18.1831 25.3732 18.1407 25.2665C18.0984 25.1599 18.013 25.0736 17.9034 25.0265C17.7937 24.9794 17.6687 24.9754 17.5559 25.0154L14.0228 25.946C13.9068 25.976 13.8082 26.0483 13.7486 26.1471C13.6891 26.2458 13.6734 26.3629 13.7052 26.4725C13.7369 26.5821 13.8134 26.6754 13.9179 26.7317C14.0223 26.788 14.1462 26.8028 14.2622 26.7728L17.7953 25.8421C17.8212 25.8355 17.8464 25.8264 17.8705 25.8151L17.875 25.8194ZM26.5806 19.9382C26.6936 19.898 26.785 19.817 26.8349 19.7131C26.8847 19.6092 26.8888 19.4908 26.8463 19.384C26.8038 19.2772 26.7181 19.1907 26.6081 19.1436C26.4982 19.0965 26.3729 19.0926 26.2599 19.1328L23.484 19.8642C23.3675 19.8948 23.2685 19.9679 23.2089 20.0674C23.1494 20.167 23.1341 20.2848 23.1664 20.395C23.1988 20.5052 23.2761 20.5987 23.3814 20.655C23.4867 20.7113 23.6113 20.7258 23.7279 20.6952L26.5053 19.9638C26.531 19.9568 26.5561 19.9482 26.5806 19.9382ZM18.6774 22.0186C18.7904 21.9786 18.8819 21.8978 18.9319 21.794C18.9819 21.6902 18.9862 21.5719 18.9439 21.4651C18.9015 21.3583 18.8161 21.2717 18.7062 21.2245C18.5964 21.1773 18.4713 21.1732 18.3583 21.2132L13.1166 22.5935C13 22.6241 12.901 22.6971 12.8415 22.7967C12.7819 22.8962 12.7666 23.0141 12.7989 23.1243C12.8313 23.2345 12.9086 23.328 13.0139 23.3843C13.1192 23.4406 13.2439 23.4551 13.3604 23.4245L18.6021 22.0442C18.6278 22.0374 18.653 22.0288 18.6774 22.0186ZM27.8872 16.0578C28 16.0177 28.0914 15.937 28.1412 15.8334C28.191 15.7297 28.1953 15.6115 28.1529 15.5049C28.1106 15.3983 28.0252 15.312 27.9156 15.2649C27.8059 15.2178 27.6809 15.2138 27.5681 15.2538L22.4499 16.5999C22.3343 16.6303 22.2362 16.7028 22.1772 16.8016C22.1182 16.9003 22.1031 17.0172 22.1352 17.1264C22.1674 17.2357 22.2441 17.3284 22.3486 17.3842C22.453 17.4399 22.5766 17.4542 22.6922 17.4238L27.8105 16.0777C27.8364 16.071 27.8617 16.062 27.8857 16.0506L27.8872 16.0578ZM15.9376 19.204C15.9935 19.1841 16.0447 19.1541 16.0882 19.1156C16.1318 19.0771 16.1669 19.0309 16.1916 18.9796C16.2163 18.9282 16.23 18.8728 16.232 18.8164C16.234 18.7601 16.2243 18.7039 16.2033 18.6511C16.1824 18.5983 16.1506 18.55 16.1099 18.5088C16.0692 18.4676 16.0203 18.4344 15.9659 18.4111C15.9116 18.3877 15.853 18.3748 15.7934 18.3729C15.7338 18.3709 15.6743 18.3802 15.6185 18.4L12.0854 19.3292C11.9688 19.3597 11.8699 19.4328 11.8103 19.5324C11.7507 19.6319 11.7354 19.7497 11.7678 19.8599C11.8001 19.9701 11.8774 20.0637 11.9827 20.12C12.088 20.1763 12.2127 20.1908 12.3293 20.1602L15.8639 19.231C15.8891 19.2237 15.9138 19.2147 15.9376 19.204ZM27.8632 12.3808C27.976 12.3408 28.0673 12.2601 28.1171 12.1564C28.167 12.0527 28.1712 11.9346 28.1289 11.828C28.0865 11.7213 28.0011 11.635 27.8915 11.5879C27.7818 11.5408 27.6568 11.5368 27.544 11.5768L21.4473 13.1819C21.3307 13.2125 21.2317 13.2856 21.1722 13.3851C21.1126 13.4847 21.0973 13.6025 21.1296 13.7127C21.162 13.8229 21.2393 13.9164 21.3446 13.9727C21.4499 14.029 21.5746 14.0435 21.6912 14.0129L27.7894 12.4078C27.8149 12.4012 27.8396 12.3921 27.8632 12.3808ZM17.4942 15.1115C17.55 15.0917 17.6012 15.0617 17.6448 15.0232C17.6884 14.9847 17.7235 14.9384 17.7482 14.8871C17.7728 14.8357 17.7866 14.7803 17.7886 14.724C17.7906 14.6676 17.7808 14.6114 17.7599 14.5587C17.7389 14.5059 17.7072 14.4575 17.6664 14.4163C17.6257 14.3751 17.5768 14.3419 17.5225 14.3186C17.4682 14.2953 17.4096 14.2823 17.3499 14.2804C17.2903 14.2785 17.2309 14.2877 17.175 14.3075L16.4735 14.4911C16.357 14.5218 16.2581 14.5951 16.1987 14.6948C16.1392 14.7944 16.1241 14.9123 16.1567 15.0225C16.1892 15.1327 16.2667 15.2262 16.3722 15.2824C16.4776 15.3386 16.6023 15.3528 16.7189 15.3221L17.4204 15.1371C17.4458 15.1307 17.4705 15.1221 17.4942 15.1115ZM15.185 15.7162C15.2409 15.6964 15.2922 15.6664 15.3358 15.6279C15.3795 15.5893 15.4147 15.543 15.4395 15.4916C15.4642 15.4402 15.478 15.3847 15.48 15.3283C15.4821 15.2719 15.4724 15.2156 15.4514 15.1627C15.4304 15.1098 15.3987 15.0614 15.3579 15.0201C15.3171 14.9788 15.2682 14.9455 15.2138 14.9221C15.1594 14.8987 15.1007 14.8857 15.041 14.8838C14.9813 14.8818 14.9218 14.891 14.8658 14.9108L11.0768 15.9069C10.96 15.9375 10.8609 16.0107 10.8012 16.1103C10.7415 16.21 10.7261 16.328 10.7584 16.4384C10.7908 16.5488 10.8682 16.6425 10.9736 16.699C11.079 16.7554 11.2039 16.7699 11.3207 16.7394L15.1112 15.7433C15.1364 15.7365 15.1611 15.7279 15.185 15.7177V15.7162Z" fill="#014689"/>
        <path d="M45.754 38.3041H30.496C30.1863 38.3041 29.9352 38.5552 29.9352 38.8649C29.9352 39.1746 30.1863 39.4257 30.496 39.4257H45.754C46.0637 39.4257 46.3148 39.1746 46.3148 38.8649C46.3148 38.5552 46.0637 38.3041 45.754 38.3041Z" fill="#014689"/>
        <path d="M37.2818 42.2297H30.496C30.1863 42.2297 29.9352 42.4808 29.9352 42.7905C29.9352 43.1003 30.1863 43.3514 30.496 43.3514H37.2818C37.5915 43.3514 37.8426 43.1003 37.8426 42.7905C37.8426 42.4808 37.5915 42.2297 37.2818 42.2297Z" fill="#014689"/>
        <path d="M45.915 49.8329H30.3267C30.017 49.8329 29.7659 50.084 29.7659 50.3937C29.7659 50.7034 30.017 50.9545 30.3267 50.9545H45.915C46.2247 50.9545 46.4758 50.7034 46.4758 50.3937C46.4758 50.084 46.2247 49.8329 45.915 49.8329Z" fill="#014689"/>
        <path d="M37.0685 54.4087H30.3267C30.017 54.4087 29.7659 54.6598 29.7659 54.9695C29.7659 55.2792 30.017 55.5303 30.3267 55.5303H37.0685C37.3783 55.5303 37.6294 55.2792 37.6294 54.9695C37.6294 54.6598 37.3783 54.4087 37.0685 54.4087Z" fill="#014689"/>
        <path d="M45.915 61.9931H30.3267C30.017 61.9931 29.7659 62.2442 29.7659 62.5539C29.7659 62.8636 30.017 63.1147 30.3267 63.1147H45.915C46.2247 63.1147 46.4758 62.8636 46.4758 62.5539C46.4758 62.2442 46.2247 61.9931 45.915 61.9931Z" fill="#014689"/>
        <path d="M50.2445 66.5698H30.3267C30.017 66.5698 29.7659 66.8209 29.7659 67.1306C29.7659 67.4404 30.017 67.6914 30.3267 67.6914H50.2445C50.5542 67.6914 50.8053 67.4404 50.8053 67.1306C50.8053 66.8209 50.5542 66.5698 50.2445 66.5698Z" fill="#014689"/>
        <path d="M23.4726 42.8374L21.4348 40.6618L22.2053 39.8393L23.4726 41.1923L25.7044 38.8096L26.4748 39.6322L23.4726 42.8374Z" fill="#014689"/>
        <path d="M23.4726 55.5441L21.4348 53.3685L22.2053 52.546L23.4726 53.899L25.7044 51.5175L26.4748 52.3401L23.4726 55.5441Z" fill="#014689"/>
        <path d="M23.4726 67.6438L21.4348 65.4682L22.2053 64.6457L23.4726 65.9987L25.7044 63.616L26.4748 64.4386L23.4726 67.6438Z" fill="#014689"/>
    </g>
</svg>