<svg width="62" height="93" viewBox="0 0 62 93" fill="none" xmlns="http://www.w3.org/2000/svg">
    <path fill-rule="evenodd" clip-rule="evenodd" d="M123.123 44.6401C122.102 41.8843 120.302 39.6391 118.006 37.6209C116.861 36.613 115.645 35.6352 114.681 34.4825C113.698 33.3044 113.109 31.9778 112.765 30.5462C112.049 27.5744 112.257 24.4879 111.388 21.5353C110.637 18.9848 109.256 16.6092 107.471 14.5222C103.786 10.2105 98.6138 7.07452 93.213 4.73158C90.2721 3.45208 86.9214 1.89615 83.5627 2.26672C80.1462 2.64454 77.29 4.64346 73.8171 4.87402C70.2985 5.10819 66.8551 4.20047 63.534 3.26739C60.2129 2.33432 56.9509 1.34452 53.5062 0.963078C49.1533 0.480246 44.7266 0.954628 40.5685 2.17016C40.3627 2.16593 40.1595 2.21136 39.98 2.30173L39.7422 2.42244C38.7373 2.74433 37.7521 3.10645 36.7865 3.50881C31.5537 5.70449 26.9643 9.21226 23.8474 13.5928C22.1009 16.054 20.877 18.7458 20.0306 21.5426C19.0338 23.484 18.2095 25.4932 17.5653 27.5514C16.6248 30.5474 15.9652 33.7353 16.2218 36.8556C16.4542 39.621 17.482 42.2078 19.0807 44.5676C22.0095 48.8926 26.3544 52.2519 29.4189 56.4851C31.0311 58.717 32.1596 61.1505 32.4914 63.8133C32.8757 66.889 32.4914 69.9875 32.1932 73.0535C31.8895 76.2185 31.6813 79.4172 32.3813 82.5532C33.053 85.5456 34.6329 88.3146 36.7073 90.7119C40.4462 95.0332 46.5376 98.6376 52.8788 97.9049C55.9688 97.5428 58.5806 96.0943 60.7033 94.0953C62.8529 92.0819 64.4852 89.6919 66.5112 87.588C75.7517 77.9953 90.2398 75.0343 102.721 70.2881C108.824 67.9693 115.241 65.1496 119.579 60.4975C121.609 58.3247 123.132 55.7718 123.722 52.9653C124.31 50.1894 124.104 47.3248 123.123 44.6401Z" fill="#DBEDFF"/>
    <g opacity="0.7">
        <path d="M19.5002 34.125C22.1897 34.125 24.796 33.1925 26.8751 31.4862C28.9541 29.78 30.3772 27.4058 30.9019 24.7679C31.4266 22.1301 31.0204 19.3919 29.7526 17.02C28.4848 14.6481 26.4337 12.7891 23.9489 11.7599C21.4642 10.7307 18.6994 10.5948 16.1257 11.3756C13.552 12.1563 11.3286 13.8053 9.83441 16.0415C8.3402 18.2777 7.6676 20.9629 7.93122 23.6394C8.19484 26.316 9.37836 28.8183 11.2801 30.7201" stroke="#014689" stroke-width="2" stroke-linecap="round"/>
        <path d="M15.6252 18.625L23.3752 26.375" stroke="#014689" stroke-width="2" stroke-linecap="round"/>
        <path d="M23.3752 18.625L15.6252 26.375" stroke="#014689" stroke-width="2" stroke-linecap="round"/>
        <path d="M46.5001 38.3715H31.0006C30.6834 38.3715 30.4262 38.6287 30.4262 38.9458C30.4262 39.263 30.6834 39.5202 31.0006 39.5202H46.5001C46.8173 39.5202 47.0744 39.263 47.0744 38.9458C47.0744 38.6287 46.8173 38.3715 46.5001 38.3715Z" fill="#014689"/>
        <path d="M37.889 42.3918H31.0006C30.6834 42.3918 30.4262 42.6489 30.4262 42.9661C30.4262 43.2833 30.6834 43.5404 31.0006 43.5404H37.889C38.2061 43.5404 38.4633 43.2833 38.4633 42.9661C38.4633 42.6489 38.2061 42.3918 37.889 42.3918Z" fill="#014689"/>
        <path d="M46.6636 50.1781H30.8284C30.5113 50.1781 30.2541 50.4352 30.2541 50.7524C30.2541 51.0696 30.5113 51.3267 30.8284 51.3267H46.6636C46.9808 51.3267 47.238 51.0696 47.238 50.7524C47.238 50.4352 46.9808 50.1781 46.6636 50.1781Z" fill="#014689"/>
        <path d="M37.6722 54.8642H30.8284C30.5113 54.8642 30.2541 55.1213 30.2541 55.4385C30.2541 55.7557 30.5113 56.0128 30.8284 56.0128H37.6722C37.9894 56.0128 38.2465 55.7557 38.2465 55.4385C38.2465 55.1213 37.9894 54.8642 37.6722 54.8642Z" fill="#014689"/>
        <path d="M46.6636 62.6313H30.8284C30.5113 62.6313 30.2541 62.8885 30.2541 63.2057C30.2541 63.5229 30.5113 63.78 30.8284 63.78H46.6636C46.9808 63.78 47.238 63.5229 47.238 63.2057C47.238 62.8885 46.9808 62.6313 46.6636 62.6313Z" fill="#014689"/>
        <path d="M51.0641 67.3184H30.8284C30.5113 67.3184 30.2541 67.5756 30.2541 67.8927C30.2541 68.2099 30.5113 68.4671 30.8284 68.4671H51.0641C51.3813 68.4671 51.6384 68.2099 51.6384 67.8927C51.6384 67.5756 51.3813 67.3184 51.0641 67.3184Z" fill="#014689"/>
        <path d="M23.0004 40.9999C23.0004 41.5522 23.4481 41.9999 24.0004 41.9999C24.5527 41.9999 25.0004 41.5522 25.0004 40.9999C25.0004 40.4477 24.5527 39.9999 24.0004 39.9999C23.4481 39.9999 23.0004 40.4477 23.0004 40.9999Z" fill="#014689"/>
        <path d="M23.0004 53.9999C23.0004 54.5522 23.4481 54.9999 24.0004 54.9999C24.5527 54.9999 25.0004 54.5522 25.0004 53.9999C25.0004 53.4477 24.5527 52.9999 24.0004 52.9999C23.4481 52.9999 23.0004 53.4477 23.0004 53.9999Z" fill="#014689"/>
        <path d="M23.0004 65.9999C23.0004 66.5522 23.4481 66.9999 24.0004 66.9999C24.5527 66.9999 25.0004 66.5522 25.0004 65.9999C25.0004 65.4477 24.5527 64.9999 24.0004 64.9999C23.4481 64.9999 23.0004 65.4477 23.0004 65.9999Z" fill="#014689"/>
    </g>
</svg>