<svg width="273" height="248" viewBox="0 0 273 248" fill="none" xmlns="http://www.w3.org/2000/svg">
    <path opacity="0.8" d="M139.553 212.276C179.61 212.276 212.083 179.883 212.083 139.924C212.083 99.9645 179.61 67.5713 139.553 67.5713C99.4954 67.5713 67.0225 99.9645 67.0225 139.924C67.0225 179.883 99.4954 212.276 139.553 212.276Z" fill="#DDE4F3"/>
    <path d="M127.205 74.4165C130.716 71.632 135.068 70.1161 139.553 70.1161C144.037 70.1161 148.39 71.632 151.9 74.4165L211.624 122.292L212.619 187.925C212.619 190.09 212.191 192.234 211.36 194.235C210.53 196.235 209.312 198.053 207.777 199.584C206.242 201.115 204.42 202.33 202.415 203.158C200.409 203.987 198.26 204.413 196.089 204.413H80.2187C76.5768 204.413 73.084 202.97 70.5088 200.401C67.9336 197.832 66.4868 194.348 66.4868 190.715V122.582L127.205 74.4165Z" fill="#2B3580"/>
    <path d="M182.841 79.2266H96.2646C90.9659 79.2266 86.6704 83.5115 86.6704 88.7972V175.161C86.6704 180.447 90.9659 184.732 96.2646 184.732H182.841C188.14 184.732 192.435 180.447 192.435 175.161V88.7972C192.435 83.5115 188.14 79.2266 182.841 79.2266Z" fill="#EFF2F9"/>
    <path d="M157.333 100.178H120.128C119.448 100.178 118.795 99.9085 118.313 99.4283C117.832 98.9481 117.562 98.2968 117.562 97.6178C117.562 96.9387 117.832 96.2874 118.313 95.8072C118.795 95.327 119.448 95.0573 120.128 95.0573H157.333C158.014 95.0573 158.667 95.327 159.148 95.8072C159.63 96.2874 159.9 96.9387 159.9 97.6178C159.9 98.2968 159.63 98.9481 159.148 99.4283C158.667 99.9085 158.014 100.178 157.333 100.178Z" fill="#2B3580"/>
    <path d="M170.876 114.408H106.586C106.132 114.408 105.697 114.228 105.376 113.908C105.055 113.588 104.875 113.153 104.875 112.701C104.875 112.248 105.055 111.814 105.376 111.494C105.697 111.173 106.132 110.994 106.586 110.994H170.876C171.33 110.994 171.765 111.173 172.086 111.494C172.407 111.814 172.587 112.248 172.587 112.701C172.587 113.153 172.407 113.588 172.086 113.908C171.765 114.228 171.33 114.408 170.876 114.408Z" fill="#96A3CE"/>
    <path d="M170.876 127.899H106.586C106.132 127.899 105.697 127.719 105.376 127.399C105.055 127.079 104.875 126.644 104.875 126.192C104.875 125.739 105.055 125.305 105.376 124.985C105.697 124.664 106.132 124.485 106.586 124.485H170.876C171.33 124.485 171.765 124.664 172.086 124.985C172.407 125.305 172.587 125.739 172.587 126.192C172.587 126.644 172.407 127.079 172.086 127.399C171.765 127.719 171.33 127.899 170.876 127.899Z" fill="#96A3CE"/>
    <path d="M170.876 140.127H106.586C106.132 140.127 105.697 139.948 105.376 139.628C105.055 139.307 104.875 138.873 104.875 138.42C104.875 137.968 105.055 137.534 105.376 137.213C105.697 136.893 106.132 136.714 106.586 136.714H170.876C171.33 136.714 171.765 136.893 172.086 137.213C172.407 137.534 172.587 137.968 172.587 138.42C172.587 138.873 172.407 139.307 172.086 139.628C171.765 139.948 171.33 140.127 170.876 140.127Z" fill="#96A3CE"/>
    <path d="M170.876 153.715H106.586C106.132 153.715 105.697 153.535 105.376 153.215C105.055 152.895 104.875 152.461 104.875 152.008C104.875 151.556 105.055 151.121 105.376 150.801C105.697 150.481 106.132 150.301 106.586 150.301H170.876C171.33 150.301 171.765 150.481 172.086 150.801C172.407 151.121 172.587 151.556 172.587 152.008C172.587 152.461 172.407 152.895 172.086 153.215C171.765 153.535 171.33 153.715 170.876 153.715Z" fill="#96A3CE"/>
    <path d="M196.089 204.413H80.2187C76.5768 204.413 73.084 202.97 70.5088 200.401C67.9336 197.832 66.4868 194.348 66.4868 190.715V122.583L196.089 204.413Z" fill="#B9C3E1"/>
    <path d="M196.089 204.413H80.2187C76.5768 204.413 73.084 202.97 70.5088 200.401C67.9336 197.832 66.4868 194.348 66.4868 190.715V122.583L196.089 204.413Z" fill="url(#paint0_linear_10_3733)"/>
    <path d="M212.619 122.583V187.925C212.619 190.09 212.191 192.234 211.36 194.235C210.53 196.235 209.312 198.053 207.777 199.584C206.242 201.115 204.42 202.33 202.415 203.158C200.409 203.987 198.26 204.413 196.089 204.413H80.2188L212.619 122.583Z" fill="url(#paint1_linear_10_3733)"/>
    <path d="M57.2577 196.055C60.1895 196.055 62.5662 193.685 62.5662 190.76C62.5662 187.835 60.1895 185.464 57.2577 185.464C54.3259 185.464 51.9492 187.835 51.9492 190.76C51.9492 193.685 54.3259 196.055 57.2577 196.055Z" fill="#E5EBF7"/>
    <path d="M50.2793 200.9C51.5171 200.9 52.5205 199.899 52.5205 198.664C52.5205 197.43 51.5171 196.429 50.2793 196.429C49.0415 196.429 48.0381 197.43 48.0381 198.664C48.0381 199.899 49.0415 200.9 50.2793 200.9Z" fill="#B9C3E1"/>
    <path d="M184.615 89.2528H189.746C198.524 89.2528 206.943 92.7315 213.15 98.9235C219.358 105.116 222.845 113.514 222.845 122.271V127.374C222.845 131.745 221.982 136.073 220.305 140.111C218.628 144.149 216.17 147.819 213.072 150.91C209.974 154 206.295 156.452 202.247 158.125C198.199 159.798 193.86 160.658 189.478 160.658H151.264V122.523C151.264 113.699 154.777 105.237 161.032 98.9973C167.287 92.758 175.77 89.2528 184.615 89.2528Z" fill="#60BA46"/>
    <path d="M202.666 169.26H157.333V174.381H202.666V169.26Z" fill="url(#paint2_linear_10_3733)"/>
    <path d="M202.666 180.566H157.333V185.687H202.666V180.566Z" fill="url(#paint3_linear_10_3733)"/>
    <path d="M182.075 144.589L162.032 128.222C161.332 127.648 160.888 126.819 160.799 125.919C160.71 125.018 160.982 124.12 161.557 123.42C162.132 122.72 162.961 122.276 163.864 122.185C164.766 122.095 165.668 122.366 166.37 122.938L181.454 135.26L206.39 108.703C206.697 108.376 207.066 108.113 207.475 107.928C207.884 107.743 208.326 107.64 208.775 107.626C209.224 107.611 209.672 107.685 210.092 107.843C210.513 108.001 210.898 108.24 211.226 108.546C211.554 108.853 211.818 109.221 212.003 109.629C212.189 110.037 212.292 110.478 212.306 110.926C212.321 111.374 212.247 111.821 212.088 112.24C211.93 112.66 211.69 113.044 211.383 113.371L182.075 144.589Z" fill="white"/>
    <g opacity="0.8">
        <path opacity="0.8" d="M102.034 64.9298C101.7 64.9297 101.373 64.8323 101.094 64.6496C100.815 64.4669 100.596 64.2068 100.463 63.9013L96.0276 53.6893C95.8473 53.2737 95.8398 52.8036 96.0068 52.3825C96.1739 51.9614 96.5018 51.6237 96.9184 51.4438C97.335 51.2639 97.8062 51.2564 98.2284 51.423C98.6505 51.5897 98.989 51.9168 99.1694 52.3324L103.604 62.5443C103.784 62.9598 103.792 63.4294 103.625 63.8503C103.459 64.2712 103.131 64.6091 102.715 64.7898C102.5 64.8819 102.268 64.9295 102.034 64.9298Z" fill="#95A2CD"/>
        <g opacity="0.8">
            <path opacity="0.8" d="M82.2844 74.1549C81.9899 74.1552 81.7004 74.0795 81.4439 73.9352C81.1874 73.7909 80.9727 73.5829 80.8206 73.3314L77.4616 67.7853C77.2275 67.3981 77.157 66.9339 77.2657 66.4949C77.3743 66.0558 77.6532 65.6777 78.0411 65.4436C78.429 65.2095 78.8941 65.1386 79.3344 65.2463C79.7747 65.3541 80.1542 65.6317 80.3894 66.0183L83.7483 71.5644C83.9831 71.9517 84.0541 72.4162 83.9457 72.8557C83.8373 73.2953 83.5583 73.6738 83.1701 73.9082C82.9034 74.0704 82.5968 74.1558 82.2844 74.1549Z" fill="#95A2CD"/>
        </g>
        <g opacity="0.8">
            <path opacity="0.8" d="M120.87 55.1045C120.482 55.1045 120.106 54.9733 119.803 54.7322C119.5 54.4911 119.288 54.1545 119.202 53.7775L117.755 47.4597C117.654 47.0184 117.733 46.5552 117.974 46.1719C118.215 45.7887 118.599 45.5167 119.042 45.4159C119.484 45.3151 119.948 45.3937 120.333 45.6344C120.717 45.8752 120.989 46.2583 121.09 46.6995L122.538 53.0174C122.588 53.2359 122.594 53.4621 122.557 53.6831C122.519 53.9041 122.438 54.1155 122.319 54.3053C122.199 54.4951 122.043 54.6596 121.86 54.7893C121.677 54.919 121.47 55.0113 121.251 55.0611C121.126 55.0901 120.998 55.1047 120.87 55.1045Z" fill="#95A2CD"/>
        </g>
        <path opacity="0.8" d="M177.072 61.831C176.838 61.8308 176.606 61.7831 176.39 61.691C175.974 61.5103 175.647 61.1725 175.481 60.7516C175.314 60.3307 175.321 59.8611 175.501 59.4456L179.936 49.2334C180.026 49.0276 180.155 48.8414 180.316 48.6853C180.478 48.5293 180.668 48.4065 180.877 48.324C181.086 48.2415 181.31 48.2009 181.534 48.2044C181.759 48.208 181.981 48.2557 182.187 48.3448C182.394 48.4339 182.58 48.5626 182.737 48.7237C182.893 48.8848 183.016 49.075 183.099 49.2835C183.182 49.492 183.222 49.7147 183.219 49.939C183.215 50.1632 183.167 50.3845 183.078 50.5903L178.643 60.8023C178.51 61.1078 178.291 61.368 178.012 61.5508C177.733 61.7335 177.406 61.8309 177.072 61.831Z" fill="#95A2CD"/>
        <g opacity="0.8">
            <path opacity="0.8" d="M196.821 71.0559C196.508 71.0568 196.202 70.9714 195.935 70.8092C195.547 70.5749 195.268 70.1963 195.159 69.7568C195.051 69.3173 195.122 68.8527 195.357 68.4654L198.716 62.9193C198.832 62.7267 198.984 62.5588 199.166 62.4253C199.347 62.2918 199.552 62.1952 199.771 62.1411C199.989 62.087 200.217 62.0766 200.439 62.1102C200.662 62.1439 200.876 62.2211 201.068 62.3374C201.261 62.4537 201.429 62.6068 201.562 62.7879C201.695 62.969 201.791 63.1745 201.845 63.3928C201.898 63.611 201.908 63.8376 201.873 64.0596C201.839 64.2815 201.761 64.4945 201.643 64.6863L198.285 70.2324C198.133 70.4839 197.918 70.6919 197.661 70.8362C197.405 70.9805 197.115 71.0562 196.821 71.0559Z" fill="#95A2CD"/>
        </g>
        <g opacity="0.8">
            <path opacity="0.8" d="M158.235 52.0055C158.107 52.0057 157.979 51.9912 157.854 51.9621C157.635 51.9123 157.428 51.82 157.245 51.6903C157.062 51.5606 156.906 51.3961 156.786 51.2063C156.667 51.0165 156.586 50.8051 156.548 50.5841C156.511 50.3631 156.517 50.1369 156.568 49.9184L158.015 43.6005C158.116 43.1593 158.388 42.7762 158.773 42.5354C159.157 42.2947 159.621 42.2161 160.063 42.3169C160.506 42.4177 160.89 42.6897 161.131 43.0729C161.372 43.4562 161.451 43.9194 161.35 44.3607L159.903 50.6786C159.817 51.0555 159.605 51.3921 159.302 51.6332C158.999 51.8743 158.623 52.0056 158.235 52.0055Z" fill="#95A2CD"/>
        </g>
        <path opacity="0.8" d="M138.259 62.3874C138.034 62.3876 137.812 62.3435 137.604 62.2578C137.396 62.172 137.208 62.0463 137.049 61.8878C136.89 61.7292 136.764 61.541 136.678 61.3338C136.592 61.1267 136.548 60.9046 136.548 60.6804V37.4311C136.548 36.9784 136.728 36.5442 137.049 36.2241C137.37 35.904 137.805 35.7241 138.259 35.7241C138.713 35.7241 139.148 35.904 139.469 36.2241C139.79 36.5442 139.97 36.9784 139.97 37.4311V60.6804C139.97 60.9046 139.926 61.1267 139.84 61.3338C139.754 61.541 139.628 61.7292 139.469 61.8878C139.31 62.0463 139.122 62.172 138.914 62.2578C138.706 62.3435 138.484 62.3876 138.259 62.3874Z" fill="#95A2CD"/>
    </g>
    <path d="M202.668 86.1718C203.821 86.1718 204.757 85.239 204.757 84.0882C204.757 82.9375 203.821 82.0046 202.668 82.0046C201.514 82.0046 200.579 82.9375 200.579 84.0882C200.579 85.239 201.514 86.1718 202.668 86.1718Z" fill="#B9C3E1"/>
    <path d="M74.669 102.089C75.9068 102.089 76.9102 101.088 76.9102 99.8535C76.9102 98.6188 75.9068 97.6178 74.669 97.6178C73.4312 97.6178 72.4277 98.6188 72.4277 99.8535C72.4277 101.088 73.4312 102.089 74.669 102.089Z" fill="#E5EBF7"/>
    <path d="M221.292 157.771C223.319 157.771 224.962 156.132 224.962 154.11C224.962 152.088 223.319 150.449 221.292 150.449C219.265 150.449 217.622 152.088 217.622 154.11C217.622 156.132 219.265 157.771 221.292 157.771Z" fill="#B9C3E1"/>
    <defs>
        <linearGradient id="paint0_linear_10_3733" x1="64.8171" y1="160.784" x2="185.005" y2="205.733" gradientUnits="userSpaceOnUse">
            <stop offset="0.01779" stop-color="#A6B8D7"/>
            <stop offset="0.04665" stop-color="#A0B2D3"/>
            <stop offset="0.26516" stop-color="#7685B5"/>
            <stop offset="0.47573" stop-color="#56629E"/>
            <stop offset="0.67358" stop-color="#3E498E"/>
            <stop offset="0.8537" stop-color="#303A83"/>
            <stop offset="1" stop-color="#2B3580"/>
        </linearGradient>
        <linearGradient id="paint1_linear_10_3733" x1="228.003" y1="155.639" x2="93.9641" y2="203.279" gradientUnits="userSpaceOnUse">
            <stop offset="0.01779" stop-color="#D5D9EC"/>
            <stop offset="0.28823" stop-color="#D2D6EB"/>
            <stop offset="0.5027" stop-color="#C8CDE6"/>
            <stop offset="0.69792" stop-color="#B7BEDF"/>
            <stop offset="0.88065" stop-color="#A0A9D4"/>
            <stop offset="1" stop-color="#8C97CB"/>
        </linearGradient>
        <linearGradient id="paint2_linear_10_3733" x1="2234.23" y1="426.991" x2="2834.72" y2="426.991" gradientUnits="userSpaceOnUse">
            <stop offset="0.01779" stop-color="#A6B8D7"/>
            <stop offset="0.04665" stop-color="#A0B2D3"/>
            <stop offset="0.26516" stop-color="#7685B5"/>
            <stop offset="0.47573" stop-color="#56629E"/>
            <stop offset="0.67358" stop-color="#3E498E"/>
            <stop offset="0.8537" stop-color="#303A83"/>
            <stop offset="1" stop-color="#2B3580"/>
        </linearGradient>
        <linearGradient id="paint3_linear_10_3733" x1="2234.23" y1="455.255" x2="2834.72" y2="455.255" gradientUnits="userSpaceOnUse">
            <stop offset="0.01779" stop-color="#A6B8D7"/>
            <stop offset="0.04665" stop-color="#A0B2D3"/>
            <stop offset="0.26516" stop-color="#7685B5"/>
            <stop offset="0.47573" stop-color="#56629E"/>
            <stop offset="0.67358" stop-color="#3E498E"/>
            <stop offset="0.8537" stop-color="#303A83"/>
            <stop offset="1" stop-color="#2B3580"/>
        </linearGradient>
    </defs>
</svg>
