<svg width="19" height="18" viewBox="0 0 19 18" fill="none" xmlns="http://www.w3.org/2000/svg">
    <path fill-rule="evenodd" clip-rule="evenodd" d="M8.43396 8.25H10.1847L10.2025 3.08346L11.4603 4.34491C12.8093 5.6975 12.9114 5.78135 13.2468 5.78135C13.3379 5.78135 13.4692 5.76312 13.5421 5.74489C13.7171 5.6975 13.9723 5.47146 14.0525 5.29281C14.1437 5.08865 14.14 4.75324 14.0452 4.54178C13.9905 4.41782 13.4874 3.89283 11.9051 2.3142C10.7676 1.17671 9.77963 0.217862 9.71036 0.18505C9.53537 0.0975513 9.18537 0.0829678 8.9812 0.152238C8.84266 0.203279 8.49996 0.527755 6.73175 2.29597C5.13489 3.88918 4.62812 4.41782 4.57343 4.54178C4.47864 4.75324 4.475 5.08865 4.56614 5.29281C4.64635 5.47146 4.90155 5.6975 5.07655 5.74489C5.14947 5.76312 5.28072 5.78135 5.37186 5.78135C5.70728 5.78135 5.80936 5.6975 7.1583 4.34491L8.4161 3.08346L8.43396 8.25Z" fill="#014689"/>
    <path fill-rule="evenodd" clip-rule="evenodd" d="M1.5 8.2502C0.671573 8.2502 0 8.92177 0 9.75019V15.8252C0 16.6536 0.671574 17.3252 1.5 17.3252H17.1675C17.9959 17.3252 18.6675 16.6536 18.6675 15.8252V9.7502C18.6675 8.92177 17.9959 8.2502 17.1675 8.2502H10.1847L10.1843 8.35913L10.1661 13.6382L10.0859 13.7841C9.91817 14.0976 9.65568 14.2544 9.30933 14.2544C8.96297 14.2544 8.70048 14.0976 8.53277 13.7841L8.45256 13.6382L8.43433 8.35913L8.43396 8.2502H1.5Z" fill="#014689"/>
</svg>
