<svg width="16" height="16" viewBox="0 0 16 16" fill="none" xmlns="http://www.w3.org/2000/svg">
    <path fill-rule="evenodd" clip-rule="evenodd" d="M7.62264 7.5H8.7898L8.8017 4.05564L9.64023 4.8966C10.5395 5.79833 10.6076 5.85423 10.8312 5.85423C10.892 5.85423 10.9795 5.84208 11.0281 5.82993C11.1447 5.79833 11.3149 5.64764 11.3683 5.52854C11.4291 5.39243 11.4267 5.16882 11.3635 5.02785C11.327 4.94522 10.9916 4.59522 9.93676 3.5428C9.17843 2.78447 8.51976 2.14524 8.47358 2.12337C8.35691 2.06503 8.12358 2.05531 7.98747 2.10149C7.89511 2.13552 7.66664 2.35184 6.48783 3.53065C5.42326 4.59279 5.08541 4.94522 5.04895 5.02785C4.98576 5.16882 4.98333 5.39243 5.04409 5.52854C5.09757 5.64764 5.2677 5.79833 5.38437 5.82993C5.43298 5.84208 5.52048 5.85423 5.58124 5.85423C5.80485 5.85423 5.87291 5.79833 6.7722 4.8966L7.61074 4.05564L7.62264 7.5Z" fill="#F8FBFF"/>
    <path fill-rule="evenodd" clip-rule="evenodd" d="M3.5 7.50005C2.67157 7.50005 2 8.17162 2 9.00005V12.05C2 12.8785 2.67157 13.55 3.5 13.55H12.945C13.7734 13.55 14.445 12.8785 14.445 12.05V9.00005C14.445 8.17162 13.7734 7.50005 12.945 7.50005H8.7898L8.78955 7.57267L8.77739 11.0921L8.72392 11.1893C8.61212 11.3983 8.43712 11.5028 8.20622 11.5028C7.97532 11.5028 7.80032 11.3983 7.68851 11.1893L7.63504 11.0921L7.62289 7.57267L7.62264 7.50005H3.5Z" fill="#F8FBFF"/>
</svg>