<svg width="53" height="12" viewBox="0 0 53 12" fill="none" xmlns="http://www.w3.org/2000/svg">
    <path d="M1.562 2.46H2.752C3.62 2.46 4.908 2.908 4.908 4.14C4.908 5.428 3.816 5.862 2.948 5.862H1.562V2.46ZM0.162 11H1.562V7.094H2.934C4.698 7.094 6.392 6.324 6.392 4.154C6.392 1.928 4.726 1.228 2.724 1.228H0.162V11ZM8.0673 11H9.3833V3.86H8.0673V11ZM9.4673 0.78H7.9833V2.264H9.4673V0.78ZM11.9638 11H13.2798V0.499999H11.9638V11ZM15.8603 11H17.1763V3.86H15.8603V11ZM17.2603 0.78H15.7763V2.264H17.2603V0.78ZM19.5888 11H20.9048V7.696C20.9048 5.96 21.5768 4.756 23.0748 4.756C24.2228 4.826 24.5868 5.638 24.5868 7.304V11H25.9028V6.758C25.9028 4.84 25.0768 3.692 23.2288 3.692C22.2348 3.692 21.4088 4.126 20.9328 4.882H20.9048V0.499999H19.5888V11ZM32.0858 11H33.4858V6.548H37.1118V5.316H33.4858V2.46H37.2798V1.228H32.0858V11ZM39.2118 11H40.5278V3.86H39.2118V11ZM40.6118 0.78H39.1278V2.264H40.6118V0.78ZM43.1083 11H44.4243V0.499999H43.1083V11ZM52.3108 9.39C51.9888 9.656 50.9808 10.104 50.1128 10.104C48.8668 10.104 47.7608 9.138 47.7608 7.724H52.8568C52.8568 5.428 52.0868 3.692 49.7068 3.692C47.6908 3.692 46.3608 5.19 46.3608 7.304C46.3608 9.628 47.5228 11.168 50.0568 11.168C51.2328 11.168 51.8068 10.888 52.3108 10.706V9.39ZM47.7608 6.744C47.8588 5.82 48.3908 4.756 49.6788 4.756C50.8128 4.756 51.4568 5.652 51.4568 6.744H47.7608Z" fill="white"/>
</svg>
