<svg xmlns="http://www.w3.org/2000/svg"
     xmlns:xlink="http://www.w3.org/1999/xlink"
     version="1.1" x="0px" y="0px"
     viewBox="0 0 100 125"
     enable-background="new 0 0 100 100"
     xml:space="preserve">
    <path d="M5.435,15.661v68.941h89.13V15.661H5.435z M93.86,22.923v60.974H6.14V22.824H93.86V22.923z M93.86,21.942v0.177H6.14v-5.752  H93.86V21.942z"/>
    <rect x="89.829" y="18.442" width="1.724" height="1.724"/>
    <rect x="85.501" y="18.442" width="1.724" height="1.724"/>
    <rect x="81.172" y="18.442" width="1.724" height="1.724"/>
    <g>
        <polygon fill="none" points="35.625,54.418 43.432,54.418 43.432,55.3 35.625,55.3 35.625,58.062 43.432,58.062 43.432,58.944    35.625,58.944 35.625,61.706 43.432,61.706 43.432,62.588 35.625,62.588 35.625,70.711 64.375,70.711 64.375,51.077 35.625,51.077     "/>
        <path d="M60.128,40.585c-0.445-1.375-1.109-2.586-1.976-3.602c-1.91-2.237-4.729-3.42-8.151-3.42c-3.293,0-6.068,1.18-8.022,3.413   c-1.769,2.021-2.744,4.802-2.744,7.831v6.163h3.593v-6.163c0-2.762,0.932-7.394,7.174-7.394c2.502,0,4.37,0.685,5.552,2.037   c1.074,1.229,1.619,3.031,1.619,5.358v6.163h3.592v-6.163C60.765,43.311,60.551,41.891,60.128,40.585z M60.059,50.266h-2.182   v-5.458c0-4.725-2.157-8.1-7.877-8.1c-5.477,0-7.879,3.375-7.879,8.1v5.458H39.94v-5.458c0-5.593,3.497-10.539,10.061-10.539   c6.895,0,10.059,4.946,10.059,10.539V50.266z"/><path d="M34.893,50.266v21.256h30.213V50.266H34.893z M64.375,70.711h-28.75v-8.123h7.807v-0.882h-7.807v-2.762h7.807v-0.882   h-7.807V55.3h7.807v-0.882h-7.807v-3.341h28.75V70.711z"/></g><text x="0" y="115" fill="#000000" font-size="5px" font-weight="bold" font-family="'Helvetica Neue', Helvetica, Arial-Unicode, Arial, Sans-serif"></text><text x="0" y="120" fill="#000000" font-size="5px" font-weight="bold" font-family="'Helvetica Neue', Helvetica, Arial-Unicode, Arial, Sans-serif"></text></svg>