<svg width="16" height="16" viewBox="0 0 16 16" fill="none" xmlns="http://www.w3.org/2000/svg">
    <path fill-rule="evenodd" clip-rule="evenodd" d="M6.78596 1.77777C4.02005 1.77777 1.77783 4.01999 1.77783 6.7859C1.77783 9.55181 4.02005 11.794 6.78596 11.794C8.00498 11.794 9.12228 11.3585 9.99074 10.6345L13.4451 14.0889C13.6229 14.2667 13.9111 14.2667 14.0889 14.0889C14.2667 13.9111 14.2667 13.6228 14.0889 13.445L10.6346 9.99067C11.3586 9.12222 11.7941 8.00492 11.7941 6.7859C11.7941 4.01999 9.55188 1.77777 6.78596 1.77777ZM2.6884 6.7859C2.6884 4.52288 4.52294 2.68834 6.78596 2.68834C9.04898 2.68834 10.8835 4.52288 10.8835 6.7859C10.8835 9.04892 9.04898 10.8835 6.78596 10.8835C4.52294 10.8835 2.6884 9.04892 2.6884 6.7859Z" fill="#10569C" stroke="#10569C" stroke-width="0.5" stroke-linecap="round"/>
</svg>