<svg xmlns="http://www.w3.org/2000/svg" width="31.568" height="31.567" viewBox="0 0 31.568 31.567"><defs><style>.a{fill:#003b85;}</style></defs><path class="a" d="M140.711,348.12l-15.6.074a7.954,7.954,0,0,0-7.906,7.982l.075,15.6a7.952,7.952,0,0,0,7.982,7.906l15.6-.074a7.953,7.953,0,0,0,7.906-7.982l-.075-15.6A7.952,7.952,0,0,0,140.711,348.12Zm4.63,23.527a4.523,4.523,0,0,1-4.5,4.539l-15.6.074a4.523,4.523,0,0,1-4.538-4.5l-.074-15.6a4.522,4.522,0,0,1,4.495-4.538l15.6-.075a4.523,4.523,0,0,1,4.539,4.5Z" transform="translate(-117.201 -348.12)"/><path class="a" d="M155.858,361.013a1.919,1.919,0,1,1,1.91-1.928,1.921,1.921,0,0,1-1.91,1.928Z" transform="translate(-131.734 -351.702)"/><path class="a" d="M137.97,360.816a8.111,8.111,0,1,0,8.149,8.072A8.12,8.12,0,0,0,137.97,360.816Zm.061,12.8a4.684,4.684,0,1,1,4.66-4.707A4.691,4.691,0,0,1,138.031,373.611Z" transform="translate(-122.225 -353.143)"/></svg>