<svg xmlns="http://www.w3.org/2000/svg" width="32.908" height="31.536" viewBox="0 0 32.908 31.536"><defs><style>.a{fill:#003b85;}</style></defs><path class="a" d="M64.29,348.146c-9.07,0-16.454,6.03-16.454,13.441,0,6.638,5.855,12.2,13.76,13.256.536.114,1.265.357,1.45.815a3.385,3.385,0,0,1,.052,1.49l-.225,1.407c-.062.415-.329,1.636,1.438.89s9.483-5.627,12.939-9.624a11.929,11.929,0,0,0,3.494-8.234c0-7.411-7.384-13.441-16.454-13.441Zm-6.44,17.848H54.578a.872.872,0,0,1-.864-.868v-6.583a.864.864,0,1,1,1.728,0v5.714H57.85a.868.868,0,0,1,0,1.737Zm3.381-.868a.862.862,0,1,1-1.725,0v-6.583a.862.862,0,1,1,1.725,0Zm7.872,0a.869.869,0,0,1-.592.823.883.883,0,0,1-.273.043.847.847,0,0,1-.7-.346l-3.35-4.577v4.056a.862.862,0,1,1-1.724,0v-6.582a.865.865,0,0,1,.59-.821.8.8,0,0,1,.266-.045.884.884,0,0,1,.679.351l3.376,4.595v-4.079a.864.864,0,1,1,1.728,0Zm5.286-4.161a.87.87,0,0,1,0,1.74H71.982v1.552h2.406a.868.868,0,0,1,0,1.737H71.117a.868.868,0,0,1-.859-.868v-6.583a.869.869,0,0,1,.864-.87h3.272a.869.869,0,0,1,0,1.739H71.982v1.552Z" transform="translate(-47.836 -348.146)"/></svg>