<svg xmlns="http://www.w3.org/2000/svg" width="31.568" height="31.568" viewBox="0 0 31.568 31.568"><defs><style>.a{fill:#003b85;}.b{fill:#fff;}</style></defs><rect class="a" width="31.568" height="31.568" rx="3" transform="translate(0 0)"/><g transform="translate(4.215 3.908)"><path class="b" d="M428.941,358.535h.033a2.764,2.764,0,1,0-.033,0Z" transform="translate(-426.199 -353.38)"/><path class="b" d="M444.393,379.97v-8.332a3.4,3.4,0,0,1,.164-1.209,2.713,2.713,0,0,1,2.545-1.814c1.795,0,2.512,1.368,2.512,3.373v7.981h4.96v-8.555c0-4.582-2.446-6.713-5.71-6.713a4.924,4.924,0,0,0-4.47,2.464v.048h-.033c.008-.016.022-.032.033-.048v-2.114h-4.961c.066,1.4,0,14.918,0,14.918Z" transform="translate(-431.435 -357.859)"/><rect class="b" width="4.959" height="14.918" transform="translate(0.295 7.192)"/></g></svg>