<svg xmlns="http://www.w3.org/2000/svg" width="38.844" height="31.567" viewBox="0 0 38.844 31.567"><defs><style>.a{fill:#003b85;}</style></defs><path class="a" d="M251.278,376.079a22.549,22.549,0,0,0,12.216,3.581c14.658,0,22.674-12.143,22.674-22.674q0-.518-.023-1.031a16.194,16.194,0,0,0,3.977-4.125,15.938,15.938,0,0,1-4.577,1.255,7.991,7.991,0,0,0,3.5-4.409,15.959,15.959,0,0,1-5.061,1.934,7.976,7.976,0,0,0-13.58,7.269,22.626,22.626,0,0,1-16.425-8.327,7.977,7.977,0,0,0,2.466,10.64,7.939,7.939,0,0,1-3.61-1c0,.033,0,.066,0,.1a7.974,7.974,0,0,0,6.393,7.814,7.98,7.98,0,0,1-3.6.137,7.976,7.976,0,0,0,7.445,5.534,16.086,16.086,0,0,1-11.8,3.3Z" transform="translate(-251.278 -348.093)"/></svg>