<svg xmlns="http://www.w3.org/2000/svg" width="31.416" height="31.567" viewBox="0 0 31.416 31.567"><defs><style>.a{fill:#003b85;fill-rule:evenodd;}</style></defs><path class="a" d="M517.636,352.935a15.646,15.646,0,0,0-24.619,18.874l-2.219,8.106,8.292-2.176a15.621,15.621,0,0,0,7.475,1.9h.007a15.649,15.649,0,0,0,11.065-26.708ZM506.571,377h-.005a12.989,12.989,0,0,1-6.617-1.812l-.474-.282-4.921,1.291,1.314-4.8-.309-.492A13,13,0,1,1,506.571,377Zm7.132-9.737c-.391-.2-2.313-1.141-2.671-1.272s-.619-.2-.879.2-1.01,1.271-1.238,1.532-.456.294-.847.1a10.685,10.685,0,0,1-3.143-1.94,11.81,11.81,0,0,1-2.174-2.707c-.228-.392,0-.583.172-.8a11.148,11.148,0,0,0,.977-1.337.722.722,0,0,0-.033-.685c-.1-.2-.879-2.119-1.2-2.9-.318-.762-.639-.659-.88-.671s-.488-.014-.749-.014a1.436,1.436,0,0,0-1.042.49,4.382,4.382,0,0,0-1.368,3.26,7.6,7.6,0,0,0,1.6,4.044c.2.26,2.756,4.208,6.677,5.9a22.343,22.343,0,0,0,2.228.824,5.358,5.358,0,0,0,2.462.155,4.028,4.028,0,0,0,2.638-1.858,3.265,3.265,0,0,0,.228-1.859C514.354,367.557,514.093,367.46,513.7,367.264Z" transform="translate(-490.798 -348.347)"/></svg>