<svg xmlns="http://www.w3.org/2000/svg" width="44.378" height="30.932" viewBox="0 0 44.378 30.932"><defs><style>.a{fill:#003b85;}</style></defs><path class="a" d="M332.4,378.937a149.205,149.205,0,0,0,16.617.613,149.173,149.173,0,0,0,16.617-.613,5.609,5.609,0,0,0,4.8-4.362,71.677,71.677,0,0,0,.008-20.979,5.605,5.605,0,0,0-4.8-4.362,149.22,149.22,0,0,0-16.617-.615,149.274,149.274,0,0,0-16.62.615,5.6,5.6,0,0,0-4.794,4.362,71.071,71.071,0,0,0-.008,20.979A5.6,5.6,0,0,0,332.4,378.937ZM343.3,356.3c4.7,2.454,9.374,4.89,14.108,7.359L343.3,370.974V356.3Z" transform="translate(-326.833 -348.62)"/></svg>